  0
SECTION
  2
HEADER
  9
$ACADVER
  1
AC1015
  9
$ACADMAINTVER
 70
     6
  9
$DWGCODEPAGE
  3
ANSI_1252
  9
$INSBASE
 10
0.0
 20
0.0
 30
0.0
  9
$EXTMIN
 10
0.0
 20
0.0
 30
0.0
  9
$EXTMAX
 10
762.0
 20
508.0
 30
0.0
  9
$LIMMIN
 10
0.0
 20
0.0
  9
$LIMMAX
 10
762.0
 20
508.0
  9
$ORTHOMODE
 70
     0
  9
$REGENMODE
 70
     1
  9
$FILLMODE
 70
     1
  9
$QTEXTMODE
 70
     0
  9
$MIRRTEXT
 70
     1
  9
$LTSCALE
 40
1.0
  9
$ATTMODE
 70
     1
  9
$TEXTSIZE
 40
3.5
  9
$TRACEWID
 40
1.0
  9
$TEXTSTYLE
  7
Standard
  9
$CLAYER
  8
0
  9
$CELTYPE
  6
ByLayer
  9
$CECOLOR
 62
   256
  9
$CELTSCALE
 40
1.0
  9
$DISPSILH
 70
     0
  9
$DIMSCALE
 40
1.0
  9
$DIMASZ
 40
3.302
  9
$DIMEXO
 40
1.0
  9
$DIMDLI
 40
3.75
  9
$DIMRND
 40
0.0
  9
$DIMDLE
 40
0.0
  9
$DIMEXE
 40
1.0
  9
$DIMTP
 40
0.0
  9
$DIMTM
 40
0.0
  9
$DIMTXT
 40
3.5
  9
$DIMCEN
 40
2.5
  9
$DIMTSZ
 40
0.0
  9
$DIMTOL
 70
     0
  9
$DIMLIM
 70
     0
  9
$DIMTIH
 70
     1
  9
$DIMTOH
 70
     1
  9
$DIMSE1
 70
     0
  9
$DIMSE2
 70
     0
  9
$DIMTAD
 70
     1
  9
$DIMZIN
 70
     0
  9
$DIMBLK
  1

  9
$DIMASO
 70
     1
  9
$DIMSHO
 70
     1
  9
$DIMPOST
  1

  9
$DIMAPOST
  1

  9
$DIMALT
 70
     0
  9
$DIMALTD
 70
     3
  9
$DIMALTF
 40
0.0393700787
  9
$DIMLFAC
 40
1.0
  9
$DIMTOFL
 70
     1
  9
$DIMTVP
 40
0.0
  9
$DIMTIX
 70
     0
  9
$DIMSOXD
 70
     0
  9
$DIMSAH
 70
     0
  9
$DIMBLK1
  1

  9
$DIMBLK2
  1

  9
$DIMSTYLE
  2
ISO-25
  9
$DIMCLRD
 70
     0
  9
$DIMCLRE
 70
     0
  9
$DIMCLRT
 70
     0
  9
$DIMTFAC
 40
1.0
  9
$DIMGAP
 40
1.524
  9
$DIMJUST
 70
     0
  9
$DIMSD1
 70
     0
  9
$DIMSD2
 70
     0
  9
$DIMTOLJ
 70
     0
  9
$DIMTZIN
 70
     0
  9
$DIMALTZ
 70
     0
  9
$DIMALTTZ
 70
     0
  9
$DIMUPT
 70
     0
  9
$DIMDEC
 70
     3
  9
$DIMTDEC
 70
     3
  9
$DIMALTU
 70
     2
  9
$DIMALTTD
 70
     3
  9
$DIMTXSTY
  7
Standard
  9
$DIMAUNIT
 70
     0
  9
$DIMADEC
 70
     2
  9
$DIMALTRND
 40
0.0
  9
$DIMAZIN
 70
     0
  9
$DIMDSEP
 70
    44
  9
$DIMATFIT
 70
     3
  9
$DIMFRAC
 70
     0
  9
$DIMLDRBLK
  1

  9
$DIMLUNIT
 70
     2
  9
$DIMLWD
 70
    -2
  9
$DIMLWE
 70
    -2
  9
$DIMTMOVE
 70
     0
  9
$LUNITS
 70
     2
  9
$LUPREC
 70
     2
  9
$SKETCHINC
 40
1.0
  9
$FILLETRAD
 40
10.0
  9
$AUNITS
 70
     0
  9
$AUPREC
 70
     2
  9
$MENU
  1
.
  9
$ELEVATION
 40
0.0
  9
$PELEVATION
 40
0.0
  9
$THICKNESS
 40
0.0
  9
$LIMCHECK
 70
     0
  9
$CHAMFERA
 40
10.0
  9
$CHAMFERB
 40
10.0
  9
$CHAMFERC
 40
20.0
  9
$CHAMFERD
 40
0.0
  9
$SKPOLY
 70
     0
  9
$TDCREATE
 40
2456231.609193866
  9
$TDUCREATE
 40
2456231.900860532
  9
$TDUPDATE
 40
2456231.609193877
  9
$TDUUPDATE
 40
2456231.900860544
  9
$TDINDWG
 40
0.0000000116
  9
$TDUSRTIMER
 40
0.0000000116
  9
$USRTIMER
 70
     1
  9
$ANGBASE
 50
0.0
  9
$ANGDIR
 70
     0
  9
$PDMODE
 70
     0
  9
$PDSIZE
 40
-1.0
  9
$PLINEWID
 40
0.0
  9
$SPLFRAME
 70
     0
  9
$SPLINETYPE
 70
     6
  9
$SPLINESEGS
 70
     8
  9
$HANDSEED
  5
2F9
  9
$SURFTAB1
 70
     6
  9
$SURFTAB2
 70
     6
  9
$SURFTYPE
 70
     6
  9
$SURFU
 70
     6
  9
$SURFV
 70
     6
  9
$UCSBASE
  2

  9
$UCSNAME
  2

  9
$UCSORG
 10
0.0
 20
0.0
 30
0.0
  9
$UCSXDIR
 10
1.0
 20
0.0
 30
0.0
  9
$UCSYDIR
 10
0.0
 20
1.0
 30
0.0
  9
$UCSORTHOREF
  2

  9
$UCSORTHOVIEW
 70
     0
  9
$UCSORGTOP
 10
0.0
 20
0.0
 30
0.0
  9
$UCSORGBOTTOM
 10
0.0
 20
0.0
 30
0.0
  9
$UCSORGLEFT
 10
0.0
 20
0.0
 30
0.0
  9
$UCSORGRIGHT
 10
0.0
 20
0.0
 30
0.0
  9
$UCSORGFRONT
 10
0.0
 20
0.0
 30
0.0
  9
$UCSORGBACK
 10
0.0
 20
0.0
 30
0.0
  9
$PUCSBASE
  2

  9
$PUCSNAME
  2

  9
$PUCSORG
 10
0.0
 20
0.0
 30
0.0
  9
$PUCSXDIR
 10
1.0
 20
0.0
 30
0.0
  9
$PUCSYDIR
 10
0.0
 20
1.0
 30
0.0
  9
$PUCSORTHOREF
  2

  9
$PUCSORTHOVIEW
 70
     0
  9
$PUCSORGTOP
 10
0.0
 20
0.0
 30
0.0
  9
$PUCSORGBOTTOM
 10
0.0
 20
0.0
 30
0.0
  9
$PUCSORGLEFT
 10
0.0
 20
0.0
 30
0.0
  9
$PUCSORGRIGHT
 10
0.0
 20
0.0
 30
0.0
  9
$PUCSORGFRONT
 10
0.0
 20
0.0
 30
0.0
  9
$PUCSORGBACK
 10
0.0
 20
0.0
 30
0.0
  9
$USERI1
 70
     0
  9
$USERI2
 70
     0
  9
$USERI3
 70
     0
  9
$USERI4
 70
     0
  9
$USERI5
 70
     0
  9
$USERR1
 40
0.0
  9
$USERR2
 40
0.0
  9
$USERR3
 40
0.0
  9
$USERR4
 40
0.0
  9
$USERR5
 40
0.0
  9
$WORLDVIEW
 70
     1
  9
$SHADEDGE
 70
     3
  9
$SHADEDIF
 70
    70
  9
$TILEMODE
 70
     1
  9
$MAXACTVP
 70
    64
  9
$PINSBASE
 10
0.0
 20
0.0
 30
0.0
  9
$PLIMCHECK
 70
     0
  9
$PEXTMIN
 10
1.0000000000E+20
 20
1.0000000000E+20
 30
1.0000000000E+20
  9
$PEXTMAX
 10
-1.0000000000E+20
 20
-1.0000000000E+20
 30
-1.0000000000E+20
  9
$PLIMMIN
 10
0.0
 20
0.0
  9
$PLIMMAX
 10
420.0
 20
297.0
  9
$UNITMODE
 70
     0
  9
$VISRETAIN
 70
     1
  9
$PLINEGEN
 70
     0
  9
$PSLTSCALE
 70
     1
  9
$TREEDEPTH
 70
  3020
  9
$CMLSTYLE
  2
Standard
  9
$CMLJUST
 70
     0
  9
$CMLSCALE
 40
20.0
  9
$PROXYGRAPHICS
 70
     1
  9
$MEASUREMENT
 70
     1
  9
$CELWEIGHT
370
    -1
  9
$ENDCAPS
280
     0
  9
$JOINSTYLE
280
     0
  9
$LWDISPLAY
290
     1
  9
$INSUNITS
 70
     4
  9
$HYPERLINKBASE
  1

  9
$STYLESHEET
  1

  9
$XEDIT
290
     1
  9
$CEPSNTYPE
380
     0
  9
$PSTYLEMODE
290
     1
  9
$FINGERPRINTGUID
  2
{D014527D-4EAB-4971-82E4-B93EC06C6F61}
  9
$VERSIONGUID
  2
{FAEB1C32-E019-11D5-929B-00C0DF256EC4}
  9
$EXTNAMES
290
     1
  9
$PSVPSCALE
 40
0.0
  9
$OLESTARTUP
290
     0
  0
ENDSEC
  0
SECTION
  2
CLASSES
  0
CLASS
  1
ACDBDICTIONARYWDFLT
  2
AcDbDictionaryWithDefault
  3
ObjectDBX Classes
 90
        0
280
     0
281
     0
  0
CLASS
  1
VISUALSTYLE
  2
AcDbVisualStyle
  3
ObjectDBX Classes
 90
     4095
280
     0
281
     0
  0
CLASS
  1
DICTIONARYVAR
  2
AcDbDictionaryVar
  3
ObjectDBX Classes
 90
        0
280
     0
281
     0
  0
CLASS
  1
ACDBPLACEHOLDER
  2
AcDbPlaceHolder
  3
ObjectDBX Classes
 90
        0
280
     0
281
     0
  0
CLASS
  1
LAYOUT
  2
AcDbLayout
  3
ObjectDBX Classes
 90
        0
280
     0
281
     0
  0
ENDSEC
  0
SECTION
  2
TABLES
  0
TABLE
  2
VPORT
  5
8
330
0
100
AcDbSymbolTable
 70
     1
  0
VPORT
  5
29
330
8
100
AcDbSymbolTableRecord
100
AcDbViewportTableRecord
  2
*Active
 70
     0
 10
0.0
 20
0.0
 11
1.0
 21
1.0
 12
381.0
 22
254.0
 13
0.0
 23
0.0
 14
10.0
 24
10.0
 15
10.0
 25
10.0
 16
0.0
 26
0.0
 36
1.0
 17
0.0
 27
0.0
 37
0.0
 40
508.0
 41
1.5
 42
50.0
 43
0.0
 44
0.0
 50
0.0
 51
0.0
 71
     0
 72
  2000
 73
     1
 74
     3
 75
     0
 76
     0
 77
     0
 78
     0
281
     0
 65
     1
110
0.0
120
0.0
130
0.0
111
1.0
121
0.0
131
0.0
112
0.0
122
1.0
132
0.0
 79
     0
146
0.0
  0
ENDTAB
  0
TABLE
  2
LTYPE
  5
5
330
0
100
AcDbSymbolTable
 70
     6
  0
LTYPE
  5
14
330
5
100
AcDbSymbolTableRecord
100
AcDbLinetypeTableRecord
  2
ByBlock
 70
     0
  3

 72
    65
 73
     0
 40
0.0
  0
LTYPE
  5
15
330
5
100
AcDbSymbolTableRecord
100
AcDbLinetypeTableRecord
  2
ByLayer
 70
     0
  3

 72
    65
 73
     0
 40
0.0
  0
LTYPE
  5
16
330
5
100
AcDbSymbolTableRecord
100
AcDbLinetypeTableRecord
  2
Continuous
 70
     0
  3
Solid line
 72
    65
 73
     0
 40
0.0
  0
LTYPE
  5
3B
330
5
100
AcDbSymbolTableRecord
100
AcDbLinetypeTableRecord
  2
HIDDEN
 70
     0
  3
Hidden __ __ __ __ __ __ __ __ __ __ __ __ __ __
 72
    65
 73
     2
 40
1.905
 49
1.27
 74
     0
 49
-0.635
 74
     0
  0
LTYPE
  5
3C
330
5
100
AcDbSymbolTableRecord
100
AcDbLinetypeTableRecord
  2
PHANTOM
 70
     0
  3
Phantom ______  __  __  ______  __  __  ______
 72
    65
 73
     6
 40
12.7
 49
6.35
 74
     0
 49
-1.27
 74
     0
 49
1.27
 74
     0
 49
-1.27
 74
     0
 49
1.27
 74
     0
 49
-1.27
 74
     0
  0
LTYPE
  5
3D
330
5
100
AcDbSymbolTableRecord
100
AcDbLinetypeTableRecord
  2
CENTER
 70
     0
  3
Center ____ _ ____ _ ____ _ ____ _ ____ _ ____
 72
    65
 73
     4
 40
10.16
 49
6.35
 74
     0
 49
-1.27
 74
     0
 49
1.27
 74
     0
 49
-1.27
 74
     0
  0
LTYPE
  5
3E
330
5
100
AcDbSymbolTableRecord
100
AcDbLinetypeTableRecord
  2
CENTERX2
 70
     0
  3
Center (2x) ________  __  ________  __  _____
 72
    65
 73
     4
 40
20.32
 49
12.7
 74
     0
 49
-2.54
 74
     0
 49
2.54
 74
     0
 49
-2.54
 74
     0
  0
LTYPE
  5
3F
330
5
100
AcDbSymbolTableRecord
100
AcDbLinetypeTableRecord
  2
DOT2
 70
     0
  3
Dot (.5x) ........................................
 72
    65
 73
     2
 40
0.635
 49
0.0
 74
     0
 49
-0.635
 74
     0
  0
ENDTAB
  0
TABLE
  2
LAYER
  5
2
330
0
100
AcDbSymbolTable
 70
     1
  0
LAYER
  5
10
330
2
100
AcDbSymbolTableRecord
100
AcDbLayerTableRecord
  2
0
 70
     0
 62
     7
  6
Continuous
370
    -3
390
F
  0
ENDTAB
  0
TABLE
  2
STYLE
  5
3
330
0
100
AcDbSymbolTable
 70
     1
  0
STYLE
  5
11
330
3
100
AcDbSymbolTableRecord
100
AcDbTextStyleTableRecord
  2
Standard
 70
     0
 40
0.0
 41
1.0
 50
0.0
 71
     0
 42
2.5
  3
txt
  4

  0
ENDTAB
  0
TABLE
  2
VIEW
  5
6
330
0
100
AcDbSymbolTable
 70
     0
  0
ENDTAB
  0
TABLE
  2
UCS
  5
7
330
0
100
AcDbSymbolTable
 70
     0
  0
ENDTAB
  0
TABLE
  2
APPID
  5
9
330
0
100
AcDbSymbolTable
 70
     1
  0
APPID
  5
12
330
9
100
AcDbSymbolTableRecord
100
AcDbRegAppTableRecord
  2
ACAD
 70
     0
  0
ENDTAB
  0
TABLE
  2
DIMSTYLE
  5
A
330
0
100
AcDbSymbolTable
 70
     1
100
AcDbDimStyleTable
  0
DIMSTYLE
105
27
330
A
100
AcDbSymbolTableRecord
100
AcDbDimStyleTableRecord
  2
ISO-25
 70
     0
 41
2.5
 42
0.625
 43
3.75
 44
1.25
 73
     0
 74
     0
 77
     1
 78
     8
140
2.5
141
2.5
143
0.0393700787
147
0.625
171
     3
172
     1
271
     2
272
     2
274
     3
278
    44
283
     0
284
     8
340
11
  0
ENDTAB
  0
TABLE
  2
BLOCK_RECORD
  5
1
330
0
100
AcDbSymbolTable
 70
     1
  0
BLOCK_RECORD
  5
1F
330
1
100
AcDbSymbolTableRecord
100
AcDbBlockTableRecord
  2
*Model_Space
340
22
  0
BLOCK_RECORD
  5
1B
330
1
100
AcDbSymbolTableRecord
100
AcDbBlockTableRecord
  2
*Paper_Space
340
1E
  0
BLOCK_RECORD
  5
23
330
1
100
AcDbSymbolTableRecord
100
AcDbBlockTableRecord
  2
*Paper_Space0
340
26
  0
ENDTAB
  0
ENDSEC
  0
SECTION
  2
BLOCKS
  0
BLOCK
  5
20
330
1F
100
AcDbEntity
  8
0
100
AcDbBlockBegin
  2
*Model_Space
 70
     0
 10
0.0
 20
0.0
 30
0.0
  3
*Model_Space
  1

  0
ENDBLK
  5
21
330
1F
100
AcDbEntity
  8
0
100
AcDbBlockEnd
  0
BLOCK
  5
1C
330
1B
100
AcDbEntity
 67
     1
  8
0
100
AcDbBlockBegin
  2
*Paper_Space
 70
     0
 10
0.0
 20
0.0
 30
0.0
  3
*Paper_Space
  1

  0
ENDBLK
  5
1D
330
1B
100
AcDbEntity
 67
     1
  8
0
100
AcDbBlockEnd
  0
BLOCK
  5
24
330
23
100
AcDbEntity
  8
0
100
AcDbBlockBegin
  2
*Paper_Space0
 70
     0
 10
0.0
 20
0.0
 30
0.0
  3
*Paper_Space0
  1

  0
ENDBLK
  5
25
330
23
100
AcDbEntity
  8
0
100
AcDbBlockEnd
  0
ENDSEC
  0
SECTION
  2
ENTITIES
  0
ARC
  5
40
330
1F
100
AcDbEntity
  8
0
  6
Continuous
 62
     7
370
    15
100
AcDbCircle
 10
14.931717238
 20
484.0014050134
 30
0.0
 40
6.320530844129889
100
AcDbArc
 50
152.7365750892
 51
171.7369911118
  0
ARC
  5
41
330
1F
100
AcDbEntity
  8
0
  6
Continuous
 62
     7
370
    15
100
AcDbCircle
 10
8.6240697725
 20
487.2519271308
 30
0.0
 40
0.775405358000031
100
AcDbArc
 50
332.7365750892
 51
55.9314523821
  0
ARC
  5
42
330
1F
100
AcDbEntity
  8
0
  6
Continuous
 62
     7
370
    15
100
AcDbCircle
 10
13.7124034161
 20
494.7762584155
 30
0.0
 40
8.30791455000001
100
AcDbArc
 50
232.0685476179
 51
235.9314523821
  0
ARC
  5
43
330
1F
100
AcDbEntity
  8
0
  6
Continuous
 62
     7
370
    15
100
AcDbCircle
 10
8.128720686
 20
487.6118193084
 30
0.0
 40
0.7754053579999812
100
AcDbArc
 50
52.0685476179
 51
135.2634249108
  0
ARC
  5
44
330
1F
100
AcDbEntity
  8
0
  6
Continuous
 62
     7
370
    15
100
AcDbCircle
 10
3.0881201835
 20
492.6062819581
 30
0.0
 40
6.320530844129933
100
AcDbArc
 50
296.2630088882
 51
315.2634249108
  0
ARC
  5
45
330
1F
100
AcDbEntity
  8
0
  6
Continuous
 62
     7
370
    15
100
AcDbCircle
 10
2.8047508385
 20
493.1805694016
 30
0.0
 40
6.960924670959777
100
AcDbArc
 50
275.814210576
 51
296.2630088882
  0
ARC
  5
46
330
1F
100
AcDbEntity
  8
0
  6
Continuous
 62
     7
370
    15
100
AcDbCircle
 10
8.8241629662
 20
484.8955593771
 30
0.0
 40
6.960924670959972
100
AcDbArc
 50
135.7369911118
 51
156.185789424
  0
ARC
  5
47
330
1F
100
AcDbEntity
  8
0
  6
Continuous
 62
     7
370
    15
100
AcDbCircle
 10
8.3655490941
 20
485.3425242189
 30
0.0
 40
6.320530844129874
100
AcDbArc
 50
116.7365750892
 51
135.7369911118
  0
ARC
  5
48
330
1F
100
AcDbEntity
  8
0
  6
Continuous
 62
     7
370
    15
100
AcDbCircle
 10
5.1731640629
 20
491.6797940093
 30
0.0
 40
0.7754053580000166
100
AcDbArc
 50
296.7365750892
 51
19.9314523821
  0
ARC
  5
49
330
1F
100
AcDbEntity
  8
0
  6
Continuous
 62
     7
370
    15
100
AcDbCircle
 10
13.7124034161
 20
494.7762584155
 30
0.0
 40
8.30791455000001
100
AcDbArc
 50
196.0685476179
 51
199.9314523821
  0
ARC
  5
4A
330
1F
100
AcDbEntity
  8
0
  6
Continuous
 62
     7
370
    15
100
AcDbCircle
 10
4.9839575481
 20
492.262111785
 30
0.0
 40
0.7754053579999836
100
AcDbArc
 50
16.0685476179
 51
99.2634249108
  0
ARC
  5
4B
330
1F
100
AcDbEntity
  8
0
  6
Continuous
 62
     7
370
    15
100
AcDbCircle
 10
3.8416975684
 20
499.2655075844
 30
0.0
 40
6.320530844129925
100
AcDbArc
 50
260.2630088882
 51
279.2634249108
  0
ARC
  5
4C
330
1F
100
AcDbEntity
  8
0
  6
Continuous
 62
     7
370
    15
100
AcDbCircle
 10
3.9500046425
 20
499.8966762078
 30
0.0
 40
6.960924670959769
100
AcDbArc
 50
239.814210576
 51
260.2630088882
  0
ARC
  5
4D
330
1F
100
AcDbEntity
  8
0
  6
Continuous
 62
     7
370
    15
100
AcDbCircle
 10
3.9500046425
 20
489.6558406233
 30
0.0
 40
6.960924670960006
100
AcDbArc
 50
99.7369911118
 51
120.185789424
  0
ARC
  5
4E
330
1F
100
AcDbEntity
  8
0
  6
Continuous
 62
     7
370
    15
100
AcDbCircle
 10
3.8416975684
 20
490.2870092467
 30
0.0
 40
6.32053084412987
100
AcDbArc
 50
80.7365750892
 51
99.7369911118
  0
ARC
  5
4F
330
1F
100
AcDbEntity
  8
0
  6
Continuous
 62
     7
370
    15
100
AcDbCircle
 10
4.9839575481
 20
497.2904050461
 30
0.0
 40
0.7754053580000073
100
AcDbArc
 50
260.7365750892
 51
343.9314523821
  0
ARC
  5
50
330
1F
100
AcDbEntity
  8
0
  6
Continuous
 62
     7
370
    15
100
AcDbCircle
 10
13.7124034161
 20
494.7762584155
 30
0.0
 40
8.30791455
100
AcDbArc
 50
160.0685476179
 51
163.9314523821
  0
ARC
  5
51
330
1F
100
AcDbEntity
  8
0
  6
Continuous
 62
     7
370
    15
100
AcDbCircle
 10
5.1731640629
 20
497.8727228217
 30
0.0
 40
0.7754053580000166
100
AcDbArc
 50
340.0685476179
 51
63.2634249108
  0
ARC
  5
52
330
1F
100
AcDbEntity
  8
0
  6
Continuous
 62
     7
370
    15
100
AcDbCircle
 10
8.3655490941
 20
504.2099926122
 30
0.0
 40
6.320530844129891
100
AcDbArc
 50
224.2630088882
 51
243.2634249108
  0
ARC
  5
53
330
1F
100
AcDbEntity
  8
0
  6
Continuous
 62
     7
370
    15
100
AcDbCircle
 10
8.8241629662
 20
504.656957454
 30
0.0
 40
6.96092467095978
100
AcDbArc
 50
203.814210576
 51
224.2630088882
  0
ARC
  5
54
330
1F
100
AcDbEntity
  8
0
  6
Continuous
 62
     7
370
    15
100
AcDbCircle
 10
2.8047508385
 20
496.3719474295
 30
0.0
 40
6.960924670960018
100
AcDbArc
 50
63.7369911118
 51
84.185789424
  0
ARC
  5
55
330
1F
100
AcDbEntity
  8
0
  6
Continuous
 62
     7
370
    15
100
AcDbCircle
 10
3.0881201835
 20
496.946234873
 30
0.0
 40
6.320530844129904
100
AcDbArc
 50
44.7365750892
 51
63.7369911118
  0
ARC
  5
56
330
1F
100
AcDbEntity
  8
0
  6
Continuous
 62
     7
370
    15
100
AcDbCircle
 10
8.128720686
 20
501.9406975227
 30
0.0
 40
0.7754053580000505
100
AcDbArc
 50
224.7365750892
 51
307.9314523821
  0
ARC
  5
57
330
1F
100
AcDbEntity
  8
0
  6
Continuous
 62
     7
370
    15
100
AcDbCircle
 10
13.7124034161
 20
494.7762584155
 30
0.0
 40
8.307914549999987
100
AcDbArc
 50
124.0685476179
 51
127.9314523821
  0
ARC
  5
58
330
1F
100
AcDbEntity
  8
0
  6
Continuous
 62
     7
370
    15
100
AcDbCircle
 10
8.6240697725
 20
502.3005897003
 30
0.0
 40
0.7754053579999851
100
AcDbArc
 50
304.0685476179
 51
27.2634249108
  0
ARC
  5
59
330
1F
100
AcDbEntity
  8
0
  6
Continuous
 62
     7
370
    15
100
AcDbCircle
 10
14.931717238
 20
505.5511118177
 30
0.0
 40
6.320530844129913
100
AcDbArc
 50
188.2630088882
 51
207.2634249108
  0
ARC
  5
5A
330
1F
100
AcDbEntity
  8
0
  6
Continuous
 62
     7
370
    15
100
AcDbCircle
 10
15.5654629967
 20
505.6431475
 30
0.0
 40
6.960924670959786
100
AcDbArc
 50
167.814210576
 51
188.2630088882
  0
ARC
  5
5B
330
1F
100
AcDbEntity
  8
0
  6
Continuous
 62
     7
370
    15
100
AcDbCircle
 10
5.8258495817
 20
502.4785552678
 30
0.0
 40
6.960924670959973
100
AcDbArc
 50
27.7369911118
 51
48.185789424
  0
ARC
  5
5C
330
1F
100
AcDbEntity
  8
0
  6
Continuous
 62
     7
370
    15
100
AcDbCircle
 10
6.3926578874
 20
502.7766032474
 30
0.0
 40
6.320530844129893
100
AcDbArc
 50
8.7365750892
 51
27.7369911118
  0
ARC
  5
5D
330
1F
100
AcDbEntity
  8
0
  6
Continuous
 62
     7
370
    15
100
AcDbCircle
 10
13.4062608443
 20
503.8544177707
 30
0.0
 40
0.7754053580000104
100
AcDbArc
 50
188.7365750892
 51
271.9314523821
  0
ARC
  5
5E
330
1F
100
AcDbEntity
  8
0
  6
Continuous
 62
     7
370
    15
100
AcDbCircle
 10
13.7124034161
 20
494.7762584155
 30
0.0
 40
8.307914549999994
100
AcDbArc
 50
88.0685476179
 51
91.9314523821
  0
ARC
  5
5F
330
1F
100
AcDbEntity
  8
0
  6
Continuous
 62
     7
370
    15
100
AcDbCircle
 10
14.018545988
 20
503.8544177707
 30
0.0
 40
0.7754053580000108
100
AcDbArc
 50
268.0685476179
 51
351.2634249108
  0
ARC
  5
60
330
1F
100
AcDbEntity
  8
0
  6
Continuous
 62
     7
370
    15
100
AcDbCircle
 10
21.0321489449
 20
502.7766032474
 30
0.0
 40
6.320530844129885
100
AcDbArc
 50
152.2630088882
 51
171.2634249108
  0
ARC
  5
61
330
1F
100
AcDbEntity
  8
0
  6
Continuous
 62
     7
370
    15
100
AcDbCircle
 10
21.5989572506
 20
502.4785552678
 30
0.0
 40
6.960924670959835
100
AcDbArc
 50
131.814210576
 51
152.2630088882
  0
ARC
  5
62
330
1F
100
AcDbEntity
  8
0
  6
Continuous
 62
     7
370
    15
100
AcDbCircle
 10
11.8593438356
 20
505.6431475
 30
0.0
 40
6.960924670960006
100
AcDbArc
 50
351.7369911118
 51
12.185789424
  0
ARC
  5
63
330
1F
100
AcDbEntity
  8
0
  6
Continuous
 62
     7
370
    15
100
AcDbCircle
 10
12.4930895943
 20
505.5511118177
 30
0.0
 40
6.320530844129899
100
AcDbArc
 50
332.7365750892
 51
351.7369911118
  0
ARC
  5
64
330
1F
100
AcDbEntity
  8
0
  6
Continuous
 62
     7
370
    15
100
AcDbCircle
 10
18.8007370598
 20
502.3005897003
 30
0.0
 40
0.7754053579999901
100
AcDbArc
 50
152.7365750892
 51
235.9314523821
  0
ARC
  5
65
330
1F
100
AcDbEntity
  8
0
  6
Continuous
 62
     7
370
    15
100
AcDbCircle
 10
13.7124034161
 20
494.7762584155
 30
0.0
 40
8.30791455000001
100
AcDbArc
 50
52.0685476179
 51
55.9314523821
  0
ARC
  5
66
330
1F
100
AcDbEntity
  8
0
  6
Continuous
 62
     7
370
    15
100
AcDbCircle
 10
19.2960861463
 20
501.9406975227
 30
0.0
 40
0.7754053580000618
100
AcDbArc
 50
232.0685476179
 51
315.2634249108
  0
ARC
  5
67
330
1F
100
AcDbEntity
  8
0
  6
Continuous
 62
     7
370
    15
100
AcDbCircle
 10
24.3366866488
 20
496.946234873
 30
0.0
 40
6.320530844129846
100
AcDbArc
 50
116.2630088882
 51
135.2634249108
  0
ARC
  5
68
330
1F
100
AcDbEntity
  8
0
  6
Continuous
 62
     7
370
    15
100
AcDbCircle
 10
24.6200559938
 20
496.3719474295
 30
0.0
 40
6.960924670959782
100
AcDbArc
 50
95.814210576
 51
116.2630088882
  0
ARC
  5
69
330
1F
100
AcDbEntity
  8
0
  6
Continuous
 62
     7
370
    15
100
AcDbCircle
 10
18.6006438661
 20
504.656957454
 30
0.0
 40
6.960924670960042
100
AcDbArc
 50
315.7369911118
 51
336.185789424
  0
ARC
  5
6A
330
1F
100
AcDbEntity
  8
0
  6
Continuous
 62
     7
370
    15
100
AcDbCircle
 10
19.0592577382
 20
504.2099926122
 30
0.0
 40
6.320530844129951
100
AcDbArc
 50
296.7365750892
 51
315.7369911118
  0
ARC
  5
6B
330
1F
100
AcDbEntity
  8
0
  6
Continuous
 62
     7
370
    15
100
AcDbCircle
 10
22.2516427694
 20
497.8727228217
 30
0.0
 40
0.775405358000015
100
AcDbArc
 50
116.7365750892
 51
199.9314523821
  0
ARC
  5
6C
330
1F
100
AcDbEntity
  8
0
  6
Continuous
 62
     7
370
    15
100
AcDbCircle
 10
13.7124034161
 20
494.7762584155
 30
0.0
 40
8.307914550000001
100
AcDbArc
 50
16.0685476179
 51
19.9314523821
  0
ARC
  5
6D
330
1F
100
AcDbEntity
  8
0
  6
Continuous
 62
     7
370
    15
100
AcDbCircle
 10
22.4408492842
 20
497.2904050461
 30
0.0
 40
0.7754053580000063
100
AcDbArc
 50
196.0685476179
 51
279.2634249108
  0
ARC
  5
6E
330
1F
100
AcDbEntity
  8
0
  6
Continuous
 62
     7
370
    15
100
AcDbCircle
 10
23.5831092639
 20
490.2870092467
 30
0.0
 40
6.320530844129875
100
AcDbArc
 50
80.2630088882
 51
99.2634249108
  0
ARC
  5
6F
330
1F
100
AcDbEntity
  8
0
  6
Continuous
 62
     7
370
    15
100
AcDbCircle
 10
23.4748021898
 20
489.6558406233
 30
0.0
 40
6.960924670959776
100
AcDbArc
 50
59.814210576
 51
80.2630088882
  0
ARC
  5
70
330
1F
100
AcDbEntity
  8
0
  6
Continuous
 62
     7
370
    15
100
AcDbCircle
 10
23.4748021898
 20
499.8966762078
 30
0.0
 40
6.960924670959999
100
AcDbArc
 50
279.7369911118
 51
300.185789424
  0
ARC
  5
71
330
1F
100
AcDbEntity
  8
0
  6
Continuous
 62
     7
370
    15
100
AcDbCircle
 10
23.5831092639
 20
499.2655075844
 30
0.0
 40
6.320530844129932
100
AcDbArc
 50
260.7365750892
 51
279.7369911118
  0
ARC
  5
72
330
1F
100
AcDbEntity
  8
0
  6
Continuous
 62
     7
370
    15
100
AcDbCircle
 10
22.4408492842
 20
492.262111785
 30
0.0
 40
0.775405358000008
100
AcDbArc
 50
80.7365750892
 51
163.9314523821
  0
ARC
  5
73
330
1F
100
AcDbEntity
  8
0
  6
Continuous
 62
     7
370
    15
100
AcDbCircle
 10
13.7124034161
 20
494.7762584155
 30
0.0
 40
8.30791455000001
100
AcDbArc
 50
340.0685476179
 51
343.9314523821
  0
ARC
  5
74
330
1F
100
AcDbEntity
  8
0
  6
Continuous
 62
     7
370
    15
100
AcDbCircle
 10
22.2516427694
 20
491.6797940093
 30
0.0
 40
0.7754053580000166
100
AcDbArc
 50
160.0685476179
 51
243.2634249108
  0
ARC
  5
75
330
1F
100
AcDbEntity
  8
0
  6
Continuous
 62
     7
370
    15
100
AcDbCircle
 10
19.0592577382
 20
485.3425242189
 30
0.0
 40
6.320530844129891
100
AcDbArc
 50
44.2630088882
 51
63.2634249108
  0
ARC
  5
76
330
1F
100
AcDbEntity
  8
0
  6
Continuous
 62
     7
370
    15
100
AcDbCircle
 10
18.6006438661
 20
484.8955593771
 30
0.0
 40
6.960924670959775
100
AcDbArc
 50
23.814210576
 51
44.2630088882
  0
ARC
  5
77
330
1F
100
AcDbEntity
  8
0
  6
Continuous
 62
     7
370
    15
100
AcDbCircle
 10
24.6200559938
 20
493.1805694016
 30
0.0
 40
6.960924670959998
100
AcDbArc
 50
243.7369911118
 51
264.185789424
  0
ARC
  5
78
330
1F
100
AcDbEntity
  8
0
  6
Continuous
 62
     7
370
    15
100
AcDbCircle
 10
24.3366866488
 20
492.6062819581
 30
0.0
 40
6.320530844129937
100
AcDbArc
 50
224.7365750892
 51
243.7369911118
  0
ARC
  5
79
330
1F
100
AcDbEntity
  8
0
  6
Continuous
 62
     7
370
    15
100
AcDbCircle
 10
19.2960861463
 20
487.6118193084
 30
0.0
 40
0.7754053579999894
100
AcDbArc
 50
44.7365750892
 51
127.9314523821
  0
ARC
  5
7A
330
1F
100
AcDbEntity
  8
0
  6
Continuous
 62
     7
370
    15
100
AcDbCircle
 10
13.7124034161
 20
494.7762584155
 30
0.0
 40
8.307914550000017
100
AcDbArc
 50
304.0685476179
 51
307.9314523821
  0
ARC
  5
7B
330
1F
100
AcDbEntity
  8
0
  6
Continuous
 62
     7
370
    15
100
AcDbCircle
 10
18.8007370598
 20
487.2519271308
 30
0.0
 40
0.7754053580000128
100
AcDbArc
 50
124.0685476179
 51
207.2634249108
  0
ARC
  5
7C
330
1F
100
AcDbEntity
  8
0
  6
Continuous
 62
     7
370
    15
100
AcDbCircle
 10
12.4930895943
 20
484.0014050134
 30
0.0
 40
6.320530844129902
100
AcDbArc
 50
8.2630088882
 51
27.2634249108
  0
ARC
  5
7D
330
1F
100
AcDbEntity
  8
0
  6
Continuous
 62
     7
370
    15
100
AcDbCircle
 10
11.8593438356
 20
483.909369331
 30
0.0
 40
6.960924670959773
100
AcDbArc
 50
347.814210576
 51
8.2630088882
  0
ARC
  5
7E
330
1F
100
AcDbEntity
  8
0
  6
Continuous
 62
     7
370
    15
100
AcDbCircle
 10
21.5989572506
 20
487.0739615633
 30
0.0
 40
6.960924670959994
100
AcDbArc
 50
207.7369911118
 51
228.185789424
  0
ARC
  5
7F
330
1F
100
AcDbEntity
  8
0
  6
Continuous
 62
     7
370
    15
100
AcDbCircle
 10
21.0321489449
 20
486.7759135837
 30
0.0
 40
6.320530844129888
100
AcDbArc
 50
188.7365750892
 51
207.7369911118
  0
ARC
  5
80
330
1F
100
AcDbEntity
  8
0
  6
Continuous
 62
     7
370
    15
100
AcDbCircle
 10
14.018545988
 20
485.6980990604
 30
0.0
 40
0.7754053580000103
100
AcDbArc
 50
8.7365750892
 51
91.9314523821
  0
ARC
  5
81
330
1F
100
AcDbEntity
  8
0
  6
Continuous
 62
     7
370
    15
100
AcDbCircle
 10
13.7124034161
 20
494.7762584155
 30
0.0
 40
8.307914549999996
100
AcDbArc
 50
268.0685476179
 51
271.9314523821
  0
ARC
  5
82
330
1F
100
AcDbEntity
  8
0
  6
Continuous
 62
     7
370
    15
100
AcDbCircle
 10
13.4062608443
 20
485.6980990604
 30
0.0
 40
0.775405358000011
100
AcDbArc
 50
88.0685476179
 51
171.2634249108
  0
ARC
  5
83
330
1F
100
AcDbEntity
  8
0
  6
Continuous
 62
     7
370
    15
100
AcDbCircle
 10
6.3926578874
 20
486.7759135837
 30
0.0
 40
6.320530844129888
100
AcDbArc
 50
332.2630088882
 51
351.2634249108
  0
ARC
  5
84
330
1F
100
AcDbEntity
  8
0
  6
Continuous
 62
     7
370
    15
100
AcDbCircle
 10
5.8258495817
 20
487.0739615633
 30
0.0
 40
6.96092467095977
100
AcDbArc
 50
311.814210576
 51
332.2630088882
  0
ARC
  5
85
330
1F
100
AcDbEntity
  8
0
  6
Continuous
 62
     7
370
    15
100
AcDbCircle
 10
15.5654629967
 20
483.909369331
 30
0.0
 40
6.960924670959999
100
AcDbArc
 50
171.7369911118
 51
192.185789424
  0
LINE
  5
86
330
1F
100
AcDbEntity
  8
0
  6
Continuous
 62
     7
370
    15
100
AcDbLine
 10
10.568755853
 20
494.3311685387
 30
0.0
 11
8.5464073021
 21
493.1856132171
 31
0.0
  0
LINE
  5
87
330
1F
100
AcDbEntity
  8
0
  6
Continuous
 62
     7
370
    15
100
AcDbLine
 10
9.6919626237
 20
491.1632646663
 30
0.0
 11
8.5464073021
 21
493.1856132171
 31
0.0
  0
LINE
  5
88
330
1F
100
AcDbEntity
  8
0
  6
Continuous
 62
     7
370
    15
100
AcDbLine
 10
11.7143111746
 20
492.3088199879
 30
0.0
 11
9.6919626237
 21
491.1632646663
 31
0.0
  0
ARC
  5
89
330
1F
100
AcDbEntity
  8
0
  6
Continuous
 62
     7
370
    15
100
AcDbCircle
 10
13.7124034161
 20
494.7762584155
 30
0.0
 40
3.175000000000026
100
AcDbArc
 50
231.0
 51
188.0585971351
  0
ARC
  5
8A
330
1F
100
AcDbEntity
  8
0
  6
Continuous
 62
     7
370
    15
100
AcDbCircle
 10
13.7124034161
 20
494.7762584155
 30
0.0
 40
13.29266328000003
100
AcDbArc
 50
212.1324109671
 51
219.8675890329
  0
ARC
  5
8B
330
1F
100
AcDbEntity
  8
0
  6
Continuous
 62
     7
370
    15
100
AcDbCircle
 10
13.7124034161
 20
494.7762584155
 30
0.0
 40
13.29266328
100
AcDbArc
 50
176.1324109671
 51
183.8675890329
  0
ARC
  5
8C
330
1F
100
AcDbEntity
  8
0
  6
Continuous
 62
     7
370
    15
100
AcDbCircle
 10
13.7124034161
 20
494.7762584155
 30
0.0
 40
13.29266328000002
100
AcDbArc
 50
140.1324109671
 51
147.8675890329
  0
ARC
  5
8D
330
1F
100
AcDbEntity
  8
0
  6
Continuous
 62
     7
370
    15
100
AcDbCircle
 10
13.7124034161
 20
494.7762584155
 30
0.0
 40
13.29266328000002
100
AcDbArc
 50
104.1324109671
 51
111.8675890329
  0
ARC
  5
8E
330
1F
100
AcDbEntity
  8
0
  6
Continuous
 62
     7
370
    15
100
AcDbCircle
 10
13.7124034161
 20
494.7762584155
 30
0.0
 40
13.29266328000004
100
AcDbArc
 50
68.1324109671
 51
75.8675890329
  0
ARC
  5
8F
330
1F
100
AcDbEntity
  8
0
  6
Continuous
 62
     7
370
    15
100
AcDbCircle
 10
13.7124034161
 20
494.7762584155
 30
0.0
 40
13.29266327999999
100
AcDbArc
 50
32.1324109671
 51
39.8675890329
  0
ARC
  5
90
330
1F
100
AcDbEntity
  8
0
  6
Continuous
 62
     7
370
    15
100
AcDbCircle
 10
13.7124034161
 20
494.7762584155
 30
0.0
 40
13.29266328
100
AcDbArc
 50
356.1324109671
 51
3.8675890329
  0
ARC
  5
91
330
1F
100
AcDbEntity
  8
0
  6
Continuous
 62
     7
370
    15
100
AcDbCircle
 10
13.7124034161
 20
494.7762584155
 30
0.0
 40
13.29266328000002
100
AcDbArc
 50
320.1324109671
 51
327.8675890329
  0
ARC
  5
92
330
1F
100
AcDbEntity
  8
0
  6
Continuous
 62
     7
370
    15
100
AcDbCircle
 10
13.7124034161
 20
494.7762584155
 30
0.0
 40
13.29266328000004
100
AcDbArc
 50
284.1324109671
 51
291.8675890329
  0
ARC
  5
93
330
1F
100
AcDbEntity
  8
0
  6
Continuous
 62
     7
370
    15
100
AcDbCircle
 10
13.7124034161
 20
494.7762584155
 30
0.0
 40
13.29266328000005
100
AcDbArc
 50
248.1324109671
 51
255.8675890329
  0
ARC
  5
94
330
1F
100
AcDbEntity
  8
0
  6
Continuous
 62
     7
370
    15
100
AcDbCircle
 10
32.6260163799
 20
468.4013254802
 30
0.0
 40
6.282655246565726
100
AcDbArc
 50
121.3811364955
 51
140.155719535
  0
ARC
  5
95
330
1F
100
AcDbEntity
  8
0
  6
Continuous
 62
     7
370
    15
100
AcDbCircle
 10
28.9506823329
 20
474.4269492717
 30
0.0
 40
0.7754055658942974
100
AcDbArc
 50
301.3811364955
 51
28.3508833196
  0
ARC
  5
96
330
1F
100
AcDbEntity
  8
0
  6
Continuous
 62
     7
370
    15
100
AcDbCircle
 10
46.6930902156
 20
484.0005862849
 30
0.0
 40
19.38513914735742
100
AcDbArc
 50
205.6491166804
 51
208.3508833196
  0
ARC
  5
97
330
1F
100
AcDbEntity
  8
0
  6
Continuous
 62
     7
370
    15
100
AcDbCircle
 10
28.5191294803
 20
475.273919434
 30
0.0
 40
0.7754055658942868
100
AcDbArc
 50
25.6491166804
 51
112.6188635045
  0
ARC
  5
98
330
1F
100
AcDbEntity
  8
0
  6
Continuous
 62
     7
370
    15
100
AcDbCircle
 10
25.8046045814
 20
481.7890999384
 30
0.0
 40
6.28265524656574
100
AcDbArc
 50
273.844280465
 51
292.6188635045
  0
ARC
  5
99
330
1F
100
AcDbEntity
  8
0
  6
Continuous
 62
     7
370
    15
100
AcDbCircle
 10
25.7591298682
 20
482.4658450856
 30
0.0
 40
6.960926537256538
100
AcDbArc
 50
253.1661686457
 51
273.844280465
  0
ARC
  5
9A
330
1F
100
AcDbEntity
  8
0
  6
Continuous
 62
     7
370
    15
100
AcDbCircle
 10
28.8550622919
 20
472.9375448329
 30
0.0
 40
6.960926537256796
100
AcDbArc
 50
122.155719535
 51
142.8338313543
  0
ARC
  5
9B
330
1F
100
AcDbEntity
  8
0
  6
Continuous
 62
     7
370
    15
100
AcDbCircle
 10
28.4940712906
 20
473.5117725236
 30
0.0
 40
6.282655246565714
100
AcDbArc
 50
103.3811364955
 51
122.155719535
  0
ARC
  5
9C
330
1F
100
AcDbEntity
  8
0
  6
Continuous
 62
     7
370
    15
100
AcDbCircle
 10
26.860641049
 20
480.3782219757
 30
0.0
 40
0.7754055658943013
100
AcDbArc
 50
283.3811364955
 51
10.3508833196
  0
ARC
  5
9D
330
1F
100
AcDbEntity
  8
0
  6
Continuous
 62
     7
370
    15
100
AcDbCircle
 10
46.6930902156
 20
484.0005862849
 30
0.0
 40
19.38513914735741
100
AcDbArc
 50
187.6491166804
 51
190.3508833196
  0
ARC
  5
9E
330
1F
100
AcDbEntity
  8
0
  6
Continuous
 62
     7
370
    15
100
AcDbCircle
 10
26.7119380702
 20
481.3170956331
 30
0.0
 40
0.7754055658942992
100
AcDbArc
 50
7.6491166804
 51
94.6188635045
  0
ARC
  5
9F
330
1F
100
AcDbEntity
  8
0
  6
Continuous
 62
     7
370
    15
100
AcDbCircle
 10
26.1435729737
 20
488.3522348321
 30
0.0
 40
6.282655246565776
100
AcDbArc
 50
255.844280465
 51
274.6188635045
  0
ARC
  5
A0
330
1F
100
AcDbEntity
  8
0
  6
Continuous
 62
     7
370
    15
100
AcDbCircle
 10
26.3094497028
 20
489.0099101734
 30
0.0
 40
6.960926537256532
100
AcDbArc
 50
235.1661686457
 51
255.844280465
  0
ARC
  5
A1
330
1F
100
AcDbEntity
  8
0
  6
Continuous
 62
     7
370
    15
100
AcDbCircle
 10
26.3094497028
 20
478.9912623965
 30
0.0
 40
6.960926537256827
100
AcDbArc
 50
104.155719535
 51
124.8338313543
  0
ARC
  5
A2
330
1F
100
AcDbEntity
  8
0
  6
Continuous
 62
     7
370
    15
100
AcDbCircle
 10
26.1435729737
 20
479.6489377378
 30
0.0
 40
6.282655246565776
100
AcDbArc
 50
85.3811364955
 51
104.155719535
  0
ARC
  5
A3
330
1F
100
AcDbEntity
  8
0
  6
Continuous
 62
     7
370
    15
100
AcDbCircle
 10
26.7119380702
 20
486.6840769368
 30
0.0
 40
0.7754055658942992
100
AcDbArc
 50
265.3811364955
 51
352.3508833196
  0
ARC
  5
A4
330
1F
100
AcDbEntity
  8
0
  6
Continuous
 62
     7
370
    15
100
AcDbCircle
 10
46.6930902156
 20
484.0005862849
 30
0.0
 40
19.38513914735741
100
AcDbArc
 50
169.6491166804
 51
172.3508833196
  0
ARC
  5
A5
330
1F
100
AcDbEntity
  8
0
  6
Continuous
 62
     7
370
    15
100
AcDbCircle
 10
26.860641049
 20
487.6229505942
 30
0.0
 40
0.7754055658943048
100
AcDbArc
 50
349.6491166804
 51
76.6188635045
  0
ARC
  5
A6
330
1F
100
AcDbEntity
  8
0
  6
Continuous
 62
     7
370
    15
100
AcDbCircle
 10
28.4940712906
 20
494.4894000463
 30
0.0
 40
6.282655246565739
100
AcDbArc
 50
237.844280465
 51
256.6188635045
  0
ARC
  5
A7
330
1F
100
AcDbEntity
  8
0
  6
Continuous
 62
     7
370
    15
100
AcDbCircle
 10
28.8550622919
 20
495.063627737
 30
0.0
 40
6.960926537256521
100
AcDbArc
 50
217.1661686457
 51
237.844280465
  0
ARC
  5
A8
330
1F
100
AcDbEntity
  8
0
  6
Continuous
 62
     7
370
    15
100
AcDbCircle
 10
25.7591298682
 20
485.5353274843
 30
0.0
 40
6.9609265372568
100
AcDbArc
 50
86.155719535
 51
106.8338313543
  0
ARC
  5
A9
330
1F
100
AcDbEntity
  8
0
  6
Continuous
 62
     7
370
    15
100
AcDbCircle
 10
25.8046045814
 20
486.2120726315
 30
0.0
 40
6.282655246565719
100
AcDbArc
 50
67.3811364955
 51
86.155719535
  0
ARC
  5
AA
330
1F
100
AcDbEntity
  8
0
  6
Continuous
 62
     7
370
    15
100
AcDbCircle
 10
28.5191294803
 20
492.7272531359
 30
0.0
 40
0.775405565894274
100
AcDbArc
 50
247.3811364955
 51
334.3508833196
  0
ARC
  5
AB
330
1F
100
AcDbEntity
  8
0
  6
Continuous
 62
     7
370
    15
100
AcDbCircle
 10
46.6930902156
 20
484.0005862849
 30
0.0
 40
19.38513914735741
100
AcDbArc
 50
151.6491166804
 51
154.3508833196
  0
ARC
  5
AC
330
1F
100
AcDbEntity
  8
0
  6
Continuous
 62
     7
370
    15
100
AcDbCircle
 10
28.9506823329
 20
493.5742232982
 30
0.0
 40
0.7754055658943417
100
AcDbArc
 50
331.6491166804
 51
58.6188635045
  0
ARC
  5
AD
330
1F
100
AcDbEntity
  8
0
  6
Continuous
 62
     7
370
    15
100
AcDbCircle
 10
32.6260163799
 20
499.5998470896
 30
0.0
 40
6.282655246565729
100
AcDbArc
 50
219.844280465
 51
238.6188635045
  0
ARC
  5
AE
330
1F
100
AcDbEntity
  8
0
  6
Continuous
 62
     7
370
    15
100
AcDbCircle
 10
33.1467853391
 20
500.0344177225
 30
0.0
 40
6.960926537256545
100
AcDbArc
 50
199.1661686457
 51
219.844280465
  0
ARC
  5
AF
330
1F
100
AcDbEntity
  8
0
  6
Continuous
 62
     7
370
    15
100
AcDbCircle
 10
27.2579719279
 20
491.9291614103
 30
0.0
 40
6.960926537256794
100
AcDbArc
 50
68.155719535
 51
88.8338313543
  0
ARC
  5
B0
330
1F
100
AcDbEntity
  8
0
  6
Continuous
 62
     7
370
    15
100
AcDbCircle
 10
27.5103467015
 20
492.5587318332
 30
0.0
 40
6.282655246565692
100
AcDbArc
 50
49.3811364955
 51
68.155719535
  0
ARC
  5
B1
330
1F
100
AcDbEntity
  8
0
  6
Continuous
 62
     7
370
    15
100
AcDbCircle
 10
32.1053147926
 20
497.9162023814
 30
0.0
 40
0.775405565894316
100
AcDbArc
 50
229.3811364955
 51
316.3508833196
  0
ARC
  5
B2
330
1F
100
AcDbEntity
  8
0
  6
Continuous
 62
     7
370
    15
100
AcDbCircle
 10
46.6930902156
 20
484.0005862849
 30
0.0
 40
19.38513914735742
100
AcDbArc
 50
133.6491166804
 51
136.3508833196
  0
ARC
  5
B3
330
1F
100
AcDbEntity
  8
0
  6
Continuous
 62
     7
370
    15
100
AcDbCircle
 10
32.7774741191
 20
498.5883617079
 30
0.0
 40
0.775405565894316
100
AcDbArc
 50
313.6491166804
 51
40.6188635045
  0
ARC
  5
B4
330
1F
100
AcDbEntity
  8
0
  6
Continuous
 62
     7
370
    15
100
AcDbCircle
 10
38.1349446673
 20
503.183329799
 30
0.0
 40
6.282655246565758
100
AcDbArc
 50
201.844280465
 51
220.6188635045
  0
ARC
  5
B5
330
1F
100
AcDbEntity
  8
0
  6
Continuous
 62
     7
370
    15
100
AcDbCircle
 10
38.7645150902
 20
503.4357045726
 30
0.0
 40
6.960926537256539
100
AcDbArc
 50
181.1661686457
 51
201.844280465
  0
ARC
  5
B6
330
1F
100
AcDbEntity
  8
0
  6
Continuous
 62
     7
370
    15
100
AcDbCircle
 10
30.659258778
 20
497.5468911614
 30
0.0
 40
6.960926537256814
100
AcDbArc
 50
50.155719535
 51
70.8338313543
  0
ARC
  5
B7
330
1F
100
AcDbEntity
  8
0
  6
Continuous
 62
     7
370
    15
100
AcDbCircle
 10
31.0938294109
 20
498.0676601206
 30
0.0
 40
6.282655246565726
100
AcDbArc
 50
31.3811364955
 51
50.155719535
  0
ARC
  5
B8
330
1F
100
AcDbEntity
  8
0
  6
Continuous
 62
     7
370
    15
100
AcDbCircle
 10
37.1194532023
 20
501.7429941676
 30
0.0
 40
0.7754055658942974
100
AcDbArc
 50
211.3811364955
 51
298.3508833196
  0
ARC
  5
B9
330
1F
100
AcDbEntity
  8
0
  6
Continuous
 62
     7
370
    15
100
AcDbCircle
 10
46.6930902156
 20
484.0005862849
 30
0.0
 40
19.38513914735745
100
AcDbArc
 50
115.6491166804
 51
118.3508833196
  0
ARC
  5
BA
330
1F
100
AcDbEntity
  8
0
  6
Continuous
 62
     7
370
    15
100
AcDbCircle
 10
37.9664233646
 20
502.1745470202
 30
0.0
 40
0.7754055658942913
100
AcDbArc
 50
295.6491166804
 51
22.6188635045
  0
ARC
  5
BB
330
1F
100
AcDbEntity
  8
0
  6
Continuous
 62
     7
370
    15
100
AcDbCircle
 10
44.481603869
 20
504.8890719191
 30
0.0
 40
6.282655246565708
100
AcDbArc
 50
183.844280465
 51
202.6188635045
  0
ARC
  5
BC
330
1F
100
AcDbEntity
  8
0
  6
Continuous
 62
     7
370
    15
100
AcDbCircle
 10
45.1583490162
 20
504.9345466323
 30
0.0
 40
6.960926537256529
100
AcDbArc
 50
163.1661686457
 51
183.844280465
  0
ARC
  5
BD
330
1F
100
AcDbEntity
  8
0
  6
Continuous
 62
     7
370
    15
100
AcDbCircle
 10
35.6300487635
 20
501.8386142086
 30
0.0
 40
6.960926537256769
100
AcDbArc
 50
32.155719535
 51
52.8338313543
  0
ARC
  5
BE
330
1F
100
AcDbEntity
  8
0
  6
Continuous
 62
     7
370
    15
100
AcDbCircle
 10
36.2042764542
 20
502.1996052099
 30
0.0
 40
6.282655246565723
100
AcDbArc
 50
13.3811364955
 51
32.155719535
  0
ARC
  5
BF
330
1F
100
AcDbEntity
  8
0
  6
Continuous
 62
     7
370
    15
100
AcDbCircle
 10
43.0707259063
 20
503.8330354515
 30
0.0
 40
0.7754055658943101
100
AcDbArc
 50
193.3811364955
 51
280.3508833196
  0
ARC
  5
C0
330
1F
100
AcDbEntity
  8
0
  6
Continuous
 62
     7
370
    15
100
AcDbCircle
 10
46.6930902156
 20
484.0005862849
 30
0.0
 40
19.38513914735744
100
AcDbArc
 50
97.6491166804
 51
100.3508833196
  0
ARC
  5
C1
330
1F
100
AcDbEntity
  8
0
  6
Continuous
 62
     7
370
    15
100
AcDbCircle
 10
44.0095995637
 20
503.9817384303
 30
0.0
 40
0.775405565894293
100
AcDbArc
 50
277.6491166804
 51
4.6188635045
  0
ARC
  5
C2
330
1F
100
AcDbEntity
  8
0
  6
Continuous
 62
     7
370
    15
100
AcDbCircle
 10
51.0447387627
 20
504.5501035268
 30
0.0
 40
6.282655246565712
100
AcDbArc
 50
165.844280465
 51
184.6188635045
  0
ARC
  5
C3
330
1F
100
AcDbEntity
  8
0
  6
Continuous
 62
     7
370
    15
100
AcDbCircle
 10
51.702414104
 20
504.3842267977
 30
0.0
 40
6.96092653725657
100
AcDbArc
 50
145.1661686457
 51
165.844280465
  0
ARC
  5
C4
330
1F
100
AcDbEntity
  8
0
  6
Continuous
 62
     7
370
    15
100
AcDbCircle
 10
41.6837663271
 20
504.3842267977
 30
0.0
 40
6.960926537256817
100
AcDbArc
 50
14.155719535
 51
34.8338313543
  0
ARC
  5
C5
330
1F
100
AcDbEntity
  8
0
  6
Continuous
 62
     7
370
    15
100
AcDbCircle
 10
42.3414416684
 20
504.5501035268
 30
0.0
 40
6.282655246565719
100
AcDbArc
 50
355.3811364955
 51
14.155719535
  0
ARC
  5
C6
330
1F
100
AcDbEntity
  8
0
  6
Continuous
 62
     7
370
    15
100
AcDbCircle
 10
49.3765808674
 20
503.9817384303
 30
0.0
 40
0.775405565894293
100
AcDbArc
 50
175.3811364955
 51
262.3508833196
  0
ARC
  5
C7
330
1F
100
AcDbEntity
  8
0
  6
Continuous
 62
     7
370
    15
100
AcDbCircle
 10
46.6930902156
 20
484.0005862849
 30
0.0
 40
19.38513914735746
100
AcDbArc
 50
79.6491166804
 51
82.3508833196
  0
ARC
  5
C8
330
1F
100
AcDbEntity
  8
0
  6
Continuous
 62
     7
370
    15
100
AcDbCircle
 10
50.3154545248
 20
503.8330354515
 30
0.0
 40
0.775405565894314
100
AcDbArc
 50
259.6491166804
 51
346.6188635045
  0
ARC
  5
C9
330
1F
100
AcDbEntity
  8
0
  6
Continuous
 62
     7
370
    15
100
AcDbCircle
 10
57.1819039769
 20
502.1996052099
 30
0.0
 40
6.282655246565713
100
AcDbArc
 50
147.844280465
 51
166.6188635045
  0
ARC
  5
CA
330
1F
100
AcDbEntity
  8
0
  6
Continuous
 62
     7
370
    15
100
AcDbCircle
 10
57.7561316676
 20
501.8386142086
 30
0.0
 40
6.960926537256528
100
AcDbArc
 50
127.1661686457
 51
147.844280465
  0
ARC
  5
CB
330
1F
100
AcDbEntity
  8
0
  6
Continuous
 62
     7
370
    15
100
AcDbCircle
 10
48.2278314149
 20
504.9345466323
 30
0.0
 40
6.960926537256805
100
AcDbArc
 50
356.155719535
 51
16.8338313543
  0
ARC
  5
CC
330
1F
100
AcDbEntity
  8
0
  6
Continuous
 62
     7
370
    15
100
AcDbCircle
 10
48.9045765621
 20
504.8890719191
 30
0.0
 40
6.282655246565707
100
AcDbArc
 50
337.3811364955
 51
356.155719535
  0
ARC
  5
CD
330
1F
100
AcDbEntity
  8
0
  6
Continuous
 62
     7
370
    15
100
AcDbCircle
 10
55.4197570665
 20
502.1745470202
 30
0.0
 40
0.7754055658942913
100
AcDbArc
 50
157.3811364955
 51
244.3508833196
  0
ARC
  5
CE
330
1F
100
AcDbEntity
  8
0
  6
Continuous
 62
     7
370
    15
100
AcDbCircle
 10
46.6930902156
 20
484.0005862849
 30
0.0
 40
19.38513914735742
100
AcDbArc
 50
61.6491166804
 51
64.3508833196
  0
ARC
  5
CF
330
1F
100
AcDbEntity
  8
0
  6
Continuous
 62
     7
370
    15
100
AcDbCircle
 10
56.2667272288
 20
501.7429941676
 30
0.0
 40
0.7754055658942789
100
AcDbArc
 50
241.6491166804
 51
328.6188635045
  0
ARC
  5
D0
330
1F
100
AcDbEntity
  8
0
  6
Continuous
 62
     7
370
    15
100
AcDbCircle
 10
62.2923510203
 20
498.0676601206
 30
0.0
 40
6.282655246565684
100
AcDbArc
 50
129.844280465
 51
148.6188635045
  0
ARC
  5
D1
330
1F
100
AcDbEntity
  8
0
  6
Continuous
 62
     7
370
    15
100
AcDbCircle
 10
62.7269216531
 20
497.5468911614
 30
0.0
 40
6.960926537256632
100
AcDbArc
 50
109.1661686457
 51
129.844280465
  0
ARC
  5
D2
330
1F
100
AcDbEntity
  8
0
  6
Continuous
 62
     7
370
    15
100
AcDbCircle
 10
54.6216653409
 20
503.4357045726
 30
0.0
 40
6.960926537256826
100
AcDbArc
 50
338.155719535
 51
358.8338313543
  0
ARC
  5
D3
330
1F
100
AcDbEntity
  8
0
  6
Continuous
 62
     7
370
    15
100
AcDbCircle
 10
55.2512357639
 20
503.183329799
 30
0.0
 40
6.282655246565716
100
AcDbArc
 50
319.3811364955
 51
338.155719535
  0
ARC
  5
D4
330
1F
100
AcDbEntity
  8
0
  6
Continuous
 62
     7
370
    15
100
AcDbCircle
 10
60.608706312
 20
498.5883617079
 30
0.0
 40
0.7754055658943105
100
AcDbArc
 50
139.3811364955
 51
226.3508833196
  0
ARC
  5
D5
330
1F
100
AcDbEntity
  8
0
  6
Continuous
 62
     7
370
    15
100
AcDbCircle
 10
46.6930902156
 20
484.0005862849
 30
0.0
 40
19.38513914735741
100
AcDbArc
 50
43.6491166804
 51
46.3508833196
  0
ARC
  5
D6
330
1F
100
AcDbEntity
  8
0
  6
Continuous
 62
     7
370
    15
100
AcDbCircle
 10
61.2808656385
 20
497.9162023814
 30
0.0
 40
0.7754055658943567
100
AcDbArc
 50
223.6491166804
 51
310.6188635045
  0
ARC
  5
D7
330
1F
100
AcDbEntity
  8
0
  6
Continuous
 62
     7
370
    15
100
AcDbCircle
 10
65.8758337296
 20
492.5587318332
 30
0.0
 40
6.282655246565712
100
AcDbArc
 50
111.844280465
 51
130.6188635045
  0
ARC
  5
D8
330
1F
100
AcDbEntity
  8
0
  6
Continuous
 62
     7
370
    15
100
AcDbCircle
 10
66.1282085032
 20
491.9291614103
 30
0.0
 40
6.960926537256507
100
AcDbArc
 50
91.1661686457
 51
111.844280465
  0
ARC
  5
D9
330
1F
100
AcDbEntity
  8
0
  6
Continuous
 62
     7
370
    15
100
AcDbCircle
 10
60.2393950921
 20
500.0344177225
 30
0.0
 40
6.960926537256831
100
AcDbArc
 50
320.155719535
 51
340.8338313543
  0
ARC
  5
DA
330
1F
100
AcDbEntity
  8
0
  6
Continuous
 62
     7
370
    15
100
AcDbCircle
 10
60.7601640512
 20
499.5998470896
 30
0.0
 40
6.282655246565705
100
AcDbArc
 50
301.3811364955
 51
320.155719535
  0
ARC
  5
DB
330
1F
100
AcDbEntity
  8
0
  6
Continuous
 62
     7
370
    15
100
AcDbCircle
 10
64.4354980982
 20
493.5742232982
 30
0.0
 40
0.7754055658942912
100
AcDbArc
 50
121.3811364955
 51
208.3508833196
  0
ARC
  5
DC
330
1F
100
AcDbEntity
  8
0
  6
Continuous
 62
     7
370
    15
100
AcDbCircle
 10
46.6930902156
 20
484.0005862849
 30
0.0
 40
19.3851391473574
100
AcDbArc
 50
25.6491166804
 51
28.3508833196
  0
ARC
  5
DD
330
1F
100
AcDbEntity
  8
0
  6
Continuous
 62
     7
370
    15
100
AcDbCircle
 10
64.8670509508
 20
492.7272531359
 30
0.0
 40
0.7754055658942836
100
AcDbArc
 50
205.6491166804
 51
292.6188635045
  0
ARC
  5
DE
330
1F
100
AcDbEntity
  8
0
  6
Continuous
 62
     7
370
    15
100
AcDbCircle
 10
67.5815758498
 20
486.2120726315
 30
0.0
 40
6.282655246565718
100
AcDbArc
 50
93.844280465
 51
112.6188635045
  0
ARC
  5
DF
330
1F
100
AcDbEntity
  8
0
  6
Continuous
 62
     7
370
    15
100
AcDbCircle
 10
67.6270505629
 20
485.5353274843
 30
0.0
 40
6.960926537256577
100
AcDbArc
 50
73.1661686457
 51
93.844280465
  0
ARC
  5
E0
330
1F
100
AcDbEntity
  8
0
  6
Continuous
 62
     7
370
    15
100
AcDbCircle
 10
64.5311181392
 20
495.063627737
 30
0.0
 40
6.960926537256819
100
AcDbArc
 50
302.155719535
 51
322.8338313543
  0
ARC
  5
E1
330
1F
100
AcDbEntity
  8
0
  6
Continuous
 62
     7
370
    15
100
AcDbCircle
 10
64.8921091405
 20
494.4894000463
 30
0.0
 40
6.282655246565771
100
AcDbArc
 50
283.3811364955
 51
302.155719535
  0
ARC
  5
E2
330
1F
100
AcDbEntity
  8
0
  6
Continuous
 62
     7
370
    15
100
AcDbCircle
 10
66.5255393822
 20
487.6229505942
 30
0.0
 40
0.7754055658943013
100
AcDbArc
 50
103.3811364955
 51
190.3508833196
  0
ARC
  5
E3
330
1F
100
AcDbEntity
  8
0
  6
Continuous
 62
     7
370
    15
100
AcDbCircle
 10
46.6930902156
 20
484.0005862849
 30
0.0
 40
19.38513914735741
100
AcDbArc
 50
7.6491166804
 51
10.3508833196
  0
ARC
  5
E4
330
1F
100
AcDbEntity
  8
0
  6
Continuous
 62
     7
370
    15
100
AcDbCircle
 10
66.6742423609
 20
486.6840769368
 30
0.0
 40
0.7754055658942871
100
AcDbArc
 50
187.6491166804
 51
274.6188635045
  0
ARC
  5
E5
330
1F
100
AcDbEntity
  8
0
  6
Continuous
 62
     7
370
    15
100
AcDbCircle
 10
67.2426074574
 20
479.6489377378
 30
0.0
 40
6.282655246565716
100
AcDbArc
 50
75.844280465
 51
94.6188635045
  0
ARC
  5
E6
330
1F
100
AcDbEntity
  8
0
  6
Continuous
 62
     7
370
    15
100
AcDbCircle
 10
67.0767307283
 20
478.9912623965
 30
0.0
 40
6.960926537256504
100
AcDbArc
 50
55.1661686457
 51
75.844280465
  0
ARC
  5
E7
330
1F
100
AcDbEntity
  8
0
  6
Continuous
 62
     7
370
    15
100
AcDbCircle
 10
67.0767307283
 20
489.0099101734
 30
0.0
 40
6.960926537256813
100
AcDbArc
 50
284.155719535
 51
304.8338313543
  0
ARC
  5
E8
330
1F
100
AcDbEntity
  8
0
  6
Continuous
 62
     7
370
    15
100
AcDbCircle
 10
67.2426074574
 20
488.3522348321
 30
0.0
 40
6.282655246565732
100
AcDbArc
 50
265.3811364955
 51
284.155719535
  0
ARC
  5
E9
330
1F
100
AcDbEntity
  8
0
  6
Continuous
 62
     7
370
    15
100
AcDbCircle
 10
66.6742423609
 20
481.3170956331
 30
0.0
 40
0.7754055658942992
100
AcDbArc
 50
85.3811364955
 51
172.3508833196
  0
ARC
  5
EA
330
1F
100
AcDbEntity
  8
0
  6
Continuous
 62
     7
370
    15
100
AcDbCircle
 10
46.6930902156
 20
484.0005862849
 30
0.0
 40
19.38513914735741
100
AcDbArc
 50
349.6491166804
 51
352.3508833196
  0
ARC
  5
EB
330
1F
100
AcDbEntity
  8
0
  6
Continuous
 62
     7
370
    15
100
AcDbCircle
 10
66.5255393822
 20
480.3782219757
 30
0.0
 40
0.7754055658943152
100
AcDbArc
 50
169.6491166804
 51
256.6188635045
  0
ARC
  5
EC
330
1F
100
AcDbEntity
  8
0
  6
Continuous
 62
     7
370
    15
100
AcDbCircle
 10
64.8921091405
 20
473.5117725236
 30
0.0
 40
6.282655246565668
100
AcDbArc
 50
57.844280465
 51
76.6188635045
  0
ARC
  5
ED
330
1F
100
AcDbEntity
  8
0
  6
Continuous
 62
     7
370
    15
100
AcDbCircle
 10
64.5311181392
 20
472.9375448329
 30
0.0
 40
6.96092653725654
100
AcDbArc
 50
37.1661686457
 51
57.844280465
  0
ARC
  5
EE
330
1F
100
AcDbEntity
  8
0
  6
Continuous
 62
     7
370
    15
100
AcDbCircle
 10
67.6270505629
 20
482.4658450856
 30
0.0
 40
6.960926537256805
100
AcDbArc
 50
266.155719535
 51
286.8338313543
  0
ARC
  5
EF
330
1F
100
AcDbEntity
  8
0
  6
Continuous
 62
     7
370
    15
100
AcDbCircle
 10
67.5815758498
 20
481.7890999384
 30
0.0
 40
6.282655246565725
100
AcDbArc
 50
247.3811364955
 51
266.155719535
  0
ARC
  5
F0
330
1F
100
AcDbEntity
  8
0
  6
Continuous
 62
     7
370
    15
100
AcDbCircle
 10
64.8670509508
 20
475.273919434
 30
0.0
 40
0.7754055658943416
100
AcDbArc
 50
67.3811364955
 51
154.3508833196
  0
ARC
  5
F1
330
1F
100
AcDbEntity
  8
0
  6
Continuous
 62
     7
370
    15
100
AcDbCircle
 10
46.6930902156
 20
484.0005862849
 30
0.0
 40
19.38513914735742
100
AcDbArc
 50
331.6491166804
 51
334.3508833196
  0
ARC
  5
F2
330
1F
100
AcDbEntity
  8
0
  6
Continuous
 62
     7
370
    15
100
AcDbCircle
 10
64.4354980982
 20
474.4269492717
 30
0.0
 40
0.7754055658943058
100
AcDbArc
 50
151.6491166804
 51
238.6188635045
  0
ARC
  5
F3
330
1F
100
AcDbEntity
  8
0
  6
Continuous
 62
     7
370
    15
100
AcDbCircle
 10
60.7601640512
 20
468.4013254802
 30
0.0
 40
6.282655246565707
100
AcDbArc
 50
39.844280465
 51
58.6188635045
  0
ARC
  5
F4
330
1F
100
AcDbEntity
  8
0
  6
Continuous
 62
     7
370
    15
100
AcDbCircle
 10
60.2393950921
 20
467.9667548474
 30
0.0
 40
6.960926537256546
100
AcDbArc
 50
19.1661686457
 51
39.844280465
  0
ARC
  5
F5
330
1F
100
AcDbEntity
  8
0
  6
Continuous
 62
     7
370
    15
100
AcDbCircle
 10
66.1282085032
 20
476.0720111596
 30
0.0
 40
6.960926537256851
100
AcDbArc
 50
248.155719535
 51
268.8338313543
  0
ARC
  5
F6
330
1F
100
AcDbEntity
  8
0
  6
Continuous
 62
     7
370
    15
100
AcDbCircle
 10
65.8758337296
 20
475.4424407366
 30
0.0
 40
6.282655246565675
100
AcDbArc
 50
229.3811364955
 51
248.155719535
  0
ARC
  5
F7
330
1F
100
AcDbEntity
  8
0
  6
Continuous
 62
     7
370
    15
100
AcDbCircle
 10
61.2808656385
 20
470.0849701885
 30
0.0
 40
0.7754055658942797
100
AcDbArc
 50
49.3811364955
 51
136.3508833196
  0
ARC
  5
F8
330
1F
100
AcDbEntity
  8
0
  6
Continuous
 62
     7
370
    15
100
AcDbCircle
 10
46.6930902156
 20
484.0005862849
 30
0.0
 40
19.38513914735742
100
AcDbArc
 50
313.6491166804
 51
316.3508833196
  0
ARC
  5
F9
330
1F
100
AcDbEntity
  8
0
  6
Continuous
 62
     7
370
    15
100
AcDbCircle
 10
60.608706312
 20
469.412810862
 30
0.0
 40
0.775405565894316
100
AcDbArc
 50
133.6491166804
 51
220.6188635045
  0
ARC
  5
FA
330
1F
100
AcDbEntity
  8
0
  6
Continuous
 62
     7
370
    15
100
AcDbCircle
 10
55.2512357639
 20
464.8178427709
 30
0.0
 40
6.282655246565679
100
AcDbArc
 50
21.844280465
 51
40.6188635045
  0
ARC
  5
FB
330
1F
100
AcDbEntity
  8
0
  6
Continuous
 62
     7
370
    15
100
AcDbCircle
 10
54.6216653409
 20
464.5654679973
 30
0.0
 40
6.960926537256543
100
AcDbArc
 50
1.1661686457
 51
21.844280465
  0
ARC
  5
FC
330
1F
100
AcDbEntity
  8
0
  6
Continuous
 62
     7
370
    15
100
AcDbCircle
 10
62.7269216531
 20
470.4542814084
 30
0.0
 40
6.960926537256834
100
AcDbArc
 50
230.155719535
 51
250.8338313543
  0
ARC
  5
FD
330
1F
100
AcDbEntity
  8
0
  6
Continuous
 62
     7
370
    15
100
AcDbCircle
 10
62.2923510203
 20
469.9335124493
 30
0.0
 40
6.282655246565719
100
AcDbArc
 50
211.3811364955
 51
230.155719535
  0
ARC
  5
FE
330
1F
100
AcDbEntity
  8
0
  6
Continuous
 62
     7
370
    15
100
AcDbCircle
 10
56.2667272288
 20
466.2581784023
 30
0.0
 40
0.7754055658943145
100
AcDbArc
 50
31.3811364955
 51
118.3508833196
  0
ARC
  5
FF
330
1F
100
AcDbEntity
  8
0
  6
Continuous
 62
     7
370
    15
100
AcDbCircle
 10
46.6930902156
 20
484.0005862849
 30
0.0
 40
19.38513914735742
100
AcDbArc
 50
295.6491166804
 51
298.3508833196
  0
ARC
  5
100
330
1F
100
AcDbEntity
  8
0
  6
Continuous
 62
     7
370
    15
100
AcDbCircle
 10
55.4197570665
 20
465.8266255497
 30
0.0
 40
0.7754055658943214
100
AcDbArc
 50
115.6491166804
 51
202.6188635045
  0
ARC
  5
101
330
1F
100
AcDbEntity
  8
0
  6
Continuous
 62
     7
370
    15
100
AcDbCircle
 10
48.9045765621
 20
463.1121006507
 30
0.0
 40
6.282655246565697
100
AcDbArc
 50
3.844280465
 51
22.6188635045
  0
ARC
  5
102
330
1F
100
AcDbEntity
  8
0
  6
Continuous
 62
     7
370
    15
100
AcDbCircle
 10
48.2278314149
 20
463.0666259376
 30
0.0
 40
6.960926537256548
100
AcDbArc
 50
343.1661686457
 51
3.844280465
  0
ARC
  5
103
330
1F
100
AcDbEntity
  8
0
  6
Continuous
 62
     7
370
    15
100
AcDbCircle
 10
57.7561316676
 20
466.1625583613
 30
0.0
 40
6.960926537256793
100
AcDbArc
 50
212.155719535
 51
232.8338313543
  0
ARC
  5
104
330
1F
100
AcDbEntity
  8
0
  6
Continuous
 62
     7
370
    15
100
AcDbCircle
 10
57.1819039769
 20
465.80156736
 30
0.0
 40
6.282655246565723
100
AcDbArc
 50
193.3811364955
 51
212.155719535
  0
ARC
  5
105
330
1F
100
AcDbEntity
  8
0
  6
Continuous
 62
     7
370
    15
100
AcDbCircle
 10
50.3154545248
 20
464.1681371183
 30
0.0
 40
0.7754055658943088
100
AcDbArc
 50
13.3811364955
 51
100.3508833196
  0
ARC
  5
106
330
1F
100
AcDbEntity
  8
0
  6
Continuous
 62
     7
370
    15
100
AcDbCircle
 10
46.6930902156
 20
484.0005862849
 30
0.0
 40
19.38513914735744
100
AcDbArc
 50
277.6491166804
 51
280.3508833196
  0
ARC
  5
107
330
1F
100
AcDbEntity
  8
0
  6
Continuous
 62
     7
370
    15
100
AcDbCircle
 10
49.3765808674
 20
464.0194341396
 30
0.0
 40
0.7754055658943244
100
AcDbArc
 50
97.6491166804
 51
184.6188635045
  0
ARC
  5
108
330
1F
100
AcDbEntity
  8
0
  6
Continuous
 62
     7
370
    15
100
AcDbCircle
 10
42.3414416684
 20
463.4510690431
 30
0.0
 40
6.282655246565717
100
AcDbArc
 50
345.844280465
 51
4.6188635045
  0
ARC
  5
109
330
1F
100
AcDbEntity
  8
0
  6
Continuous
 62
     7
370
    15
100
AcDbCircle
 10
41.6837663271
 20
463.6169457721
 30
0.0
 40
6.96092653725654
100
AcDbArc
 50
325.1661686457
 51
345.844280465
  0
ARC
  5
10A
330
1F
100
AcDbEntity
  8
0
  6
Continuous
 62
     7
370
    15
100
AcDbCircle
 10
51.702414104
 20
463.6169457721
 30
0.0
 40
6.960926537256821
100
AcDbArc
 50
194.155719535
 51
214.8338313543
  0
ARC
  5
10B
330
1F
100
AcDbEntity
  8
0
  6
Continuous
 62
     7
370
    15
100
AcDbCircle
 10
51.0447387627
 20
463.4510690431
 30
0.0
 40
6.282655246565719
100
AcDbArc
 50
175.3811364955
 51
194.155719535
  0
ARC
  5
10C
330
1F
100
AcDbEntity
  8
0
  6
Continuous
 62
     7
370
    15
100
AcDbCircle
 10
44.0095995637
 20
464.0194341396
 30
0.0
 40
0.775405565894293
100
AcDbArc
 50
355.3811364955
 51
82.3508833196
  0
ARC
  5
10D
330
1F
100
AcDbEntity
  8
0
  6
Continuous
 62
     7
370
    15
100
AcDbCircle
 10
46.6930902156
 20
484.0005862849
 30
0.0
 40
19.38513914735748
100
AcDbArc
 50
259.6491166804
 51
262.3508833196
  0
ARC
  5
10E
330
1F
100
AcDbEntity
  8
0
  6
Continuous
 62
     7
370
    15
100
AcDbCircle
 10
43.0707259063
 20
464.1681371183
 30
0.0
 40
0.7754055658943712
100
AcDbArc
 50
79.6491166804
 51
166.6188635045
  0
ARC
  5
10F
330
1F
100
AcDbEntity
  8
0
  6
Continuous
 62
     7
370
    15
100
AcDbCircle
 10
36.2042764542
 20
465.80156736
 30
0.0
 40
6.282655246565717
100
AcDbArc
 50
327.844280465
 51
346.6188635045
  0
ARC
  5
110
330
1F
100
AcDbEntity
  8
0
  6
Continuous
 62
     7
370
    15
100
AcDbCircle
 10
35.6300487635
 20
466.1625583613
 30
0.0
 40
6.960926537256509
100
AcDbArc
 50
307.1661686457
 51
327.844280465
  0
ARC
  5
111
330
1F
100
AcDbEntity
  8
0
  6
Continuous
 62
     7
370
    15
100
AcDbCircle
 10
45.1583490162
 20
463.0666259376
 30
0.0
 40
6.960926537256814
100
AcDbArc
 50
176.155719535
 51
196.8338313543
  0
ARC
  5
112
330
1F
100
AcDbEntity
  8
0
  6
Continuous
 62
     7
370
    15
100
AcDbCircle
 10
44.481603869
 20
463.1121006507
 30
0.0
 40
6.282655246565705
100
AcDbArc
 50
157.3811364955
 51
176.155719535
  0
ARC
  5
113
330
1F
100
AcDbEntity
  8
0
  6
Continuous
 62
     7
370
    15
100
AcDbCircle
 10
37.9664233646
 20
465.8266255497
 30
0.0
 40
0.7754055658943337
100
AcDbArc
 50
337.3811364955
 51
64.3508833196
  0
ARC
  5
114
330
1F
100
AcDbEntity
  8
0
  6
Continuous
 62
     7
370
    15
100
AcDbCircle
 10
46.6930902156
 20
484.0005862849
 30
0.0
 40
19.38513914735744
100
AcDbArc
 50
241.6491166804
 51
244.3508833196
  0
ARC
  5
115
330
1F
100
AcDbEntity
  8
0
  6
Continuous
 62
     7
370
    15
100
AcDbCircle
 10
37.1194532023
 20
466.2581784023
 30
0.0
 40
0.7754055658943321
100
AcDbArc
 50
61.6491166804
 51
148.6188635045
  0
ARC
  5
116
330
1F
100
AcDbEntity
  8
0
  6
Continuous
 62
     7
370
    15
100
AcDbCircle
 10
31.0938294109
 20
469.9335124493
 30
0.0
 40
6.282655246565701
100
AcDbArc
 50
309.844280465
 51
328.6188635045
  0
ARC
  5
117
330
1F
100
AcDbEntity
  8
0
  6
Continuous
 62
     7
370
    15
100
AcDbCircle
 10
30.659258778
 20
470.4542814084
 30
0.0
 40
6.960926537256562
100
AcDbArc
 50
289.1661686457
 51
309.844280465
  0
ARC
  5
118
330
1F
100
AcDbEntity
  8
0
  6
Continuous
 62
     7
370
    15
100
AcDbCircle
 10
38.7645150902
 20
464.5654679973
 30
0.0
 40
6.960926537256802
100
AcDbArc
 50
158.155719535
 51
178.8338313543
  0
ARC
  5
119
330
1F
100
AcDbEntity
  8
0
  6
Continuous
 62
     7
370
    15
100
AcDbCircle
 10
38.1349446673
 20
464.8178427709
 30
0.0
 40
6.282655246565697
100
AcDbArc
 50
139.3811364955
 51
158.155719535
  0
ARC
  5
11A
330
1F
100
AcDbEntity
  8
0
  6
Continuous
 62
     7
370
    15
100
AcDbCircle
 10
32.7774741191
 20
469.412810862
 30
0.0
 40
0.7754055658943105
100
AcDbArc
 50
319.3811364955
 51
46.3508833196
  0
ARC
  5
11B
330
1F
100
AcDbEntity
  8
0
  6
Continuous
 62
     7
370
    15
100
AcDbCircle
 10
46.6930902156
 20
484.0005862849
 30
0.0
 40
19.38513914735746
100
AcDbArc
 50
223.6491166804
 51
226.3508833196
  0
ARC
  5
11C
330
1F
100
AcDbEntity
  8
0
  6
Continuous
 62
     7
370
    15
100
AcDbCircle
 10
32.1053147926
 20
470.0849701885
 30
0.0
 40
0.7754055658943567
100
AcDbArc
 50
43.6491166804
 51
130.6188635045
  0
ARC
  5
11D
330
1F
100
AcDbEntity
  8
0
  6
Continuous
 62
     7
370
    15
100
AcDbCircle
 10
27.5103467015
 20
475.4424407366
 30
0.0
 40
6.282655246565701
100
AcDbArc
 50
291.844280465
 51
310.6188635045
  0
ARC
  5
11E
330
1F
100
AcDbEntity
  8
0
  6
Continuous
 62
     7
370
    15
100
AcDbCircle
 10
27.2579719279
 20
476.0720111596
 30
0.0
 40
6.960926537256506
100
AcDbArc
 50
271.1661686457
 51
291.844280465
  0
ARC
  5
11F
330
1F
100
AcDbEntity
  8
0
  6
Continuous
 62
     7
370
    15
100
AcDbCircle
 10
33.1467853391
 20
467.9667548474
 30
0.0
 40
6.960926537256809
100
AcDbArc
 50
140.155719535
 51
160.8338313543
  0
LINE
  5
120
330
1F
100
AcDbEntity
  8
0
  6
Continuous
 62
     7
370
    15
100
AcDbLine
 10
42.202962155
 20
484.0005862849
 30
0.0
 11
46.6930902156
 21
488.4907143455
 31
0.0
  0
LINE
  5
121
330
1F
100
AcDbEntity
  8
0
  6
Continuous
 62
     7
370
    15
100
AcDbLine
 10
46.6930902156
 20
479.5104582244
 30
0.0
 11
42.202962155
 21
484.0005862849
 31
0.0
  0
LINE
  5
122
330
1F
100
AcDbEntity
  8
0
  6
Continuous
 62
     7
370
    15
100
AcDbLine
 10
51.1832182761
 20
484.0005862849
 30
0.0
 11
46.6930902156
 21
479.5104582244
 31
0.0
  0
LINE
  5
123
330
1F
100
AcDbEntity
  8
0
  6
Continuous
 62
     7
370
    15
100
AcDbLine
 10
46.6930902156
 20
488.4907143455
 30
0.0
 11
51.1832182761
 21
484.0005862849
 31
0.0
  0
ARC
  5
124
330
1F
100
AcDbEntity
  8
0
  6
Continuous
 62
     7
370
    15
100
AcDbCircle
 10
46.6930902156
 20
484.0005862849
 30
0.0
 40
24.36988921382076
100
AcDbArc
 50
196.3439240079
 51
199.6560759921
  0
ARC
  5
125
330
1F
100
AcDbEntity
  8
0
  6
Continuous
 62
     7
370
    15
100
AcDbCircle
 10
46.6930902156
 20
484.0005862849
 30
0.0
 40
24.36988921382075
100
AcDbArc
 50
178.3439240079
 51
181.6560759921
  0
ARC
  5
126
330
1F
100
AcDbEntity
  8
0
  6
Continuous
 62
     7
370
    15
100
AcDbCircle
 10
46.6930902156
 20
484.0005862849
 30
0.0
 40
24.36988921382075
100
AcDbArc
 50
160.3439240079
 51
163.6560759921
  0
ARC
  5
127
330
1F
100
AcDbEntity
  8
0
  6
Continuous
 62
     7
370
    15
100
AcDbCircle
 10
46.6930902156
 20
484.0005862849
 30
0.0
 40
24.36988921382074
100
AcDbArc
 50
142.3439240079
 51
145.6560759921
  0
ARC
  5
128
330
1F
100
AcDbEntity
  8
0
  6
Continuous
 62
     7
370
    15
100
AcDbCircle
 10
46.6930902156
 20
484.0005862849
 30
0.0
 40
24.36988921382074
100
AcDbArc
 50
124.3439240079
 51
127.6560759921
  0
ARC
  5
129
330
1F
100
AcDbEntity
  8
0
  6
Continuous
 62
     7
370
    15
100
AcDbCircle
 10
46.6930902156
 20
484.0005862849
 30
0.0
 40
24.36988921382072
100
AcDbArc
 50
106.3439240079
 51
109.6560759921
  0
ARC
  5
12A
330
1F
100
AcDbEntity
  8
0
  6
Continuous
 62
     7
370
    15
100
AcDbCircle
 10
46.6930902156
 20
484.0005862849
 30
0.0
 40
24.36988921382071
100
AcDbArc
 50
88.3439240079
 51
91.6560759921
  0
ARC
  5
12B
330
1F
100
AcDbEntity
  8
0
  6
Continuous
 62
     7
370
    15
100
AcDbCircle
 10
46.6930902156
 20
484.0005862849
 30
0.0
 40
24.36988921382076
100
AcDbArc
 50
70.3439240079
 51
73.6560759921
  0
ARC
  5
12C
330
1F
100
AcDbEntity
  8
0
  6
Continuous
 62
     7
370
    15
100
AcDbCircle
 10
46.6930902156
 20
484.0005862849
 30
0.0
 40
24.36988921382077
100
AcDbArc
 50
52.3439240079
 51
55.6560759921
  0
ARC
  5
12D
330
1F
100
AcDbEntity
  8
0
  6
Continuous
 62
     7
370
    15
100
AcDbCircle
 10
46.6930902156
 20
484.0005862849
 30
0.0
 40
24.36988921382074
100
AcDbArc
 50
34.3439240079
 51
37.6560759921
  0
ARC
  5
12E
330
1F
100
AcDbEntity
  8
0
  6
Continuous
 62
     7
370
    15
100
AcDbCircle
 10
46.6930902156
 20
484.0005862849
 30
0.0
 40
24.36988921382073
100
AcDbArc
 50
16.3439240079
 51
19.6560759921
  0
ARC
  5
12F
330
1F
100
AcDbEntity
  8
0
  6
Continuous
 62
     7
370
    15
100
AcDbCircle
 10
46.6930902156
 20
484.0005862849
 30
0.0
 40
24.36988921382074
100
AcDbArc
 50
358.3439240079
 51
1.6560759921
  0
ARC
  5
130
330
1F
100
AcDbEntity
  8
0
  6
Continuous
 62
     7
370
    15
100
AcDbCircle
 10
46.6930902156
 20
484.0005862849
 30
0.0
 40
24.36988921382077
100
AcDbArc
 50
340.3439240079
 51
343.6560759921
  0
ARC
  5
131
330
1F
100
AcDbEntity
  8
0
  6
Continuous
 62
     7
370
    15
100
AcDbCircle
 10
46.6930902156
 20
484.0005862849
 30
0.0
 40
24.36988921382078
100
AcDbArc
 50
322.3439240079
 51
325.6560759921
  0
ARC
  5
132
330
1F
100
AcDbEntity
  8
0
  6
Continuous
 62
     7
370
    15
100
AcDbCircle
 10
46.6930902156
 20
484.0005862849
 30
0.0
 40
24.36988921382076
100
AcDbArc
 50
304.3439240079
 51
307.6560759921
  0
ARC
  5
133
330
1F
100
AcDbEntity
  8
0
  6
Continuous
 62
     7
370
    15
100
AcDbCircle
 10
46.6930902156
 20
484.0005862849
 30
0.0
 40
24.36988921382079
100
AcDbArc
 50
286.3439240079
 51
289.6560759921
  0
ARC
  5
134
330
1F
100
AcDbEntity
  8
0
  6
Continuous
 62
     7
370
    15
100
AcDbCircle
 10
46.6930902156
 20
484.0005862849
 30
0.0
 40
24.36988921382078
100
AcDbArc
 50
268.3439240079
 51
271.6560759921
  0
ARC
  5
135
330
1F
100
AcDbEntity
  8
0
  6
Continuous
 62
     7
370
    15
100
AcDbCircle
 10
46.6930902156
 20
484.0005862849
 30
0.0
 40
24.36988921382079
100
AcDbArc
 50
250.3439240079
 51
253.6560759921
  0
ARC
  5
136
330
1F
100
AcDbEntity
  8
0
  6
Continuous
 62
     7
370
    15
100
AcDbCircle
 10
46.6930902156
 20
484.0005862849
 30
0.0
 40
24.36988921382078
100
AcDbArc
 50
232.3439240079
 51
235.6560759921
  0
ARC
  5
137
330
1F
100
AcDbEntity
  8
0
  6
Continuous
 62
     7
370
    15
100
AcDbCircle
 10
46.6930902156
 20
484.0005862849
 30
0.0
 40
24.36988921382076
100
AcDbArc
 50
214.3439240079
 51
217.6560759921
  0
LINE
  5
138
330
1F
100
AcDbEntity
  8
0
  6
Continuous
 62
     7
370
    15
100
AcDbLine
 10
110.2740005562
 20
471.9320988735
 30
0.0
 11
105.7838723036
 21
476.4222271262
 31
0.0
  0
LINE
  5
139
330
1F
100
AcDbEntity
  8
0
  6
Continuous
 62
     7
370
    15
100
AcDbLine
 10
105.7838723036
 20
476.4222271262
 30
0.0
 11
101.2937440509
 21
471.9320988735
 31
0.0
  0
LINE
  5
13A
330
1F
100
AcDbEntity
  8
0
  6
Continuous
 62
     7
370
    15
100
AcDbLine
 10
101.2937440509
 20
471.9320988735
 30
0.0
 11
105.7838723036
 21
467.4419706209
 31
0.0
  0
LINE
  5
13B
330
1F
100
AcDbEntity
  8
0
  6
Continuous
 62
     7
370
    15
100
AcDbLine
 10
105.7838723036
 20
467.4419706209
 30
0.0
 11
110.2740005562
 21
471.9320988735
 31
0.0
  0
ARC
  5
13C
330
1F
100
AcDbEntity
  8
0
  6
Continuous
 62
     7
370
    15
100
AcDbCircle
 10
78.76300359
 20
455.1866652296
 30
0.0
 40
6.279319666210813
100
AcDbArc
 50
110.9265705995
 51
129.6149583561
  0
ARC
  5
13D
330
1F
100
AcDbEntity
  8
0
  6
Continuous
 62
     7
370
    15
100
AcDbCircle
 10
76.2432596713
 20
461.7760514427
 30
0.0
 40
0.7754035799999939
100
AcDbArc
 50
290.9265705995
 51
18.9729434648
  0
ARC
  5
13E
330
1F
100
AcDbEntity
  8
0
  6
Continuous
 62
     7
370
    15
100
AcDbCircle
 10
105.7838723036
 20
471.9320988735
 30
0.0
 40
30.46228350000001
100
AcDbArc
 50
197.0270565352
 51
198.9729434648
  0
ARC
  5
13F
330
1F
100
AcDbEntity
  8
0
  6
Continuous
 62
     7
370
    15
100
AcDbCircle
 10
75.9154397584
 20
462.7849773918
 30
0.0
 40
0.775403580000077
100
AcDbArc
 50
17.0270565352
 51
105.0734294005
  0
ARC
  5
140
330
1F
100
AcDbEntity
  8
0
  6
Continuous
 62
     7
370
    15
100
AcDbCircle
 10
74.0808113724
 20
469.5969711356
 30
0.0
 40
6.279319666210835
100
AcDbArc
 50
266.3850416439
 51
285.0734294005
  0
ARC
  5
141
330
1F
100
AcDbEntity
  8
0
  6
Continuous
 62
     7
370
    15
100
AcDbCircle
 10
74.1237862942
 20
470.2772040223
 30
0.0
 40
6.960908709600223
100
AcDbArc
 50
245.6184823437
 51
266.3850416439
  0
ARC
  5
142
330
1F
100
AcDbEntity
  8
0
  6
Continuous
 62
     7
370
    15
100
AcDbCircle
 10
105.7838723036
 20
471.9320988735
 30
0.0
 40
35.4470208
100
AcDbArc
 50
190.9648899095
 51
193.0351100905
  0
ARC
  5
143
330
1F
100
AcDbEntity
  8
0
  6
Continuous
 62
     7
370
    15
100
AcDbCircle
 10
76.1878381647
 20
460.5666034447
 30
0.0
 40
6.960908709600028
100
AcDbArc
 50
117.6149583561
 51
138.3815176563
  0
ARC
  5
144
330
1F
100
AcDbEntity
  8
0
  6
Continuous
 62
     7
370
    15
100
AcDbCircle
 10
75.8719029793
 20
461.1705476331
 30
0.0
 40
6.279319666210775
100
AcDbArc
 50
98.9265705995
 51
117.6149583561
  0
ARC
  5
145
330
1F
100
AcDbEntity
  8
0
  6
Continuous
 62
     7
370
    15
100
AcDbCircle
 10
74.7772319397
 20
468.1398241663
 30
0.0
 40
0.7754035800000448
100
AcDbArc
 50
278.9265705995
 51
6.9729434648
  0
ARC
  5
146
330
1F
100
AcDbEntity
  8
0
  6
Continuous
 62
     7
370
    15
100
AcDbCircle
 10
105.7838723036
 20
471.9320988735
 30
0.0
 40
30.46228350000001
100
AcDbArc
 50
185.0270565352
 51
186.9729434648
  0
ARC
  5
147
330
1F
100
AcDbEntity
  8
0
  6
Continuous
 62
     7
370
    15
100
AcDbCircle
 10
74.6663431785
 20
469.1948602551
 30
0.0
 40
0.7754035799999791
100
AcDbArc
 50
5.0270565352
 51
93.0734294005
  0
ARC
  5
148
330
1F
100
AcDbEntity
  8
0
  6
Continuous
 62
     7
370
    15
100
AcDbCircle
 10
74.2880989616
 20
476.2394362816
 30
0.0
 40
6.279319666210841
100
AcDbArc
 50
254.3850416439
 51
273.0734294005
  0
ARC
  5
149
330
1F
100
AcDbEntity
  8
0
  6
Continuous
 62
     7
370
    15
100
AcDbCircle
 10
74.4715631478
 20
476.895869459
 30
0.0
 40
6.960908709600251
100
AcDbArc
 50
233.6184823437
 51
254.3850416439
  0
ARC
  5
14A
330
1F
100
AcDbEntity
  8
0
  6
Continuous
 62
     7
370
    15
100
AcDbCircle
 10
105.7838723036
 20
471.9320988735
 30
0.0
 40
35.4470208
100
AcDbArc
 50
178.9648899095
 51
181.0351100905
  0
ARC
  5
14B
330
1F
100
AcDbEntity
  8
0
  6
Continuous
 62
     7
370
    15
100
AcDbCircle
 10
74.4715631478
 20
466.968328288
 30
0.0
 40
6.96090870960001
100
AcDbArc
 50
105.6149583561
 51
126.3815176563
  0
ARC
  5
14C
330
1F
100
AcDbEntity
  8
0
  6
Continuous
 62
     7
370
    15
100
AcDbCircle
 10
74.2880989616
 20
467.6247614655
 30
0.0
 40
6.279319666210841
100
AcDbArc
 50
86.9265705995
 51
105.6149583561
  0
ARC
  5
14D
330
1F
100
AcDbEntity
  8
0
  6
Continuous
 62
     7
370
    15
100
AcDbCircle
 10
74.6663431785
 20
474.6693374919
 30
0.0
 40
0.7754035800000251
100
AcDbArc
 50
266.9265705995
 51
354.9729434648
  0
ARC
  5
14E
330
1F
100
AcDbEntity
  8
0
  6
Continuous
 62
     7
370
    15
100
AcDbCircle
 10
105.7838723036
 20
471.9320988735
 30
0.0
 40
30.46228350000001
100
AcDbArc
 50
173.0270565352
 51
174.9729434648
  0
ARC
  5
14F
330
1F
100
AcDbEntity
  8
0
  6
Continuous
 62
     7
370
    15
100
AcDbCircle
 10
74.7772319397
 20
475.7243735807
 30
0.0
 40
0.7754035800000448
100
AcDbArc
 50
353.0270565352
 51
81.0734294005
  0
ARC
  5
150
330
1F
100
AcDbEntity
  8
0
  6
Continuous
 62
     7
370
    15
100
AcDbCircle
 10
75.8719029793
 20
482.6936501139
 30
0.0
 40
6.279319666210762
100
AcDbArc
 50
242.3850416439
 51
261.0734294005
  0
ARC
  5
151
330
1F
100
AcDbEntity
  8
0
  6
Continuous
 62
     7
370
    15
100
AcDbCircle
 10
76.1878381647
 20
483.2975943023
 30
0.0
 40
6.960908709600219
100
AcDbArc
 50
221.6184823437
 51
242.3850416439
  0
ARC
  5
152
330
1F
100
AcDbEntity
  8
0
  6
Continuous
 62
     7
370
    15
100
AcDbCircle
 10
105.7838723036
 20
471.9320988735
 30
0.0
 40
35.44702080000002
100
AcDbArc
 50
166.9648899095
 51
169.0351100905
  0
ARC
  5
153
330
1F
100
AcDbEntity
  8
0
  6
Continuous
 62
     7
370
    15
100
AcDbCircle
 10
74.1237862942
 20
473.5869937247
 30
0.0
 40
6.960908709600025
100
AcDbArc
 50
93.6149583561
 51
114.3815176563
  0
ARC
  5
154
330
1F
100
AcDbEntity
  8
0
  6
Continuous
 62
     7
370
    15
100
AcDbCircle
 10
74.0808113724
 20
474.2672266114
 30
0.0
 40
6.2793196662108
100
AcDbArc
 50
74.9265705995
 51
93.6149583561
  0
ARC
  5
155
330
1F
100
AcDbEntity
  8
0
  6
Continuous
 62
     7
370
    15
100
AcDbCircle
 10
75.9154397584
 20
481.0792203552
 30
0.0
 40
0.7754035800000184
100
AcDbArc
 50
254.9265705995
 51
342.9729434648
  0
ARC
  5
156
330
1F
100
AcDbEntity
  8
0
  6
Continuous
 62
     7
370
    15
100
AcDbCircle
 10
105.7838723036
 20
471.9320988735
 30
0.0
 40
30.46228350000001
100
AcDbArc
 50
161.0270565352
 51
162.9729434648
  0
ARC
  5
157
330
1F
100
AcDbEntity
  8
0
  6
Continuous
 62
     7
370
    15
100
AcDbCircle
 10
76.2432596713
 20
482.0881463043
 30
0.0
 40
0.7754035800000073
100
AcDbArc
 50
341.0270565352
 51
69.0734294005
  0
ARC
  5
158
330
1F
100
AcDbEntity
  8
0
  6
Continuous
 62
     7
370
    15
100
AcDbCircle
 10
78.76300359
 20
488.6775325174
 30
0.0
 40
6.279319666210833
100
AcDbArc
 50
230.3850416439
 51
249.0734294005
  0
ARC
  5
159
330
1F
100
AcDbEntity
  8
0
  6
Continuous
 62
     7
370
    15
100
AcDbCircle
 10
79.197601891
 20
489.2025924577
 30
0.0
 40
6.960908709600171
100
AcDbArc
 50
209.6184823437
 51
230.3850416439
  0
ARC
  5
15A
330
1F
100
AcDbEntity
  8
0
  6
Continuous
 62
     7
370
    15
100
AcDbCircle
 10
105.7838723036
 20
471.9320988735
 30
0.0
 40
35.44702080000001
100
AcDbArc
 50
154.9648899095
 51
157.0351100905
  0
ARC
  5
15B
330
1F
100
AcDbEntity
  8
0
  6
Continuous
 62
     7
370
    15
100
AcDbCircle
 10
75.1597071211
 20
480.1333323153
 30
0.0
 40
6.960908709600011
100
AcDbArc
 50
81.6149583561
 51
102.3815176563
  0
ARC
  5
15C
330
1F
100
AcDbEntity
  8
0
  6
Continuous
 62
     7
370
    15
100
AcDbCircle
 10
75.2590996741
 20
480.80763547
 30
0.0
 40
6.279319666210816
100
AcDbArc
 50
62.9265705995
 51
81.6149583561
  0
ARC
  5
15D
330
1F
100
AcDbEntity
  8
0
  6
Continuous
 62
     7
370
    15
100
AcDbCircle
 10
78.4699301652
 20
487.089330117
 30
0.0
 40
0.7754035800000323
100
AcDbArc
 50
242.9265705995
 51
330.9729434648
  0
ARC
  5
15E
330
1F
100
AcDbEntity
  8
0
  6
Continuous
 62
     7
370
    15
100
AcDbCircle
 10
105.7838723036
 20
471.9320988735
 30
0.0
 40
30.46228349999999
100
AcDbArc
 50
149.0270565352
 51
150.9729434648
  0
ARC
  5
15F
330
1F
100
AcDbEntity
  8
0
  6
Continuous
 62
     7
370
    15
100
AcDbCircle
 10
79.0003539265
 20
488.0080510211
 30
0.0
 40
0.7754035800000076
100
AcDbArc
 50
329.0270565352
 51
57.0734294005
  0
ARC
  5
160
330
1F
100
AcDbEntity
  8
0
  6
Continuous
 62
     7
370
    15
100
AcDbCircle
 10
82.835045824
 20
493.9295591171
 30
0.0
 40
6.2793196662108
100
AcDbArc
 50
218.3850416439
 51
237.0734294005
  0
ARC
  5
161
330
1F
100
AcDbEntity
  8
0
  6
Continuous
 62
     7
370
    15
100
AcDbCircle
 10
83.3693132094
 20
494.3527871704
 30
0.0
 40
6.96090870960023
100
AcDbArc
 50
197.6184823437
 51
218.3850416439
  0
ARC
  5
162
330
1F
100
AcDbEntity
  8
0
  6
Continuous
 62
     7
370
    15
100
AcDbCircle
 10
105.7838723036
 20
471.9320988735
 30
0.0
 40
35.4470208
100
AcDbArc
 50
142.9648899095
 51
145.0351100905
  0
ARC
  5
163
330
1F
100
AcDbEntity
  8
0
  6
Continuous
 62
     7
370
    15
100
AcDbCircle
 10
77.5340509175
 20
486.3212376507
 30
0.0
 40
6.960908709600008
100
AcDbArc
 50
69.6149583561
 51
90.3815176563
  0
ARC
  5
164
330
1F
100
AcDbEntity
  8
0
  6
Continuous
 62
     7
370
    15
100
AcDbCircle
 10
77.7714670138
 20
486.9601407899
 30
0.0
 40
6.279319666210781
100
AcDbArc
 50
50.9265705995
 51
69.6149583561
  0
ARC
  5
165
330
1F
100
AcDbEntity
  8
0
  6
Continuous
 62
     7
370
    15
100
AcDbCircle
 10
82.2181709103
 20
492.436996141
 30
0.0
 40
0.775403579999998
100
AcDbArc
 50
230.9265705995
 51
318.9729434648
  0
ARC
  5
166
330
1F
100
AcDbEntity
  8
0
  6
Continuous
 62
     7
370
    15
100
AcDbCircle
 10
105.7838723036
 20
471.9320988735
 30
0.0
 40
30.46228350000002
100
AcDbArc
 50
137.0270565352
 51
138.9729434648
  0
ARC
  5
167
330
1F
100
AcDbEntity
  8
0
  6
Continuous
 62
     7
370
    15
100
AcDbCircle
 10
82.9280164563
 20
493.225359488
 30
0.0
 40
0.7754035800000353
100
AcDbArc
 50
317.0270565352
 51
45.0734294005
  0
ARC
  5
168
330
1F
100
AcDbEntity
  8
0
  6
Continuous
 62
     7
370
    15
100
AcDbCircle
 10
87.9100618959
 20
498.2201911487
 30
0.0
 40
6.279319666210831
100
AcDbArc
 50
206.3850416439
 51
225.0734294005
  0
ARC
  5
169
330
1F
100
AcDbEntity
  8
0
  6
Continuous
 62
     7
370
    15
100
AcDbCircle
 10
88.5206483172
 20
498.5230902181
 30
0.0
 40
6.960908709600195
100
AcDbArc
 50
185.6184823437
 51
206.3850416439
  0
ARC
  5
16A
330
1F
100
AcDbEntity
  8
0
  6
Continuous
 62
     7
370
    15
100
AcDbCircle
 10
105.7838723036
 20
471.9320988735
 30
0.0
 40
35.4470208
100
AcDbArc
 50
130.9648899095
 51
133.0351100905
  0
ARC
  5
16B
330
1F
100
AcDbEntity
  8
0
  6
Continuous
 62
     7
370
    15
100
AcDbCircle
 10
81.1430474662
 20
491.8802685747
 30
0.0
 40
6.96090870959998
100
AcDbArc
 50
57.6149583561
 51
78.3815176563
  0
ARC
  5
16C
330
1F
100
AcDbEntity
  8
0
  6
Continuous
 62
     7
370
    15
100
AcDbCircle
 10
81.5081108831
 20
492.4558485654
 30
0.0
 40
6.279319666210797
100
AcDbArc
 50
38.9265705995
 51
57.6149583561
  0
ARC
  5
16D
330
1F
100
AcDbEntity
  8
0
  6
Continuous
 62
     7
370
    15
100
AcDbCircle
 10
86.9963458871
 20
496.888499761
 30
0.0
 40
0.7754035800000372
100
AcDbArc
 50
218.9265705995
 51
306.9729434648
  0
ARC
  5
16E
330
1F
100
AcDbEntity
  8
0
  6
Continuous
 62
     7
370
    15
100
AcDbCircle
 10
105.7838723036
 20
471.9320988735
 30
0.0
 40
30.46228350000002
100
AcDbArc
 50
125.0270565352
 51
126.9729434648
  0
ARC
  5
16F
330
1F
100
AcDbEntity
  8
0
  6
Continuous
 62
     7
370
    15
100
AcDbCircle
 10
87.8545895612
 20
497.5120502897
 30
0.0
 40
0.7754035800000155
100
AcDbArc
 50
305.0270565352
 51
33.0734294005
  0
ARC
  5
170
330
1F
100
AcDbEntity
  8
0
  6
Continuous
 62
     7
370
    15
100
AcDbCircle
 10
93.7662492506
 20
501.3619074036
 30
0.0
 40
6.279319666210785
100
AcDbArc
 50
194.3850416439
 51
213.0734294005
  0
ARC
  5
171
330
1F
100
AcDbEntity
  8
0
  6
Continuous
 62
     7
370
    15
100
AcDbCircle
 10
94.4264691513
 20
501.5312393463
 30
0.0
 40
6.960908709600187
100
AcDbArc
 50
173.6184823437
 51
194.3850416439
  0
ARC
  5
172
330
1F
100
AcDbEntity
  8
0
  6
Continuous
 62
     7
370
    15
100
AcDbCircle
 10
105.7838723036
 20
471.9320988735
 30
0.0
 40
35.44702079999998
100
AcDbArc
 50
118.9648899095
 51
121.0351100905
  0
ARC
  5
173
330
1F
100
AcDbEntity
  8
0
  6
Continuous
 62
     7
370
    15
100
AcDbCircle
 10
85.8289663001
 20
496.5674687608
 30
0.0
 40
6.960908709600002
100
AcDbArc
 50
45.6149583561
 51
66.3815176563
  0
ARC
  5
174
330
1F
100
AcDbEntity
  8
0
  6
Continuous
 62
     7
370
    15
100
AcDbCircle
 10
86.3057220145
 20
497.0545699955
 30
0.0
 40
6.279319666210781
100
AcDbArc
 50
26.9265705995
 51
45.6149583561
  0
ARC
  5
175
330
1F
100
AcDbEntity
  8
0
  6
Continuous
 62
     7
370
    15
100
AcDbCircle
 10
92.5956259208
 20
500.2492889081
 30
0.0
 40
0.7754035799999949
100
AcDbArc
 50
206.9265705995
 51
294.9729434648
  0
ARC
  5
176
330
1F
100
AcDbEntity
  8
0
  6
Continuous
 62
     7
370
    15
100
AcDbCircle
 10
105.7838723036
 20
471.9320988735
 30
0.0
 40
30.46228350000001
100
AcDbArc
 50
113.0270565352
 51
114.9729434648
  0
ARC
  5
177
330
1F
100
AcDbEntity
  8
0
  6
Continuous
 62
     7
370
    15
100
AcDbCircle
 10
93.5647583563
 20
500.6807744682
 30
0.0
 40
0.7754035800000031
100
AcDbArc
 50
293.0270565352
 51
21.0734294005
  0
ARC
  5
178
330
1F
100
AcDbEntity
  8
0
  6
Continuous
 62
     7
370
    15
100
AcDbCircle
 10
100.1476643997
 20
503.2173998058
 30
0.0
 40
6.279319666210803
100
AcDbArc
 50
182.3850416439
 51
201.0734294005
  0
ARC
  5
179
330
1F
100
AcDbEntity
  8
0
  6
Continuous
 62
     7
370
    15
100
AcDbCircle
 10
100.8286630021
 20
503.2457640035
 30
0.0
 40
6.960908709600191
100
AcDbArc
 50
161.6184823437
 51
182.3850416439
  0
ARC
  5
17A
330
1F
100
AcDbEntity
  8
0
  6
Continuous
 62
     7
370
    15
100
AcDbCircle
 10
105.7838723036
 20
471.9320988735
 30
0.0
 40
35.44702080000005
100
AcDbArc
 50
106.9648899095
 51
109.0351100905
  0
ARC
  5
17B
330
1F
100
AcDbEntity
  8
0
  6
Continuous
 62
     7
370
    15
100
AcDbCircle
 10
91.3870102806
 20
500.1779850693
 30
0.0
 40
6.960908709599953
100
AcDbArc
 50
33.6149583561
 51
54.3815176563
  0
ARC
  5
17C
330
1F
100
AcDbEntity
  8
0
  6
Continuous
 62
     7
370
    15
100
AcDbCircle
 10
91.9546217801
 20
500.5553188866
 30
0.0
 40
6.279319666210786
100
AcDbArc
 50
14.9265705995
 51
33.6149583561
  0
ARC
  5
17D
330
1F
100
AcDbEntity
  8
0
  6
Continuous
 62
     7
370
    15
100
AcDbCircle
 10
98.7712956057
 20
502.3724809697
 30
0.0
 40
0.7754035800000048
100
AcDbArc
 50
194.9265705995
 51
282.9729434648
  0
ARC
  5
17E
330
1F
100
AcDbEntity
  8
0
  6
Continuous
 62
     7
370
    15
100
AcDbCircle
 10
105.7838723036
 20
471.9320988735
 30
0.0
 40
30.46228349999998
100
AcDbArc
 50
101.0270565352
 51
102.9729434648
  0
ARC
  5
17F
330
1F
100
AcDbEntity
  8
0
  6
Continuous
 62
     7
370
    15
100
AcDbCircle
 10
99.8089610646
 20
502.5930435718
 30
0.0
 40
0.7754035800000443
100
AcDbArc
 50
281.0270565352
 51
9.0734294005
  0
ARC
  5
180
330
1F
100
AcDbEntity
  8
0
  6
Continuous
 62
     7
370
    15
100
AcDbCircle
 10
106.7754088798
 20
503.7055744337
 30
0.0
 40
6.279319666210795
100
AcDbArc
 50
170.3850416439
 51
189.0734294005
  0
ARC
  5
181
330
1F
100
AcDbEntity
  8
0
  6
Continuous
 62
     7
370
    15
100
AcDbCircle
 10
107.447423277
 20
503.5917312348
 30
0.0
 40
6.960908709600218
100
AcDbArc
 50
149.6184823437
 51
170.3850416439
  0
ARC
  5
182
330
1F
100
AcDbEntity
  8
0
  6
Continuous
 62
     7
370
    15
100
AcDbCircle
 10
105.7838723036
 20
471.9320988735
 30
0.0
 40
35.44702080000003
100
AcDbArc
 50
94.9648899095
 51
97.0351100905
  0
ARC
  5
183
330
1F
100
AcDbEntity
  8
0
  6
Continuous
 62
     7
370
    15
100
AcDbCircle
 10
97.5742662153
 20
502.5540206122
 30
0.0
 40
6.960908709600012
100
AcDbArc
 50
21.6149583561
 51
42.3815176563
  0
ARC
  5
184
330
1F
100
AcDbEntity
  8
0
  6
Continuous
 62
     7
370
    15
100
AcDbCircle
 10
98.2079261537
 20
502.8050957137
 30
0.0
 40
6.279319666210784
100
AcDbArc
 50
2.9265705995
 51
21.6149583561
  0
ARC
  5
185
330
1F
100
AcDbEntity
  8
0
  6
Continuous
 62
     7
370
    15
100
AcDbCircle
 10
105.2534485423
 20
503.1652822646
 30
0.0
 40
0.7754035800000185
100
AcDbArc
 50
182.9265705995
 51
270.9729434648
  0
ARC
  5
186
330
1F
100
AcDbEntity
  8
0
  6
Continuous
 62
     7
370
    15
100
AcDbCircle
 10
105.7838723036
 20
471.9320988735
 30
0.0
 40
30.46228349999995
100
AcDbArc
 50
89.0270565352
 51
90.9729434648
  0
ARC
  5
187
330
1F
100
AcDbEntity
  8
0
  6
Continuous
 62
     7
370
    15
100
AcDbCircle
 10
106.3142960649
 20
503.1652822646
 30
0.0
 40
0.7754035800000185
100
AcDbArc
 50
269.0270565352
 51
357.0734294005
  0
ARC
  5
188
330
1F
100
AcDbEntity
  8
0
  6
Continuous
 62
     7
370
    15
100
AcDbCircle
 10
113.3598184535
 20
502.8050957137
 30
0.0
 40
6.27931966621079
100
AcDbArc
 50
158.3850416439
 51
177.0734294005
  0
ARC
  5
189
330
1F
100
AcDbEntity
  8
0
  6
Continuous
 62
     7
370
    15
100
AcDbCircle
 10
113.9934783919
 20
502.5540206122
 30
0.0
 40
6.960908709600176
100
AcDbArc
 50
137.6184823437
 51
158.3850416439
  0
ARC
  5
18A
330
1F
100
AcDbEntity
  8
0
  6
Continuous
 62
     7
370
    15
100
AcDbCircle
 10
105.7838723036
 20
471.9320988735
 30
0.0
 40
35.44702080000005
100
AcDbArc
 50
82.9648899095
 51
85.0351100905
  0
ARC
  5
18B
330
1F
100
AcDbEntity
  8
0
  6
Continuous
 62
     7
370
    15
100
AcDbCircle
 10
104.1203213301
 20
503.5917312348
 30
0.0
 40
6.960908709600035
100
AcDbArc
 50
9.6149583561
 51
30.3815176563
  0
ARC
  5
18C
330
1F
100
AcDbEntity
  8
0
  6
Continuous
 62
     7
370
    15
100
AcDbCircle
 10
104.7923357274
 20
503.7055744337
 30
0.0
 40
6.2793196662108
100
AcDbArc
 50
350.9265705995
 51
9.6149583561
  0
ARC
  5
18D
330
1F
100
AcDbEntity
  8
0
  6
Continuous
 62
     7
370
    15
100
AcDbCircle
 10
111.7587835426
 20
502.5930435718
 30
0.0
 40
0.7754035799999911
100
AcDbArc
 50
170.9265705995
 51
258.9729434648
  0
ARC
  5
18E
330
1F
100
AcDbEntity
  8
0
  6
Continuous
 62
     7
370
    15
100
AcDbCircle
 10
105.7838723036
 20
471.9320988735
 30
0.0
 40
30.46228350000002
100
AcDbArc
 50
77.0270565352
 51
78.9729434648
  0
ARC
  5
18F
330
1F
100
AcDbEntity
  8
0
  6
Continuous
 62
     7
370
    15
100
AcDbCircle
 10
112.7964490015
 20
502.3724809697
 30
0.0
 40
0.7754035800000212
100
AcDbArc
 50
257.0270565352
 51
345.0734294005
  0
ARC
  5
190
330
1F
100
AcDbEntity
  8
0
  6
Continuous
 62
     7
370
    15
100
AcDbCircle
 10
119.6131228271
 20
500.5553188866
 30
0.0
 40
6.279319666210834
100
AcDbArc
 50
146.3850416439
 51
165.0734294005
  0
ARC
  5
191
330
1F
100
AcDbEntity
  8
0
  6
Continuous
 62
     7
370
    15
100
AcDbCircle
 10
120.1807343266
 20
500.1779850693
 30
0.0
 40
6.960908709600173
100
AcDbArc
 50
125.6184823437
 51
146.3850416439
  0
ARC
  5
192
330
1F
100
AcDbEntity
  8
0
  6
Continuous
 62
     7
370
    15
100
AcDbCircle
 10
105.7838723036
 20
471.9320988735
 30
0.0
 40
35.4470208
100
AcDbArc
 50
70.9648899095
 51
73.0351100905
  0
ARC
  5
193
330
1F
100
AcDbEntity
  8
0
  6
Continuous
 62
     7
370
    15
100
AcDbCircle
 10
110.7390816051
 20
503.2457640035
 30
0.0
 40
6.960908709600006
100
AcDbArc
 50
357.6149583561
 51
18.3815176563
  0
ARC
  5
194
330
1F
100
AcDbEntity
  8
0
  6
Continuous
 62
     7
370
    15
100
AcDbCircle
 10
111.4200802074
 20
503.2173998058
 30
0.0
 40
6.279319666210837
100
AcDbArc
 50
338.9265705995
 51
357.6149583561
  0
ARC
  5
195
330
1F
100
AcDbEntity
  8
0
  6
Continuous
 62
     7
370
    15
100
AcDbCircle
 10
118.0029862509
 20
500.6807744682
 30
0.0
 40
0.7754035800000719
100
AcDbArc
 50
158.9265705995
 51
246.9729434648
  0
ARC
  5
196
330
1F
100
AcDbEntity
  8
0
  6
Continuous
 62
     7
370
    15
100
AcDbCircle
 10
105.7838723036
 20
471.9320988735
 30
0.0
 40
30.46228349999998
100
AcDbArc
 50
65.0270565352
 51
66.9729434648
  0
ARC
  5
197
330
1F
100
AcDbEntity
  8
0
  6
Continuous
 62
     7
370
    15
100
AcDbCircle
 10
118.9721186864
 20
500.2492889081
 30
0.0
 40
0.7754035799999691
100
AcDbArc
 50
245.0270565352
 51
333.0734294005
  0
ARC
  5
198
330
1F
100
AcDbEntity
  8
0
  6
Continuous
 62
     7
370
    15
100
AcDbCircle
 10
125.2620225926
 20
497.0545699955
 30
0.0
 40
6.279319666210772
100
AcDbArc
 50
134.3850416439
 51
153.0734294005
  0
ARC
  5
199
330
1F
100
AcDbEntity
  8
0
  6
Continuous
 62
     7
370
    15
100
AcDbCircle
 10
125.7387783071
 20
496.5674687608
 30
0.0
 40
6.960908709600143
100
AcDbArc
 50
113.6184823437
 51
134.3850416439
  0
ARC
  5
19A
330
1F
100
AcDbEntity
  8
0
  6
Continuous
 62
     7
370
    15
100
AcDbCircle
 10
105.7838723036
 20
471.9320988735
 30
0.0
 40
35.44702079999997
100
AcDbArc
 50
58.9648899095
 51
61.0351100905
  0
ARC
  5
19B
330
1F
100
AcDbEntity
  8
0
  6
Continuous
 62
     7
370
    15
100
AcDbCircle
 10
117.1412754559
 20
501.5312393463
 30
0.0
 40
6.960908709600022
100
AcDbArc
 50
345.6149583561
 51
6.3815176563
  0
ARC
  5
19C
330
1F
100
AcDbEntity
  8
0
  6
Continuous
 62
     7
370
    15
100
AcDbCircle
 10
117.8014953565
 20
501.3619074036
 30
0.0
 40
6.2793196662108
100
AcDbArc
 50
326.9265705995
 51
345.6149583561
  0
ARC
  5
19D
330
1F
100
AcDbEntity
  8
0
  6
Continuous
 62
     7
370
    15
100
AcDbCircle
 10
123.7131550459
 20
497.5120502897
 30
0.0
 40
0.7754035800000157
100
AcDbArc
 50
146.9265705995
 51
234.9729434648
  0
ARC
  5
19E
330
1F
100
AcDbEntity
  8
0
  6
Continuous
 62
     7
370
    15
100
AcDbCircle
 10
105.7838723036
 20
471.9320988735
 30
0.0
 40
30.46228349999999
100
AcDbArc
 50
53.0270565352
 51
54.9729434648
  0
ARC
  5
19F
330
1F
100
AcDbEntity
  8
0
  6
Continuous
 62
     7
370
    15
100
AcDbCircle
 10
124.5713987201
 20
496.888499761
 30
0.0
 40
0.7754035800000284
100
AcDbArc
 50
233.0270565352
 51
321.0734294005
  0
ARC
  5
1A0
330
1F
100
AcDbEntity
  8
0
  6
Continuous
 62
     7
370
    15
100
AcDbCircle
 10
130.0596337241
 20
492.4558485654
 30
0.0
 40
6.279319666210797
100
AcDbArc
 50
122.3850416439
 51
141.0734294005
  0
ARC
  5
1A1
330
1F
100
AcDbEntity
  8
0
  6
Continuous
 62
     7
370
    15
100
AcDbCircle
 10
130.424697141
 20
491.8802685747
 30
0.0
 40
6.960908709600222
100
AcDbArc
 50
101.6184823437
 51
122.3850416439
  0
ARC
  5
1A2
330
1F
100
AcDbEntity
  8
0
  6
Continuous
 62
     7
370
    15
100
AcDbCircle
 10
105.7838723036
 20
471.9320988735
 30
0.0
 40
35.44702079999999
100
AcDbArc
 50
46.9648899095
 51
49.0351100905
  0
ARC
  5
1A3
330
1F
100
AcDbEntity
  8
0
  6
Continuous
 62
     7
370
    15
100
AcDbCircle
 10
123.04709629
 20
498.5230902181
 30
0.0
 40
6.960908709600015
100
AcDbArc
 50
333.6149583561
 51
354.3815176563
  0
ARC
  5
1A4
330
1F
100
AcDbEntity
  8
0
  6
Continuous
 62
     7
370
    15
100
AcDbCircle
 10
123.6576827113
 20
498.2201911487
 30
0.0
 40
6.279319666210812
100
AcDbArc
 50
314.9265705995
 51
333.6149583561
  0
ARC
  5
1A5
330
1F
100
AcDbEntity
  8
0
  6
Continuous
 62
     7
370
    15
100
AcDbCircle
 10
128.6397281509
 20
493.225359488
 30
0.0
 40
0.7754035799999758
100
AcDbArc
 50
134.9265705995
 51
222.9729434648
  0
ARC
  5
1A6
330
1F
100
AcDbEntity
  8
0
  6
Continuous
 62
     7
370
    15
100
AcDbCircle
 10
105.7838723036
 20
471.9320988735
 30
0.0
 40
30.46228350000001
100
AcDbArc
 50
41.0270565352
 51
42.9729434648
  0
ARC
  5
1A7
330
1F
100
AcDbEntity
  8
0
  6
Continuous
 62
     7
370
    15
100
AcDbCircle
 10
129.3495736969
 20
492.436996141
 30
0.0
 40
0.7754035799999944
100
AcDbArc
 50
221.0270565352
 51
309.0734294005
  0
ARC
  5
1A8
330
1F
100
AcDbEntity
  8
0
  6
Continuous
 62
     7
370
    15
100
AcDbCircle
 10
133.7962775934
 20
486.9601407899
 30
0.0
 40
6.279319666210776
100
AcDbArc
 50
110.3850416439
 51
129.0734294005
  0
ARC
  5
1A9
330
1F
100
AcDbEntity
  8
0
  6
Continuous
 62
     7
370
    15
100
AcDbCircle
 10
134.0336936897
 20
486.3212376507
 30
0.0
 40
6.960908709600163
100
AcDbArc
 50
89.6184823437
 51
110.3850416439
  0
ARC
  5
1AA
330
1F
100
AcDbEntity
  8
0
  6
Continuous
 62
     7
370
    15
100
AcDbCircle
 10
105.7838723036
 20
471.9320988735
 30
0.0
 40
35.44702080000003
100
AcDbArc
 50
34.9648899095
 51
37.0351100905
  0
ARC
  5
1AB
330
1F
100
AcDbEntity
  8
0
  6
Continuous
 62
     7
370
    15
100
AcDbCircle
 10
128.1984313978
 20
494.3527871704
 30
0.0
 40
6.960908709600009
100
AcDbArc
 50
321.6149583561
 51
342.3815176563
  0
ARC
  5
1AC
330
1F
100
AcDbEntity
  8
0
  6
Continuous
 62
     7
370
    15
100
AcDbCircle
 10
128.7326987832
 20
493.9295591171
 30
0.0
 40
6.279319666210776
100
AcDbArc
 50
302.9265705995
 51
321.6149583561
  0
ARC
  5
1AD
330
1F
100
AcDbEntity
  8
0
  6
Continuous
 62
     7
370
    15
100
AcDbCircle
 10
132.5673906807
 20
488.0080510211
 30
0.0
 40
0.77540358
100
AcDbArc
 50
122.9265705995
 51
210.9729434648
  0
ARC
  5
1AE
330
1F
100
AcDbEntity
  8
0
  6
Continuous
 62
     7
370
    15
100
AcDbCircle
 10
105.7838723036
 20
471.9320988735
 30
0.0
 40
30.46228350000001
100
AcDbArc
 50
29.0270565352
 51
30.9729434648
  0
ARC
  5
1AF
330
1F
100
AcDbEntity
  8
0
  6
Continuous
 62
     7
370
    15
100
AcDbCircle
 10
133.097814442
 20
487.089330117
 30
0.0
 40
0.775403580000014
100
AcDbArc
 50
209.0270565352
 51
297.0734294005
  0
ARC
  5
1B0
330
1F
100
AcDbEntity
  8
0
  6
Continuous
 62
     7
370
    15
100
AcDbCircle
 10
136.3086449331
 20
480.80763547
 30
0.0
 40
6.27931966621083
100
AcDbArc
 50
98.3850416439
 51
117.0734294005
  0
ARC
  5
1B1
330
1F
100
AcDbEntity
  8
0
  6
Continuous
 62
     7
370
    15
100
AcDbCircle
 10
136.4080374861
 20
480.1333323153
 30
0.0
 40
6.960908709600191
100
AcDbArc
 50
77.6184823437
 51
98.3850416439
  0
ARC
  5
1B2
330
1F
100
AcDbEntity
  8
0
  6
Continuous
 62
     7
370
    15
100
AcDbCircle
 10
105.7838723036
 20
471.9320988735
 30
0.0
 40
35.44702080000001
100
AcDbArc
 50
22.9648899095
 51
25.0351100905
  0
ARC
  5
1B3
330
1F
100
AcDbEntity
  8
0
  6
Continuous
 62
     7
370
    15
100
AcDbCircle
 10
132.3701427162
 20
489.2025924577
 30
0.0
 40
6.960908709600008
100
AcDbArc
 50
309.6149583561
 51
330.3815176563
  0
ARC
  5
1B4
330
1F
100
AcDbEntity
  8
0
  6
Continuous
 62
     7
370
    15
100
AcDbCircle
 10
132.8047410172
 20
488.6775325174
 30
0.0
 40
6.279319666210772
100
AcDbArc
 50
290.9265705995
 51
309.6149583561
  0
ARC
  5
1B5
330
1F
100
AcDbEntity
  8
0
  6
Continuous
 62
     7
370
    15
100
AcDbCircle
 10
135.3244849359
 20
482.0881463043
 30
0.0
 40
0.7754035799999888
100
AcDbArc
 50
110.9265705995
 51
198.9729434648
  0
ARC
  5
1B6
330
1F
100
AcDbEntity
  8
0
  6
Continuous
 62
     7
370
    15
100
AcDbCircle
 10
105.7838723036
 20
471.9320988735
 30
0.0
 40
30.4622835
100
AcDbArc
 50
17.0270565352
 51
18.9729434648
  0
ARC
  5
1B7
330
1F
100
AcDbEntity
  8
0
  6
Continuous
 62
     7
370
    15
100
AcDbCircle
 10
135.6523048488
 20
481.0792203552
 30
0.0
 40
0.7754035800000184
100
AcDbArc
 50
197.0270565352
 51
285.0734294005
  0
ARC
  5
1B8
330
1F
100
AcDbEntity
  8
0
  6
Continuous
 62
     7
370
    15
100
AcDbCircle
 10
137.4869332348
 20
474.2672266114
 30
0.0
 40
6.279319666210797
100
AcDbArc
 50
86.3850416439
 51
105.0734294005
  0
ARC
  5
1B9
330
1F
100
AcDbEntity
  8
0
  6
Continuous
 62
     7
370
    15
100
AcDbCircle
 10
137.443958313
 20
473.5869937247
 30
0.0
 40
6.960908709600192
100
AcDbArc
 50
65.6184823437
 51
86.3850416439
  0
ARC
  5
1BA
330
1F
100
AcDbEntity
  8
0
  6
Continuous
 62
     7
370
    15
100
AcDbCircle
 10
105.7838723036
 20
471.9320988735
 30
0.0
 40
35.44702080000002
100
AcDbArc
 50
10.9648899095
 51
13.0351100905
  0
ARC
  5
1BB
330
1F
100
AcDbEntity
  8
0
  6
Continuous
 62
     7
370
    15
100
AcDbCircle
 10
135.3799064425
 20
483.2975943023
 30
0.0
 40
6.960908709599989
100
AcDbArc
 50
297.6149583561
 51
318.3815176563
  0
ARC
  5
1BC
330
1F
100
AcDbEntity
  8
0
  6
Continuous
 62
     7
370
    15
100
AcDbCircle
 10
135.6958416279
 20
482.6936501139
 30
0.0
 40
6.2793196662108
100
AcDbArc
 50
278.9265705995
 51
297.6149583561
  0
ARC
  5
1BD
330
1F
100
AcDbEntity
  8
0
  6
Continuous
 62
     7
370
    15
100
AcDbCircle
 10
136.7905126674
 20
475.7243735807
 30
0.0
 40
0.7754035800000426
100
AcDbArc
 50
98.9265705995
 51
186.9729434648
  0
ARC
  5
1BE
330
1F
100
AcDbEntity
  8
0
  6
Continuous
 62
     7
370
    15
100
AcDbCircle
 10
105.7838723036
 20
471.9320988735
 30
0.0
 40
30.46228349999999
100
AcDbArc
 50
5.0270565352
 51
6.9729434648
  0
ARC
  5
1BF
330
1F
100
AcDbEntity
  8
0
  6
Continuous
 62
     7
370
    15
100
AcDbCircle
 10
136.9014014287
 20
474.6693374919
 30
0.0
 40
0.7754035800000236
100
AcDbArc
 50
185.0270565352
 51
273.0734294005
  0
ARC
  5
1C0
330
1F
100
AcDbEntity
  8
0
  6
Continuous
 62
     7
370
    15
100
AcDbCircle
 10
137.2796456456
 20
467.6247614655
 30
0.0
 40
6.279319666210811
100
AcDbArc
 50
74.3850416439
 51
93.0734294005
  0
ARC
  5
1C1
330
1F
100
AcDbEntity
  8
0
  6
Continuous
 62
     7
370
    15
100
AcDbCircle
 10
137.0961814594
 20
466.968328288
 30
0.0
 40
6.960908709600182
100
AcDbArc
 50
53.6184823437
 51
74.3850416439
  0
ARC
  5
1C2
330
1F
100
AcDbEntity
  8
0
  6
Continuous
 62
     7
370
    15
100
AcDbCircle
 10
105.7838723036
 20
471.9320988735
 30
0.0
 40
35.44702080000002
100
AcDbArc
 50
358.9648899095
 51
1.0351100905
  0
ARC
  5
1C3
330
1F
100
AcDbEntity
  8
0
  6
Continuous
 62
     7
370
    15
100
AcDbCircle
 10
137.0961814594
 20
476.895869459
 30
0.0
 40
6.960908709600057
100
AcDbArc
 50
285.6149583561
 51
306.3815176563
  0
ARC
  5
1C4
330
1F
100
AcDbEntity
  8
0
  6
Continuous
 62
     7
370
    15
100
AcDbCircle
 10
137.2796456456
 20
476.2394362816
 30
0.0
 40
6.279319666210839
100
AcDbArc
 50
266.9265705995
 51
285.6149583561
  0
ARC
  5
1C5
330
1F
100
AcDbEntity
  8
0
  6
Continuous
 62
     7
370
    15
100
AcDbCircle
 10
136.9014014287
 20
469.1948602551
 30
0.0
 40
0.7754035800000357
100
AcDbArc
 50
86.9265705995
 51
174.9729434648
  0
ARC
  5
1C6
330
1F
100
AcDbEntity
  8
0
  6
Continuous
 62
     7
370
    15
100
AcDbCircle
 10
105.7838723036
 20
471.9320988735
 30
0.0
 40
30.46228349999997
100
AcDbArc
 50
353.0270565352
 51
354.9729434648
  0
ARC
  5
1C7
330
1F
100
AcDbEntity
  8
0
  6
Continuous
 62
     7
370
    15
100
AcDbCircle
 10
136.7905126674
 20
468.1398241663
 30
0.0
 40
0.7754035800000212
100
AcDbArc
 50
173.0270565352
 51
261.0734294005
  0
ARC
  5
1C8
330
1F
100
AcDbEntity
  8
0
  6
Continuous
 62
     7
370
    15
100
AcDbCircle
 10
135.6958416279
 20
461.1705476331
 30
0.0
 40
6.279319666210788
100
AcDbArc
 50
62.3850416439
 51
81.0734294005
  0
ARC
  5
1C9
330
1F
100
AcDbEntity
  8
0
  6
Continuous
 62
     7
370
    15
100
AcDbCircle
 10
135.3799064425
 20
460.5666034447
 30
0.0
 40
6.960908709600206
100
AcDbArc
 50
41.6184823437
 51
62.3850416439
  0
ARC
  5
1CA
330
1F
100
AcDbEntity
  8
0
  6
Continuous
 62
     7
370
    15
100
AcDbCircle
 10
105.7838723036
 20
471.9320988735
 30
0.0
 40
35.44702080000001
100
AcDbArc
 50
346.9648899095
 51
349.0351100905
  0
ARC
  5
1CB
330
1F
100
AcDbEntity
  8
0
  6
Continuous
 62
     7
370
    15
100
AcDbCircle
 10
137.443958313
 20
470.2772040223
 30
0.0
 40
6.960908709599987
100
AcDbArc
 50
273.6149583561
 51
294.3815176563
  0
ARC
  5
1CC
330
1F
100
AcDbEntity
  8
0
  6
Continuous
 62
     7
370
    15
100
AcDbCircle
 10
137.4869332348
 20
469.5969711356
 30
0.0
 40
6.279319666210769
100
AcDbArc
 50
254.9265705995
 51
273.6149583561
  0
ARC
  5
1CD
330
1F
100
AcDbEntity
  8
0
  6
Continuous
 62
     7
370
    15
100
AcDbCircle
 10
135.6523048488
 20
462.7849773918
 30
0.0
 40
0.7754035799999709
100
AcDbArc
 50
74.9265705995
 51
162.9729434648
  0
ARC
  5
1CE
330
1F
100
AcDbEntity
  8
0
  6
Continuous
 62
     7
370
    15
100
AcDbCircle
 10
105.7838723036
 20
471.9320988735
 30
0.0
 40
30.46228350000001
100
AcDbArc
 50
341.0270565352
 51
342.9729434648
  0
ARC
  5
1CF
330
1F
100
AcDbEntity
  8
0
  6
Continuous
 62
     7
370
    15
100
AcDbCircle
 10
135.3244849359
 20
461.7760514427
 30
0.0
 40
0.7754035800000392
100
AcDbArc
 50
161.0270565352
 51
249.0734294005
  0
ARC
  5
1D0
330
1F
100
AcDbEntity
  8
0
  6
Continuous
 62
     7
370
    15
100
AcDbCircle
 10
132.8047410172
 20
455.1866652296
 30
0.0
 40
6.279319666210791
100
AcDbArc
 50
50.3850416439
 51
69.0734294005
  0
ARC
  5
1D1
330
1F
100
AcDbEntity
  8
0
  6
Continuous
 62
     7
370
    15
100
AcDbCircle
 10
132.3701427162
 20
454.6616052894
 30
0.0
 40
6.960908709600155
100
AcDbArc
 50
29.6184823437
 51
50.3850416439
  0
ARC
  5
1D2
330
1F
100
AcDbEntity
  8
0
  6
Continuous
 62
     7
370
    15
100
AcDbCircle
 10
105.7838723036
 20
471.9320988735
 30
0.0
 40
35.4470208
100
AcDbArc
 50
334.9648899095
 51
337.0351100905
  0
ARC
  5
1D3
330
1F
100
AcDbEntity
  8
0
  6
Continuous
 62
     7
370
    15
100
AcDbCircle
 10
136.4080374861
 20
463.7308654317
 30
0.0
 40
6.96090870959996
100
AcDbArc
 50
261.6149583561
 51
282.3815176563
  0
ARC
  5
1D4
330
1F
100
AcDbEntity
  8
0
  6
Continuous
 62
     7
370
    15
100
AcDbCircle
 10
136.3086449331
 20
463.056562277
 30
0.0
 40
6.279319666210805
100
AcDbArc
 50
242.9265705995
 51
261.6149583561
  0
ARC
  5
1D5
330
1F
100
AcDbEntity
  8
0
  6
Continuous
 62
     7
370
    15
100
AcDbCircle
 10
133.097814442
 20
456.77486763
 30
0.0
 40
0.7754035799999891
100
AcDbArc
 50
62.9265705995
 51
150.9729434648
  0
ARC
  5
1D6
330
1F
100
AcDbEntity
  8
0
  6
Continuous
 62
     7
370
    15
100
AcDbCircle
 10
105.7838723036
 20
471.9320988735
 30
0.0
 40
30.46228350000001
100
AcDbArc
 50
329.0270565352
 51
330.9729434648
  0
ARC
  5
1D7
330
1F
100
AcDbEntity
  8
0
  6
Continuous
 62
     7
370
    15
100
AcDbCircle
 10
132.5673906807
 20
455.8561467259
 30
0.0
 40
0.7754035800000477
100
AcDbArc
 50
149.0270565352
 51
237.0734294005
  0
ARC
  5
1D8
330
1F
100
AcDbEntity
  8
0
  6
Continuous
 62
     7
370
    15
100
AcDbCircle
 10
128.7326987832
 20
449.9346386299
 30
0.0
 40
6.279319666210785
100
AcDbArc
 50
38.3850416439
 51
57.0734294005
  0
ARC
  5
1D9
330
1F
100
AcDbEntity
  8
0
  6
Continuous
 62
     7
370
    15
100
AcDbCircle
 10
128.1984313978
 20
449.5114105767
 30
0.0
 40
6.960908709600218
100
AcDbArc
 50
17.6184823437
 51
38.3850416439
  0
ARC
  5
1DA
330
1F
100
AcDbEntity
  8
0
  6
Continuous
 62
     7
370
    15
100
AcDbCircle
 10
105.7838723036
 20
471.9320988735
 30
0.0
 40
35.4470208
100
AcDbArc
 50
322.9648899095
 51
325.0351100905
  0
ARC
  5
1DB
330
1F
100
AcDbEntity
  8
0
  6
Continuous
 62
     7
370
    15
100
AcDbCircle
 10
134.0336936897
 20
457.5429600964
 30
0.0
 40
6.960908709600033
100
AcDbArc
 50
249.6149583561
 51
270.3815176563
  0
ARC
  5
1DC
330
1F
100
AcDbEntity
  8
0
  6
Continuous
 62
     7
370
    15
100
AcDbCircle
 10
133.7962775934
 20
456.9040569572
 30
0.0
 40
6.279319666210849
100
AcDbArc
 50
230.9265705995
 51
249.6149583561
  0
ARC
  5
1DD
330
1F
100
AcDbEntity
  8
0
  6
Continuous
 62
     7
370
    15
100
AcDbCircle
 10
129.3495736969
 20
451.427201606
 30
0.0
 40
0.7754035800000103
100
AcDbArc
 50
50.9265705995
 51
138.9729434648
  0
ARC
  5
1DE
330
1F
100
AcDbEntity
  8
0
  6
Continuous
 62
     7
370
    15
100
AcDbCircle
 10
105.7838723036
 20
471.9320988735
 30
0.0
 40
30.46228349999999
100
AcDbArc
 50
317.0270565352
 51
318.9729434648
  0
ARC
  5
1DF
330
1F
100
AcDbEntity
  8
0
  6
Continuous
 62
     7
370
    15
100
AcDbCircle
 10
128.6397281509
 20
450.638838259
 30
0.0
 40
0.7754035799999923
100
AcDbArc
 50
137.0270565352
 51
225.0734294005
  0
ARC
  5
1E0
330
1F
100
AcDbEntity
  8
0
  6
Continuous
 62
     7
370
    15
100
AcDbCircle
 10
123.6576827113
 20
445.6440065983
 30
0.0
 40
6.279319666210801
100
AcDbArc
 50
26.3850416439
 51
45.0734294005
  0
ARC
  5
1E1
330
1F
100
AcDbEntity
  8
0
  6
Continuous
 62
     7
370
    15
100
AcDbCircle
 10
123.04709629
 20
445.3411075289
 30
0.0
 40
6.960908709600213
100
AcDbArc
 50
5.6184823437
 51
26.3850416439
  0
ARC
  5
1E2
330
1F
100
AcDbEntity
  8
0
  6
Continuous
 62
     7
370
    15
100
AcDbCircle
 10
105.7838723036
 20
471.9320988735
 30
0.0
 40
35.4470208
100
AcDbArc
 50
310.9648899095
 51
313.0351100905
  0
ARC
  5
1E3
330
1F
100
AcDbEntity
  8
0
  6
Continuous
 62
     7
370
    15
100
AcDbCircle
 10
130.424697141
 20
451.9839291723
 30
0.0
 40
6.960908709599996
100
AcDbArc
 50
237.6149583561
 51
258.3815176563
  0
ARC
  5
1E4
330
1F
100
AcDbEntity
  8
0
  6
Continuous
 62
     7
370
    15
100
AcDbCircle
 10
130.0596337241
 20
451.4083491816
 30
0.0
 40
6.279319666210776
100
AcDbArc
 50
218.9265705995
 51
237.6149583561
  0
ARC
  5
1E5
330
1F
100
AcDbEntity
  8
0
  6
Continuous
 62
     7
370
    15
100
AcDbCircle
 10
124.5713987201
 20
446.975697986
 30
0.0
 40
0.7754035800000173
100
AcDbArc
 50
38.9265705995
 51
126.9729434648
  0
ARC
  5
1E6
330
1F
100
AcDbEntity
  8
0
  6
Continuous
 62
     7
370
    15
100
AcDbCircle
 10
105.7838723036
 20
471.9320988735
 30
0.0
 40
30.46228350000001
100
AcDbArc
 50
305.0270565352
 51
306.9729434648
  0
ARC
  5
1E7
330
1F
100
AcDbEntity
  8
0
  6
Continuous
 62
     7
370
    15
100
AcDbCircle
 10
123.7131550459
 20
446.3521474574
 30
0.0
 40
0.7754035800000239
100
AcDbArc
 50
125.0270565352
 51
213.0734294005
  0
ARC
  5
1E8
330
1F
100
AcDbEntity
  8
0
  6
Continuous
 62
     7
370
    15
100
AcDbCircle
 10
117.8014953565
 20
442.5022903435
 30
0.0
 40
6.279319666210808
100
AcDbArc
 50
14.3850416439
 51
33.0734294005
  0
ARC
  5
1E9
330
1F
100
AcDbEntity
  8
0
  6
Continuous
 62
     7
370
    15
100
AcDbCircle
 10
117.1412754559
 20
442.3329584007
 30
0.0
 40
6.960908709600206
100
AcDbArc
 50
353.6184823437
 51
14.3850416439
  0
ARC
  5
1EA
330
1F
100
AcDbEntity
  8
0
  6
Continuous
 62
     7
370
    15
100
AcDbCircle
 10
105.7838723036
 20
471.9320988735
 30
0.0
 40
35.44702080000002
100
AcDbArc
 50
298.9648899095
 51
301.0351100905
  0
ARC
  5
1EB
330
1F
100
AcDbEntity
  8
0
  6
Continuous
 62
     7
370
    15
100
AcDbCircle
 10
125.7387783071
 20
447.2967289862
 30
0.0
 40
6.960908709599981
100
AcDbArc
 50
225.6149583561
 51
246.3815176563
  0
ARC
  5
1EC
330
1F
100
AcDbEntity
  8
0
  6
Continuous
 62
     7
370
    15
100
AcDbCircle
 10
125.2620225926
 20
446.8096277515
 30
0.0
 40
6.279319666210772
100
AcDbArc
 50
206.9265705995
 51
225.6149583561
  0
ARC
  5
1ED
330
1F
100
AcDbEntity
  8
0
  6
Continuous
 62
     7
370
    15
100
AcDbCircle
 10
118.9721186864
 20
443.6149088389
 30
0.0
 40
0.7754035800000075
100
AcDbArc
 50
26.9265705995
 51
114.9729434648
  0
ARC
  5
1EE
330
1F
100
AcDbEntity
  8
0
  6
Continuous
 62
     7
370
    15
100
AcDbCircle
 10
105.7838723036
 20
471.9320988735
 30
0.0
 40
30.46228349999998
100
AcDbArc
 50
293.0270565352
 51
294.9729434648
  0
ARC
  5
1EF
330
1F
100
AcDbEntity
  8
0
  6
Continuous
 62
     7
370
    15
100
AcDbCircle
 10
118.0029862509
 20
443.1834232788
 30
0.0
 40
0.7754035800000252
100
AcDbArc
 50
113.0270565352
 51
201.0734294005
  0
ARC
  5
1F0
330
1F
100
AcDbEntity
  8
0
  6
Continuous
 62
     7
370
    15
100
AcDbCircle
 10
111.4200802074
 20
440.6467979412
 30
0.0
 40
6.279319666210783
100
AcDbArc
 50
2.3850416439
 51
21.0734294005
  0
ARC
  5
1F1
330
1F
100
AcDbEntity
  8
0
  6
Continuous
 62
     7
370
    15
100
AcDbCircle
 10
110.7390816051
 20
440.6184337436
 30
0.0
 40
6.960908709600209
100
AcDbArc
 50
341.6184823437
 51
2.3850416439
  0
ARC
  5
1F2
330
1F
100
AcDbEntity
  8
0
  6
Continuous
 62
     7
370
    15
100
AcDbCircle
 10
105.7838723036
 20
471.9320988735
 30
0.0
 40
35.44702080000003
100
AcDbArc
 50
286.9648899095
 51
289.0351100905
  0
ARC
  5
1F3
330
1F
100
AcDbEntity
  8
0
  6
Continuous
 62
     7
370
    15
100
AcDbCircle
 10
120.1807343266
 20
443.6862126777
 30
0.0
 40
6.960908709599965
100
AcDbArc
 50
213.6149583561
 51
234.3815176563
  0
ARC
  5
1F4
330
1F
100
AcDbEntity
  8
0
  6
Continuous
 62
     7
370
    15
100
AcDbCircle
 10
119.6131228271
 20
443.3088788604
 30
0.0
 40
6.279319666210772
100
AcDbArc
 50
194.9265705995
 51
213.6149583561
  0
ARC
  5
1F5
330
1F
100
AcDbEntity
  8
0
  6
Continuous
 62
     7
370
    15
100
AcDbCircle
 10
112.7964490015
 20
441.4917167773
 30
0.0
 40
0.7754035800000212
100
AcDbArc
 50
14.9265705995
 51
102.9729434648
  0
ARC
  5
1F6
330
1F
100
AcDbEntity
  8
0
  6
Continuous
 62
     7
370
    15
100
AcDbCircle
 10
105.7838723036
 20
471.9320988735
 30
0.0
 40
30.46228349999999
100
AcDbArc
 50
281.0270565352
 51
282.9729434648
  0
ARC
  5
1F7
330
1F
100
AcDbEntity
  8
0
  6
Continuous
 62
     7
370
    15
100
AcDbCircle
 10
111.7587835426
 20
441.2711541752
 30
0.0
 40
0.7754035800000051
100
AcDbArc
 50
101.0270565352
 51
189.0734294005
  0
ARC
  5
1F8
330
1F
100
AcDbEntity
  8
0
  6
Continuous
 62
     7
370
    15
100
AcDbCircle
 10
104.7923357274
 20
440.1586233133
 30
0.0
 40
6.279319666210795
100
AcDbArc
 50
350.3850416439
 51
9.0734294005
  0
ARC
  5
1F9
330
1F
100
AcDbEntity
  8
0
  6
Continuous
 62
     7
370
    15
100
AcDbCircle
 10
104.1203213301
 20
440.2724665122
 30
0.0
 40
6.960908709600194
100
AcDbArc
 50
329.6184823437
 51
350.3850416439
  0
ARC
  5
1FA
330
1F
100
AcDbEntity
  8
0
  6
Continuous
 62
     7
370
    15
100
AcDbCircle
 10
105.7838723036
 20
471.9320988735
 30
0.0
 40
35.4470208
100
AcDbArc
 50
274.9648899095
 51
277.0351100905
  0
ARC
  5
1FB
330
1F
100
AcDbEntity
  8
0
  6
Continuous
 62
     7
370
    15
100
AcDbCircle
 10
113.9934783919
 20
441.3101771349
 30
0.0
 40
6.960908709599984
100
AcDbArc
 50
201.6149583561
 51
222.3815176563
  0
ARC
  5
1FC
330
1F
100
AcDbEntity
  8
0
  6
Continuous
 62
     7
370
    15
100
AcDbCircle
 10
113.3598184535
 20
441.0591020334
 30
0.0
 40
6.279319666210784
100
AcDbArc
 50
182.9265705995
 51
201.6149583561
  0
ARC
  5
1FD
330
1F
100
AcDbEntity
  8
0
  6
Continuous
 62
     7
370
    15
100
AcDbCircle
 10
106.3142960648
 20
440.6989154824
 30
0.0
 40
0.775403580000075
100
AcDbArc
 50
2.9265705995
 51
90.9729434648
  0
ARC
  5
1FE
330
1F
100
AcDbEntity
  8
0
  6
Continuous
 62
     7
370
    15
100
AcDbCircle
 10
105.7838723036
 20
471.9320988735
 30
0.0
 40
30.46228349999995
100
AcDbArc
 50
269.0270565352
 51
270.9729434648
  0
ARC
  5
1FF
330
1F
100
AcDbEntity
  8
0
  6
Continuous
 62
     7
370
    15
100
AcDbCircle
 10
105.2534485423
 20
440.6989154824
 30
0.0
 40
0.7754035800000756
100
AcDbArc
 50
89.0270565352
 51
177.0734294005
  0
ARC
  5
200
330
1F
100
AcDbEntity
  8
0
  6
Continuous
 62
     7
370
    15
100
AcDbCircle
 10
98.2079261537
 20
441.0591020334
 30
0.0
 40
6.279319666210776
100
AcDbArc
 50
338.3850416439
 51
357.0734294005
  0
ARC
  5
201
330
1F
100
AcDbEntity
  8
0
  6
Continuous
 62
     7
370
    15
100
AcDbCircle
 10
97.5742662153
 20
441.3101771349
 30
0.0
 40
6.960908709600203
100
AcDbArc
 50
317.6184823437
 51
338.3850416439
  0
ARC
  5
202
330
1F
100
AcDbEntity
  8
0
  6
Continuous
 62
     7
370
    15
100
AcDbCircle
 10
105.7838723036
 20
471.9320988735
 30
0.0
 40
35.4470208
100
AcDbArc
 50
262.9648899095
 51
265.0351100905
  0
ARC
  5
203
330
1F
100
AcDbEntity
  8
0
  6
Continuous
 62
     7
370
    15
100
AcDbCircle
 10
107.447423277
 20
440.2724665122
 30
0.0
 40
6.960908709599986
100
AcDbArc
 50
189.6149583561
 51
210.3815176563
  0
ARC
  5
204
330
1F
100
AcDbEntity
  8
0
  6
Continuous
 62
     7
370
    15
100
AcDbCircle
 10
106.7754088798
 20
440.1586233133
 30
0.0
 40
6.279319666210814
100
AcDbArc
 50
170.9265705995
 51
189.6149583561
  0
ARC
  5
205
330
1F
100
AcDbEntity
  8
0
  6
Continuous
 62
     7
370
    15
100
AcDbCircle
 10
99.8089610646
 20
441.2711541752
 30
0.0
 40
0.7754035799999912
100
AcDbArc
 50
350.9265705995
 51
78.9729434648
  0
ARC
  5
206
330
1F
100
AcDbEntity
  8
0
  6
Continuous
 62
     7
370
    15
100
AcDbCircle
 10
105.7838723036
 20
471.9320988735
 30
0.0
 40
30.46228350000001
100
AcDbArc
 50
257.0270565352
 51
258.9729434648
  0
ARC
  5
207
330
1F
100
AcDbEntity
  8
0
  6
Continuous
 62
     7
370
    15
100
AcDbCircle
 10
98.7712956057
 20
441.4917167773
 30
0.0
 40
0.7754035799999938
100
AcDbArc
 50
77.0270565352
 51
165.0734294005
  0
ARC
  5
208
330
1F
100
AcDbEntity
  8
0
  6
Continuous
 62
     7
370
    15
100
AcDbCircle
 10
91.9546217801
 20
443.3088788604
 30
0.0
 40
6.279319666210801
100
AcDbArc
 50
326.3850416439
 51
345.0734294005
  0
ARC
  5
209
330
1F
100
AcDbEntity
  8
0
  6
Continuous
 62
     7
370
    15
100
AcDbCircle
 10
91.3870102806
 20
443.6862126777
 30
0.0
 40
6.96090870960018
100
AcDbArc
 50
305.6184823437
 51
326.3850416439
  0
ARC
  5
20A
330
1F
100
AcDbEntity
  8
0
  6
Continuous
 62
     7
370
    15
100
AcDbCircle
 10
105.7838723036
 20
471.9320988735
 30
0.0
 40
35.44702080000003
100
AcDbArc
 50
250.9648899095
 51
253.0351100905
  0
ARC
  5
20B
330
1F
100
AcDbEntity
  8
0
  6
Continuous
 62
     7
370
    15
100
AcDbCircle
 10
100.8286630021
 20
440.6184337436
 30
0.0
 40
6.960908709599995
100
AcDbArc
 50
177.6149583561
 51
198.3815176563
  0
ARC
  5
20C
330
1F
100
AcDbEntity
  8
0
  6
Continuous
 62
     7
370
    15
100
AcDbCircle
 10
100.1476643997
 20
440.6467979412
 30
0.0
 40
6.27931966621081
100
AcDbArc
 50
158.9265705995
 51
177.6149583561
  0
ARC
  5
20D
330
1F
100
AcDbEntity
  8
0
  6
Continuous
 62
     7
370
    15
100
AcDbCircle
 10
93.5647583563
 20
443.1834232788
 30
0.0
 40
0.7754035800000252
100
AcDbArc
 50
338.9265705995
 51
66.9729434648
  0
ARC
  5
20E
330
1F
100
AcDbEntity
  8
0
  6
Continuous
 62
     7
370
    15
100
AcDbCircle
 10
105.7838723036
 20
471.9320988735
 30
0.0
 40
30.46228350000001
100
AcDbArc
 50
245.0270565352
 51
246.9729434648
  0
ARC
  5
20F
330
1F
100
AcDbEntity
  8
0
  6
Continuous
 62
     7
370
    15
100
AcDbCircle
 10
92.5956259208
 20
443.6149088389
 30
0.0
 40
0.7754035800000075
100
AcDbArc
 50
65.0270565352
 51
153.0734294005
  0
ARC
  5
210
330
1F
100
AcDbEntity
  8
0
  6
Continuous
 62
     7
370
    15
100
AcDbCircle
 10
86.3057220145
 20
446.8096277515
 30
0.0
 40
6.279319666210785
100
AcDbArc
 50
314.3850416439
 51
333.0734294005
  0
ARC
  5
211
330
1F
100
AcDbEntity
  8
0
  6
Continuous
 62
     7
370
    15
100
AcDbCircle
 10
85.8289663001
 20
447.2967289862
 30
0.0
 40
6.960908709600186
100
AcDbArc
 50
293.6184823437
 51
314.3850416439
  0
ARC
  5
212
330
1F
100
AcDbEntity
  8
0
  6
Continuous
 62
     7
370
    15
100
AcDbCircle
 10
105.7838723036
 20
471.9320988735
 30
0.0
 40
35.44702080000002
100
AcDbArc
 50
238.9648899095
 51
241.0351100905
  0
ARC
  5
213
330
1F
100
AcDbEntity
  8
0
  6
Continuous
 62
     7
370
    15
100
AcDbCircle
 10
94.4264691513
 20
442.3329584007
 30
0.0
 40
6.960908709600008
100
AcDbArc
 50
165.6149583561
 51
186.3815176563
  0
ARC
  5
214
330
1F
100
AcDbEntity
  8
0
  6
Continuous
 62
     7
370
    15
100
AcDbCircle
 10
93.7662492506
 20
442.5022903435
 30
0.0
 40
6.2793196662108
100
AcDbArc
 50
146.9265705995
 51
165.6149583561
  0
ARC
  5
215
330
1F
100
AcDbEntity
  8
0
  6
Continuous
 62
     7
370
    15
100
AcDbCircle
 10
87.8545895612
 20
446.3521474574
 30
0.0
 40
0.7754035800000239
100
AcDbArc
 50
326.9265705995
 51
54.9729434648
  0
ARC
  5
216
330
1F
100
AcDbEntity
  8
0
  6
Continuous
 62
     7
370
    15
100
AcDbCircle
 10
105.7838723036
 20
471.9320988735
 30
0.0
 40
30.46228350000001
100
AcDbArc
 50
233.0270565352
 51
234.9729434648
  0
ARC
  5
217
330
1F
100
AcDbEntity
  8
0
  6
Continuous
 62
     7
370
    15
100
AcDbCircle
 10
86.9963458871
 20
446.975697986
 30
0.0
 40
0.7754035800000063
100
AcDbArc
 50
53.0270565352
 51
141.0734294005
  0
ARC
  5
218
330
1F
100
AcDbEntity
  8
0
  6
Continuous
 62
     7
370
    15
100
AcDbCircle
 10
81.5081108831
 20
451.4083491816
 30
0.0
 40
6.279319666210826
100
AcDbArc
 50
302.3850416439
 51
321.0734294005
  0
ARC
  5
219
330
1F
100
AcDbEntity
  8
0
  6
Continuous
 62
     7
370
    15
100
AcDbCircle
 10
81.1430474662
 20
451.9839291723
 30
0.0
 40
6.960908709600208
100
AcDbArc
 50
281.6184823437
 51
302.3850416439
  0
ARC
  5
21A
330
1F
100
AcDbEntity
  8
0
  6
Continuous
 62
     7
370
    15
100
AcDbCircle
 10
105.7838723036
 20
471.9320988735
 30
0.0
 40
35.4470208
100
AcDbArc
 50
226.9648899095
 51
229.0351100905
  0
ARC
  5
21B
330
1F
100
AcDbEntity
  8
0
  6
Continuous
 62
     7
370
    15
100
AcDbCircle
 10
88.5206483172
 20
445.3411075289
 30
0.0
 40
6.960908709600012
100
AcDbArc
 50
153.6149583561
 51
174.3815176563
  0
ARC
  5
21C
330
1F
100
AcDbEntity
  8
0
  6
Continuous
 62
     7
370
    15
100
AcDbCircle
 10
87.9100618959
 20
445.6440065983
 30
0.0
 40
6.279319666210795
100
AcDbArc
 50
134.9265705995
 51
153.6149583561
  0
ARC
  5
21D
330
1F
100
AcDbEntity
  8
0
  6
Continuous
 62
     7
370
    15
100
AcDbCircle
 10
82.9280164563
 20
450.638838259
 30
0.0
 40
0.7754035799999923
100
AcDbArc
 50
314.9265705995
 51
42.9729434648
  0
ARC
  5
21E
330
1F
100
AcDbEntity
  8
0
  6
Continuous
 62
     7
370
    15
100
AcDbCircle
 10
105.7838723036
 20
471.9320988735
 30
0.0
 40
30.46228350000001
100
AcDbArc
 50
221.0270565352
 51
222.9729434648
  0
ARC
  5
21F
330
1F
100
AcDbEntity
  8
0
  6
Continuous
 62
     7
370
    15
100
AcDbCircle
 10
82.2181709103
 20
451.427201606
 30
0.0
 40
0.7754035800000069
100
AcDbArc
 50
41.0270565352
 51
129.0734294005
  0
ARC
  5
220
330
1F
100
AcDbEntity
  8
0
  6
Continuous
 62
     7
370
    15
100
AcDbCircle
 10
77.7714670138
 20
456.9040569572
 30
0.0
 40
6.279319666210781
100
AcDbArc
 50
290.3850416439
 51
309.0734294005
  0
ARC
  5
221
330
1F
100
AcDbEntity
  8
0
  6
Continuous
 62
     7
370
    15
100
AcDbCircle
 10
77.5340509175
 20
457.5429600964
 30
0.0
 40
6.960908709600198
100
AcDbArc
 50
269.6184823437
 51
290.3850416439
  0
ARC
  5
222
330
1F
100
AcDbEntity
  8
0
  6
Continuous
 62
     7
370
    15
100
AcDbCircle
 10
105.7838723036
 20
471.9320988735
 30
0.0
 40
35.44702080000001
100
AcDbArc
 50
214.9648899095
 51
217.0351100905
  0
ARC
  5
223
330
1F
100
AcDbEntity
  8
0
  6
Continuous
 62
     7
370
    15
100
AcDbCircle
 10
83.3693132094
 20
449.5114105767
 30
0.0
 40
6.960908709600011
100
AcDbArc
 50
141.6149583561
 51
162.3815176563
  0
ARC
  5
224
330
1F
100
AcDbEntity
  8
0
  6
Continuous
 62
     7
370
    15
100
AcDbCircle
 10
82.835045824
 20
449.9346386299
 30
0.0
 40
6.279319666210825
100
AcDbArc
 50
122.9265705995
 51
141.6149583561
  0
ARC
  5
225
330
1F
100
AcDbEntity
  8
0
  6
Continuous
 62
     7
370
    15
100
AcDbCircle
 10
79.0003539265
 20
455.8561467259
 30
0.0
 40
0.77540358
100
AcDbArc
 50
302.9265705995
 51
30.9729434648
  0
ARC
  5
226
330
1F
100
AcDbEntity
  8
0
  6
Continuous
 62
     7
370
    15
100
AcDbCircle
 10
105.7838723036
 20
471.9320988735
 30
0.0
 40
30.46228350000002
100
AcDbArc
 50
209.0270565352
 51
210.9729434648
  0
ARC
  5
227
330
1F
100
AcDbEntity
  8
0
  6
Continuous
 62
     7
370
    15
100
AcDbCircle
 10
78.4699301652
 20
456.77486763
 30
0.0
 40
0.7754035800000016
100
AcDbArc
 50
29.0270565352
 51
117.0734294005
  0
ARC
  5
228
330
1F
100
AcDbEntity
  8
0
  6
Continuous
 62
     7
370
    15
100
AcDbCircle
 10
75.2590996741
 20
463.056562277
 30
0.0
 40
6.279319666210816
100
AcDbArc
 50
278.3850416439
 51
297.0734294005
  0
ARC
  5
229
330
1F
100
AcDbEntity
  8
0
  6
Continuous
 62
     7
370
    15
100
AcDbCircle
 10
75.1597071211
 20
463.7308654317
 30
0.0
 40
6.960908709600223
100
AcDbArc
 50
257.6184823437
 51
278.3850416439
  0
ARC
  5
22A
330
1F
100
AcDbEntity
  8
0
  6
Continuous
 62
     7
370
    15
100
AcDbCircle
 10
105.7838723036
 20
471.9320988735
 30
0.0
 40
35.44702080000001
100
AcDbArc
 50
202.9648899095
 51
205.0351100905
  0
ARC
  5
22B
330
1F
100
AcDbEntity
  8
0
  6
Continuous
 62
     7
370
    15
100
AcDbCircle
 10
79.197601891
 20
454.6616052894
 30
0.0
 40
6.960908709600029
100
AcDbArc
 50
129.6149583561
 51
150.3815176563
  0
LINE
  5
22C
330
1F
100
AcDbEntity
  8
0
  6
Continuous
 62
     7
370
    15
100
AcDbLine
 10
103.6205355536
 20
405.9449590284
 30
0.0
 11
103.6205355536
 21
380.5449590284
 31
0.0
  0
LINE
  5
22D
330
1F
100
AcDbEntity
  8
0
  6
Continuous
 62
     7
370
    15
100
AcDbLine
 10
97.7705355536
 20
380.5449590284
 30
0.0
 11
103.6205355536
 21
380.5449590284
 31
0.0
  0
LINE
  5
22E
330
1F
100
AcDbEntity
  8
0
  6
Continuous
 62
     7
370
    15
100
AcDbLine
 10
97.7705355536
 20
380.5449590284
 30
0.0
 11
97.7705355536
 21
366.8449590284
 31
0.0
  0
LINE
  5
22F
330
1F
100
AcDbEntity
  8
0
  6
Continuous
 62
     7
370
    15
100
AcDbLine
 10
97.7705355536
 20
366.8449590284
 30
0.0
 11
69.7538688869
 21
366.8449590284
 31
0.0
  0
LINE
  5
230
330
1F
100
AcDbEntity
  8
0
  6
Continuous
 62
     7
370
    15
100
AcDbLine
 10
69.7538688869
 20
366.8449590284
 30
0.0
 11
69.7538688869
 21
355.1449590284
 31
0.0
  0
LINE
  5
231
330
1F
100
AcDbEntity
  8
0
  6
Continuous
 62
     7
370
    15
100
AcDbLine
 10
69.7538688869
 20
355.1449590284
 30
0.0
 11
35.8872022202
 21
355.1449590284
 31
0.0
  0
LINE
  5
232
330
1F
100
AcDbEntity
  8
0
  6
Continuous
 62
     7
370
    15
100
AcDbLine
 10
35.8872022202
 20
366.8449590284
 30
0.0
 11
35.8872022202
 21
355.1449590284
 31
0.0
  0
LINE
  5
233
330
1F
100
AcDbEntity
  8
0
  6
Continuous
 62
     7
370
    15
100
AcDbLine
 10
35.8872022202
 20
366.8449590284
 30
0.0
 11
7.8705355536
 21
366.8449590284
 31
0.0
  0
LINE
  5
234
330
1F
100
AcDbEntity
  8
0
  6
Continuous
 62
     7
370
    15
100
AcDbLine
 10
7.8705355536
 20
380.5449590284
 30
0.0
 11
7.8705355536
 21
366.8449590284
 31
0.0
  0
LINE
  5
235
330
1F
100
AcDbEntity
  8
0
  6
Continuous
 62
     7
370
    15
100
AcDbLine
 10
2.0205355536
 20
380.5449590284
 30
0.0
 11
7.8705355536
 21
380.5449590284
 31
0.0
  0
LINE
  5
236
330
1F
100
AcDbEntity
  8
0
  6
Continuous
 62
     7
370
    15
100
AcDbLine
 10
2.0205355536
 20
380.5449590284
 30
0.0
 11
2.0205355536
 21
405.9449590284
 31
0.0
  0
LINE
  5
237
330
1F
100
AcDbEntity
  8
0
  6
Continuous
 62
     7
370
    15
100
AcDbLine
 10
2.0205355536
 20
405.9449590284
 30
0.0
 11
7.8705355536
 21
405.9449590284
 31
0.0
  0
LINE
  5
238
330
1F
100
AcDbEntity
  8
0
  6
Continuous
 62
     7
370
    15
100
AcDbLine
 10
7.8705355536
 20
431.3449590284
 30
0.0
 11
7.8705355536
 21
405.9449590284
 31
0.0
  0
LINE
  5
239
330
1F
100
AcDbEntity
  8
0
  6
Continuous
 62
     7
370
    15
100
AcDbLine
 10
7.8705355536
 20
431.3449590284
 30
0.0
 11
30.7974159238
 21
431.3449590284
 31
0.0
  0
LINE
  5
23A
330
1F
100
AcDbEntity
  8
0
  6
Continuous
 62
     7
370
    15
100
AcDbLine
 10
30.7974159238
 20
431.3449590284
 30
0.0
 11
30.7974159238
 21
456.7449590284
 31
0.0
  0
LINE
  5
23B
330
1F
100
AcDbEntity
  8
0
  6
Continuous
 62
     7
370
    15
100
AcDbLine
 10
30.7974159238
 20
456.7449590284
 30
0.0
 11
72.2728630086
 21
456.7449590284
 31
0.0
  0
LINE
  5
23C
330
1F
100
AcDbEntity
  8
0
  6
Continuous
 62
     7
370
    15
100
AcDbLine
 10
72.2728630086
 20
456.7449590284
 30
0.0
 11
72.2728630086
 21
431.3449590284
 31
0.0
  0
LINE
  5
23D
330
1F
100
AcDbEntity
  8
0
  6
Continuous
 62
     7
370
    15
100
AcDbLine
 10
72.2728630086
 20
431.3449590284
 30
0.0
 11
97.7705355536
 21
431.3449590284
 31
0.0
  0
LINE
  5
23E
330
1F
100
AcDbEntity
  8
0
  6
Continuous
 62
     7
370
    15
100
AcDbLine
 10
97.7705355536
 20
431.3449590284
 30
0.0
 11
97.7705355536
 21
405.9449590284
 31
0.0
  0
LINE
  5
23F
330
1F
100
AcDbEntity
  8
0
  6
Continuous
 62
     7
370
    15
100
AcDbLine
 10
97.7705355536
 20
405.9449590284
 30
0.0
 11
103.6205355536
 21
405.9449590284
 31
0.0
  0
CIRCLE
  5
240
330
1F
100
AcDbEntity
  8
0
  6
Continuous
 62
     7
370
    15
100
AcDbCircle
 10
134.6891088774
 20
300.3122064097
 30
0.0
 40
4.635000000000048
  0
LINE
  5
241
330
1F
100
AcDbEntity
  8
0
  6
Continuous
 62
     7
370
    15
100
AcDbLine
 10
2.3551894774
 20
345.2622064097
 30
0.0
 11
21.4218781253
 21
345.2622064097
 31
0.0
  0
LINE
  5
242
330
1F
100
AcDbEntity
  8
0
  6
Continuous
 62
     7
370
    15
100
AcDbLine
 10
21.4218781253
 20
351.1122064097
 30
0.0
 11
21.4218781253
 21
345.2622064097
 31
0.0
  0
ARC
  5
243
330
1F
100
AcDbEntity
  8
0
  6
Continuous
 62
     7
370
    15
100
AcDbCircle
 10
23.864364142
 20
322.3122064097
 30
0.0
 40
10.0
100
AcDbArc
 50
90.0
 51
180.0
  0
ARC
  5
244
330
1F
100
AcDbEntity
  8
0
  6
Continuous
 62
     7
370
    15
100
AcDbCircle
 10
23.864364142
 20
278.3122064097
 30
0.0
 40
10.0
100
AcDbArc
 50
180.0
 51
270.0
  0
ARC
  5
245
330
1F
100
AcDbEntity
  8
0
  6
Continuous
 62
     7
370
    15
100
AcDbCircle
 10
67.864364142
 20
278.3122064097
 30
0.0
 40
9.999999999999986
100
AcDbArc
 50
270.0
 51
0.0
  0
ARC
  5
246
330
1F
100
AcDbEntity
  8
0
  6
Continuous
 62
     7
370
    15
100
AcDbCircle
 10
67.864364142
 20
322.3122064097
 30
0.0
 40
9.999999999999986
100
AcDbArc
 50
0.0
 51
90.0
  0
LINE
  5
247
330
1F
100
AcDbEntity
  8
0
  6
Continuous
 62
     7
370
    15
100
AcDbLine
 10
73.0904505515
 20
345.2622064097
 30
0.0
 11
73.0904505515
 21
351.1122064097
 31
0.0
  0
LINE
  5
248
330
1F
100
AcDbEntity
  8
0
  6
Continuous
 62
     7
370
    15
100
AcDbLine
 10
73.0904505515
 20
345.2622064097
 30
0.0
 11
91.7760014769
 21
345.2622064097
 31
0.0
  0
LINE
  5
249
330
1F
100
AcDbEntity
  8
0
  6
Continuous
 62
     7
370
    15
100
AcDbLine
 10
91.7760014769
 20
351.1122064097
 30
0.0
 11
91.7760014769
 21
345.2622064097
 31
0.0
  0
LINE
  5
24A
330
1F
100
AcDbEntity
  8
0
  6
Continuous
 62
     7
370
    15
100
AcDbLine
 10
155.5734795673
 20
345.2622064097
 30
0.0
 11
155.5734795673
 21
351.1122064097
 31
0.0
  0
LINE
  5
24B
330
1F
100
AcDbEntity
  8
0
  6
Continuous
 62
     7
370
    15
100
AcDbLine
 10
155.5734795673
 20
345.2622064097
 30
0.0
 11
175.0751894774
 21
345.2622064097
 31
0.0
  0
LINE
  5
24C
330
1F
100
AcDbEntity
  8
0
  6
Continuous
 62
     7
370
    15
100
AcDbLine
 10
155.5734795673
 20
255.3622064097
 30
0.0
 11
175.0751894774
 21
255.3622064097
 31
0.0
  0
LINE
  5
24D
330
1F
100
AcDbEntity
  8
0
  6
Continuous
 62
     7
370
    15
100
AcDbLine
 10
155.5734795673
 20
249.5122064097
 30
0.0
 11
155.5734795673
 21
255.3622064097
 31
0.0
  0
LINE
  5
24E
330
1F
100
AcDbEntity
  8
0
  6
Continuous
 62
     7
370
    15
100
AcDbLine
 10
91.7760014769
 20
255.3622064097
 30
0.0
 11
91.7760014769
 21
249.5122064097
 31
0.0
  0
LINE
  5
24F
330
1F
100
AcDbEntity
  8
0
  6
Continuous
 62
     7
370
    15
100
AcDbLine
 10
73.0904505515
 20
255.3622064097
 30
0.0
 11
91.7760014769
 21
255.3622064097
 31
0.0
  0
LINE
  5
250
330
1F
100
AcDbEntity
  8
0
  6
Continuous
 62
     7
370
    15
100
AcDbLine
 10
73.0904505515
 20
249.5122064097
 30
0.0
 11
73.0904505515
 21
255.3622064097
 31
0.0
  0
LINE
  5
251
330
1F
100
AcDbEntity
  8
0
  6
Continuous
 62
     7
370
    15
100
AcDbLine
 10
21.4218781253
 20
255.3622064097
 30
0.0
 11
21.4218781253
 21
249.5122064097
 31
0.0
  0
LINE
  5
252
330
1F
100
AcDbEntity
  8
0
  6
Continuous
 62
     7
370
    15
100
AcDbLine
 10
2.3551894774
 20
255.3622064097
 30
0.0
 11
21.4218781253
 21
255.3622064097
 31
0.0
  0
LINE
  5
253
330
1F
100
AcDbEntity
  8
0
  6
Continuous
 62
     7
370
    15
100
AcDbLine
 10
39.055614383
 20
332.3122064097
 30
0.0
 11
39.055614383
 21
351.1122064097
 31
0.0
  0
LINE
  5
254
330
1F
100
AcDbEntity
  8
0
  6
Continuous
 62
     7
370
    15
100
AcDbLine
 10
77.864364142
 20
322.3122064097
 30
0.0
 11
77.864364142
 21
278.3122064097
 31
0.0
  0
LINE
  5
255
330
1F
100
AcDbEntity
  8
0
  6
Continuous
 62
     7
370
    15
100
AcDbLine
 10
53.0872645719
 20
332.3122064097
 30
0.0
 11
67.864364142
 21
332.3122064097
 31
0.0
  0
LINE
  5
256
330
1F
100
AcDbEntity
  8
0
  6
Continuous
 62
     7
370
    15
100
AcDbLine
 10
53.0872645719
 20
351.1122064097
 30
0.0
 11
53.0872645719
 21
332.3122064097
 31
0.0
  0
LINE
  5
257
330
1F
100
AcDbEntity
  8
0
  6
Continuous
 62
     7
370
    15
100
AcDbLine
 10
73.0904505515
 20
249.5122064097
 30
0.0
 11
21.4218781253
 21
249.5122064097
 31
0.0
  0
LINE
  5
258
330
1F
100
AcDbEntity
  8
0
  6
Continuous
 62
     7
370
    15
100
AcDbLine
 10
23.864364142
 20
332.3122064097
 30
0.0
 11
39.055614383
 21
332.3122064097
 31
0.0
  0
LINE
  5
259
330
1F
100
AcDbEntity
  8
0
  6
Continuous
 62
     7
370
    15
100
AcDbLine
 10
13.864364142
 20
278.3122064097
 30
0.0
 11
13.864364142
 21
322.3122064097
 31
0.0
  0
LINE
  5
25A
330
1F
100
AcDbEntity
  8
0
  6
Continuous
 62
     7
370
    15
100
AcDbLine
 10
67.864364142
 20
268.3122064097
 30
0.0
 11
23.864364142
 21
268.3122064097
 31
0.0
  0
LINE
  5
25B
330
1F
100
AcDbEntity
  8
0
  6
Continuous
 62
     7
370
    15
100
AcDbLine
 10
21.4218781253
 20
351.1122064097
 30
0.0
 11
39.055614383
 21
351.1122064097
 31
0.0
  0
LINE
  5
25C
330
1F
100
AcDbEntity
  8
0
  6
Continuous
 62
     7
370
    15
100
AcDbLine
 10
175.0751894774
 20
345.2622064097
 30
0.0
 11
175.0751894774
 21
255.3622064097
 31
0.0
  0
LINE
  5
25D
330
1F
100
AcDbEntity
  8
0
  6
Continuous
 62
     7
370
    15
100
AcDbLine
 10
91.7760014769
 20
351.1122064097
 30
0.0
 11
155.5734795673
 21
351.1122064097
 31
0.0
  0
LINE
  5
25E
330
1F
100
AcDbEntity
  8
0
  6
Continuous
 62
     7
370
    15
100
AcDbLine
 10
155.5734795673
 20
249.5122064097
 30
0.0
 11
91.7760014769
 21
249.5122064097
 31
0.0
  0
LINE
  5
25F
330
1F
100
AcDbEntity
  8
0
  6
Continuous
 62
     7
370
    15
100
AcDbLine
 10
53.0872645719
 20
351.1122064097
 30
0.0
 11
73.0904505515
 21
351.1122064097
 31
0.0
  0
LINE
  5
260
330
1F
100
AcDbEntity
  8
0
  6
Continuous
 62
     7
370
    15
100
AcDbLine
 10
8.2051894774
 20
319.7645338648
 30
0.0
 11
2.3551894774
 21
319.7645338648
 31
0.0
  0
LINE
  5
261
330
1F
100
AcDbEntity
  8
0
  6
Continuous
 62
     7
370
    15
100
AcDbLine
 10
2.3551894774
 20
255.3622064097
 30
0.0
 11
2.3551894774
 21
278.28908678
 31
0.0
  0
LINE
  5
262
330
1F
100
AcDbEntity
  8
0
  6
Continuous
 62
     7
370
    15
100
AcDbLine
 10
2.3551894774
 20
319.7645338648
 30
0.0
 11
2.3551894774
 21
345.2622064097
 31
0.0
  0
LINE
  5
263
330
1F
100
AcDbEntity
  8
0
  6
Continuous
 62
     7
370
    15
100
AcDbLine
 10
2.3551894774
 20
278.28908678
 30
0.0
 11
8.2051894774
 21
278.28908678
 31
0.0
  0
LINE
  5
264
330
1F
100
AcDbEntity
  8
0
  6
Continuous
 62
     7
370
    15
100
AcDbLine
 10
8.2051894774
 20
278.28908678
 30
0.0
 11
8.2051894774
 21
319.7645338648
 31
0.0
  0
LINE
  5
265
330
1F
100
AcDbEntity
  8
0
  6
Continuous
 62
     7
370
    15
100
AcDbLine
 10
31.3691058734
 20
326.2580206309
 30
0.0
 11
37.9591058734
 21
326.2580206309
 31
0.0
  0
LINE
  5
266
330
1F
100
AcDbEntity
  8
0
  6
Continuous
 62
     7
370
    15
100
AcDbLine
 10
37.9591058734
 20
326.2580206309
 30
0.0
 11
37.9591058734
 21
303.9800206309
 31
0.0
  0
LINE
  5
267
330
1F
100
AcDbEntity
  8
0
  6
Continuous
 62
     7
370
    15
100
AcDbLine
 10
37.9591058734
 20
303.9800206309
 30
0.0
 11
33.9591058734
 21
303.9800206309
 31
0.0
  0
LINE
  5
268
330
1F
100
AcDbEntity
  8
0
  6
Continuous
 62
     7
370
    15
100
AcDbLine
 10
33.9591058734
 20
303.9800206309
 30
0.0
 11
33.9591058734
 21
306.9800206309
 31
0.0
  0
LINE
  5
269
330
1F
100
AcDbEntity
  8
0
  6
Continuous
 62
     7
370
    15
100
AcDbLine
 10
33.9591058734
 20
306.9800206309
 30
0.0
 11
22.4291058734
 21
306.9800206309
 31
0.0
  0
LINE
  5
26A
330
1F
100
AcDbEntity
  8
0
  6
Continuous
 62
     7
370
    15
100
AcDbLine
 10
22.4291058734
 20
306.9800206309
 30
0.0
 11
22.4291058734
 21
303.9800206309
 31
0.0
  0
LINE
  5
26B
330
1F
100
AcDbEntity
  8
0
  6
Continuous
 62
     7
370
    15
100
AcDbLine
 10
22.4291058734
 20
303.9800206309
 30
0.0
 11
18.4291058734
 21
303.9800206309
 31
0.0
  0
LINE
  5
26C
330
1F
100
AcDbEntity
  8
0
  6
Continuous
 62
     7
370
    15
100
AcDbLine
 10
18.4291058734
 20
303.9800206309
 30
0.0
 11
18.4291058734
 21
326.2580206309
 31
0.0
  0
LINE
  5
26D
330
1F
100
AcDbEntity
  8
0
  6
Continuous
 62
     7
370
    15
100
AcDbLine
 10
18.4291058734
 20
326.2580206309
 30
0.0
 11
25.0191058734
 21
326.2580206309
 31
0.0
  0
LINE
  5
26E
330
1F
100
AcDbEntity
  8
0
  6
Continuous
 62
     7
370
    15
100
AcDbLine
 10
25.0191058734
 20
326.2580206309
 30
0.0
 11
25.0191058734
 21
313.4800206309
 31
0.0
  0
LINE
  5
26F
330
1F
100
AcDbEntity
  8
0
  6
Continuous
 62
     7
370
    15
100
AcDbLine
 10
31.3691058734
 20
313.4800206309
 30
0.0
 11
25.0191058734
 21
313.4800206309
 31
0.0
  0
LINE
  5
270
330
1F
100
AcDbEntity
  8
0
  6
Continuous
 62
     7
370
    15
100
AcDbLine
 10
31.3691058734
 20
326.2580206309
 30
0.0
 11
31.3691058734
 21
313.4800206309
 31
0.0
  0
LINE
  5
271
330
1F
100
AcDbEntity
  8
0
  6
Continuous
 62
     7
370
    15
100
AcDbLine
 10
105.5222068383
 20
409.3341293713
 30
0.0
 11
111.5222068383
 21
409.3341293713
 31
0.0
  0
LINE
  5
272
330
1F
100
AcDbEntity
  8
0
  6
Continuous
 62
     7
370
    15
100
AcDbLine
 10
105.5222068383
 20
413.3341293713
 30
0.0
 11
105.5222068383
 21
409.3341293713
 31
0.0
  0
ARC
  5
273
330
1F
100
AcDbEntity
  8
0
  6
Continuous
 62
     7
370
    15
100
AcDbCircle
 10
101.5222068383
 20
422.4992807612
 30
0.0
 40
10.0
100
AcDbArc
 50
293.5781784782
 51
0.0
  0
ARC
  5
274
330
1F
100
AcDbEntity
  8
0
  6
Continuous
 62
     7
370
    15
100
AcDbCircle
 10
137.8002068383
 20
372.2570213613
 30
0.0
 40
10.0
100
AcDbArc
 50
180.0
 51
270.0
  0
ARC
  5
275
330
1F
100
AcDbEntity
  8
0
  6
Continuous
 62
     7
370
    15
100
AcDbCircle
 10
101.5222068383
 20
372.2570213613
 30
0.0
 40
10.0
100
AcDbArc
 50
270.0
 51
0.0
  0
ARC
  5
276
330
1F
100
AcDbEntity
  8
0
  6
Continuous
 62
     7
370
    15
100
AcDbCircle
 10
101.5222068383
 20
384.6389779814
 30
0.0
 40
10.0
100
AcDbArc
 50
0.0
 51
66.4218215218
  0
LINE
  5
277
330
1F
100
AcDbEntity
  8
0
  6
Continuous
 62
     7
370
    15
100
AcDbLine
 10
105.5222068383
 20
397.8041293713
 30
0.0
 11
105.5222068383
 21
393.8041293713
 31
0.0
  0
LINE
  5
278
330
1F
100
AcDbEntity
  8
0
  6
Continuous
 62
     7
370
    15
100
AcDbLine
 10
111.5222068383
 20
397.8041293713
 30
0.0
 11
105.5222068383
 21
397.8041293713
 31
0.0
  0
LINE
  5
279
330
1F
100
AcDbEntity
  8
0
  6
Continuous
 62
     7
370
    15
100
AcDbLine
 10
115.0222068383
 20
400.3076293713
 30
0.0
 11
115.0222068383
 21
406.1576293713
 31
0.0
  0
LINE
  5
27A
330
1F
100
AcDbEntity
  8
0
  6
Continuous
 62
     7
370
    15
100
AcDbLine
 10
115.0222068383
 20
406.1576293713
 30
0.0
 11
111.5222068383
 21
406.1576293713
 31
0.0
  0
LINE
  5
27B
330
1F
100
AcDbEntity
  8
0
  6
Continuous
 62
     7
370
    15
100
AcDbLine
 10
111.5222068383
 20
400.3076293713
 30
0.0
 11
115.0222068383
 21
400.3076293713
 31
0.0
  0
LINE
  5
27C
330
1F
100
AcDbEntity
  8
0
  6
Continuous
 62
     7
370
    15
100
AcDbLine
 10
140.5002068383
 20
355.9070213613
 30
0.0
 11
76.5004068383
 21
355.9070213613
 31
0.0
  0
LINE
  5
27D
330
1F
100
AcDbEntity
  8
0
  6
Continuous
 62
     7
370
    15
100
AcDbLine
 10
140.5002068383
 20
362.2570213613
 30
0.0
 11
140.5002068383
 21
355.9070213613
 31
0.0
  0
LINE
  5
27E
330
1F
100
AcDbEntity
  8
0
  6
Continuous
 62
     7
370
    15
100
AcDbLine
 10
137.8002068383
 20
362.2570213613
 30
0.0
 11
140.5002068383
 21
362.2570213613
 31
0.0
  0
LINE
  5
27F
330
1F
100
AcDbEntity
  8
0
  6
Continuous
 62
     7
370
    15
100
AcDbLine
 10
127.8002068383
 20
431.3341293713
 30
0.0
 11
127.8002068383
 21
372.2570213613
 31
0.0
  0
LINE
  5
280
330
1F
100
AcDbEntity
  8
0
  6
Continuous
 62
     7
370
    15
100
AcDbLine
 10
111.5222068383
 20
431.3341293713
 30
0.0
 11
127.8002068383
 21
431.3341293713
 31
0.0
  0
LINE
  5
281
330
1F
100
AcDbEntity
  8
0
  6
Continuous
 62
     7
370
    15
100
AcDbLine
 10
111.5222068383
 20
422.4992807612
 30
0.0
 11
111.5222068383
 21
431.3341293713
 31
0.0
  0
LINE
  5
282
330
1F
100
AcDbEntity
  8
0
  6
Continuous
 62
     7
370
    15
100
AcDbLine
 10
76.5004068383
 20
362.2570213613
 30
0.0
 11
101.5222068383
 21
362.2570213613
 31
0.0
  0
LINE
  5
283
330
1F
100
AcDbEntity
  8
0
  6
Continuous
 62
     7
370
    15
100
AcDbLine
 10
76.5004068383
 20
355.9070213613
 30
0.0
 11
76.5004068383
 21
362.2570213613
 31
0.0
  0
LINE
  5
284
330
1F
100
AcDbEntity
  8
0
  6
Continuous
 62
     7
370
    15
100
AcDbLine
 10
111.5222068383
 20
372.2570213613
 30
0.0
 11
111.5222068383
 21
384.6389779814
 31
0.0
  0
LINE
  5
285
330
1F
100
AcDbEntity
  8
0
  6
Continuous
 62
     7
370
    15
100
AcDbLine
 10
111.5222068383
 20
397.8041293713
 30
0.0
 11
111.5222068383
 21
400.3076293713
 31
0.0
  0
LINE
  5
286
330
1F
100
AcDbEntity
  8
0
  6
Continuous
 62
     7
370
    15
100
AcDbLine
 10
111.5222068383
 20
406.1576293713
 30
0.0
 11
111.5222068383
 21
409.3341293713
 31
0.0
  0
LINE
  5
287
330
1F
100
AcDbEntity
  8
0
  6
Continuous
 62
     7
370
    15
100
AcDbLine
 10
131.3708447013
 20
196.1154988456
 30
0.0
 11
131.3708447013
 21
157.8154988456
 31
0.0
  0
LINE
  5
288
330
1F
100
AcDbEntity
  8
0
  6
Continuous
 62
     7
370
    15
100
AcDbLine
 10
131.3708447013
 20
157.8154988456
 30
0.0
 11
119.2406362095
 21
157.8154988456
 31
0.0
  0
LINE
  5
289
330
1F
100
AcDbEntity
  8
0
  6
Continuous
 62
     7
370
    15
100
AcDbLine
 10
119.2406362095
 20
157.8154988456
 30
0.0
 11
119.2406362095
 21
146.1154988456
 31
0.0
  0
LINE
  5
28A
330
1F
100
AcDbEntity
  8
0
  6
Continuous
 62
     7
370
    15
100
AcDbLine
 10
119.2406362095
 20
146.1154988456
 30
0.0
 11
61.6673028761
 21
146.1154988456
 31
0.0
  0
LINE
  5
28B
330
1F
100
AcDbEntity
  8
0
  6
Continuous
 62
     7
370
    15
100
AcDbLine
 10
61.6673028761
 20
157.8154988456
 30
0.0
 11
4.0939695428
 21
157.8154988456
 31
0.0
  0
LINE
  5
28C
330
1F
100
AcDbEntity
  8
0
  6
Continuous
 62
     7
370
    15
100
AcDbLine
 10
4.0939695428
 20
157.8154988456
 30
0.0
 11
4.0939695428
 21
171.5154988456
 31
0.0
  0
LINE
  5
28D
330
1F
100
AcDbEntity
  8
0
  6
Continuous
 62
     7
370
    15
100
AcDbLine
 10
4.0939695428
 20
171.5154988456
 30
0.0
 11
9.9439695428
 21
171.5154988456
 31
0.0
  0
LINE
  5
28E
330
1F
100
AcDbEntity
  8
0
  6
Continuous
 62
     7
370
    15
100
AcDbLine
 10
9.9439695428
 20
171.5154988456
 30
0.0
 11
9.9439695428
 21
196.9154988456
 31
0.0
  0
LINE
  5
28F
330
1F
100
AcDbEntity
  8
0
  6
Continuous
 62
     7
370
    15
100
AcDbLine
 10
9.9439695428
 20
196.9154988456
 30
0.0
 11
4.0939695428
 21
196.9154988456
 31
0.0
  0
LINE
  5
290
330
1F
100
AcDbEntity
  8
0
  6
Continuous
 62
     7
370
    15
100
AcDbLine
 10
4.0939695428
 20
196.9154988456
 30
0.0
 11
4.0939695428
 21
247.7154988456
 31
0.0
  0
LINE
  5
291
330
1F
100
AcDbEntity
  8
0
  6
Continuous
 62
     7
370
    15
100
AcDbLine
 10
4.0939695428
 20
247.7154988456
 30
0.0
 11
23.1606581907
 21
247.7154988456
 31
0.0
  0
LINE
  5
292
330
1F
100
AcDbEntity
  8
0
  6
Continuous
 62
     7
370
    15
100
AcDbLine
 10
23.1606581907
 20
247.7154988456
 30
0.0
 11
23.1606581907
 21
213.5951150284
 31
0.0
  0
LINE
  5
293
330
1F
100
AcDbEntity
  8
0
  6
Continuous
 62
     7
370
    15
100
AcDbLine
 10
23.1606581907
 20
213.5951150284
 30
0.0
 11
64.8517325835
 21
213.5951150284
 31
0.0
  0
LINE
  5
294
330
1F
100
AcDbEntity
  8
0
  6
Continuous
 62
     7
370
    15
100
AcDbLine
 10
64.8517325835
 20
213.5951150284
 30
0.0
 11
64.8517325835
 21
222.3154988456
 31
0.0
  0
LINE
  5
295
330
1F
100
AcDbEntity
  8
0
  6
Continuous
 62
     7
370
    15
100
AcDbLine
 10
64.8517325835
 20
222.3154988456
 30
0.0
 11
74.8292306169
 21
222.3154988456
 31
0.0
  0
LINE
  5
296
330
1F
100
AcDbEntity
  8
0
  6
Continuous
 62
     7
370
    15
100
AcDbLine
 10
74.8292306169
 20
222.3154988456
 30
0.0
 11
74.8292306169
 21
247.7154988456
 31
0.0
  0
LINE
  5
297
330
1F
100
AcDbEntity
  8
0
  6
Continuous
 62
     7
370
    15
100
AcDbLine
 10
74.8292306169
 20
247.7154988456
 30
0.0
 11
93.5147815423
 21
247.7154988456
 31
0.0
  0
LINE
  5
298
330
1F
100
AcDbEntity
  8
0
  6
Continuous
 62
     7
370
    15
100
AcDbLine
 10
93.5147815423
 20
247.7154988456
 30
0.0
 11
93.5147815423
 21
222.3154988456
 31
0.0
  0
LINE
  5
299
330
1F
100
AcDbEntity
  8
0
  6
Continuous
 62
     7
370
    15
100
AcDbLine
 10
93.5147815423
 20
222.3154988456
 30
0.0
 11
103.7447482922
 21
222.3154988456
 31
0.0
  0
LINE
  5
29A
330
1F
100
AcDbEntity
  8
0
  6
Continuous
 62
     7
370
    15
100
AcDbLine
 10
103.7447482922
 20
222.3154988456
 30
0.0
 11
103.7447482922
 21
213.5951150284
 31
0.0
  0
LINE
  5
29B
330
1F
100
AcDbEntity
  8
0
  6
Continuous
 62
     7
370
    15
100
AcDbLine
 10
103.7447482922
 20
213.5951150284
 30
0.0
 11
147.6742696322
 21
213.5951150284
 31
0.0
  0
LINE
  5
29C
330
1F
100
AcDbEntity
  8
0
  6
Continuous
 62
     7
370
    15
100
AcDbLine
 10
147.6742696322
 20
213.5951150284
 30
0.0
 11
147.6742696322
 21
222.3154988456
 31
0.0
  0
LINE
  5
29D
330
1F
100
AcDbEntity
  8
0
  6
Continuous
 62
     7
370
    15
100
AcDbLine
 10
147.6742696322
 20
222.3154988456
 30
0.0
 11
157.3122596327
 21
222.3154988456
 31
0.0
  0
LINE
  5
29E
330
1F
100
AcDbEntity
  8
0
  6
Continuous
 62
     7
370
    15
100
AcDbLine
 10
157.3122596327
 20
222.3154988456
 30
0.0
 11
157.3122596327
 21
247.7154988456
 31
0.0
  0
LINE
  5
29F
330
1F
100
AcDbEntity
  8
0
  6
Continuous
 62
     7
370
    15
100
AcDbLine
 10
157.3122596327
 20
247.7154988456
 30
0.0
 11
176.8139695428
 21
247.7154988456
 31
0.0
  0
LINE
  5
2A0
330
1F
100
AcDbEntity
  8
0
  6
Continuous
 62
     7
370
    15
100
AcDbLine
 10
176.8139695428
 20
247.7154988456
 30
0.0
 11
176.8139695428
 21
216.1154988456
 31
0.0
  0
ARC
  5
2A1
330
1F
100
AcDbEntity
  8
0
  6
Continuous
 62
     7
370
    15
100
AcDbCircle
 10
156.8139695428
 20
216.1154988456
 30
0.0
 40
20.0
100
AcDbArc
 50
270.0
 51
0.0
  0
LINE
  5
2A2
330
1F
100
AcDbEntity
  8
0
  6
Continuous
 62
     7
370
    15
100
AcDbLine
 10
156.8139695428
 20
196.1154988456
 30
0.0
 11
131.3708447013
 21
196.1154988456
 31
0.0
  0
LINE
  5
2A3
330
1F
100
AcDbEntity
  8
0
  6
Continuous
 62
     7
370
    15
100
AcDbLine
 10
61.6673028761
 20
157.8154988456
 30
0.0
 11
61.6673028761
 21
146.1154988456
 31
0.0
  0
CIRCLE
  5
2A4
330
1F
100
AcDbEntity
  8
0
  6
Continuous
 62
     7
370
    15
100
AcDbCircle
 10
232.3462813749
 20
466.5507742873
 30
0.0
 40
10.93500000000003
  0
CIRCLE
  5
2A5
330
1F
100
AcDbEntity
  8
0
  6
Continuous
 62
     7
370
    15
100
AcDbCircle
 10
208.7731090571
 20
354.3599325695
 30
0.0
 40
7.0
  0
CIRCLE
  5
2A6
330
1F
100
AcDbEntity
  8
0
  6
Continuous
 62
     7
370
    15
100
AcDbCircle
 10
255.9194536927
 20
354.3599325695
 30
0.0
 40
7.0
  0
CIRCLE
  5
2A7
330
1F
100
AcDbEntity
  8
0
  6
Continuous
 62
     7
370
    15
100
AcDbCircle
 10
232.3462813749
 20
411.1648042873
 30
0.0
 40
10.93500000000003
  0
CIRCLE
  5
2A8
330
1F
100
AcDbEntity
  8
0
  6
Continuous
 62
     7
370
    15
100
AcDbCircle
 10
232.3462813749
 20
377.9331048873
 30
0.0
 40
3.174999999999926
  0
CIRCLE
  5
2A9
330
1F
100
AcDbEntity
  8
0
  6
Continuous
 62
     7
370
    15
100
AcDbCircle
 10
255.9194536927
 20
401.5062772051
 30
0.0
 40
6.999999999999972
  0
CIRCLE
  5
2AA
330
1F
100
AcDbEntity
  8
0
  6
Continuous
 62
     7
370
    15
100
AcDbCircle
 10
208.7731090571
 20
401.5062772051
 30
0.0
 40
6.999999999999943
  0
ARC
  5
2AB
330
1F
100
AcDbEntity
  8
0
  6
Continuous
 62
     7
370
    15
100
AcDbCircle
 10
273.1462813749
 20
494.3968548873
 30
0.0
 40
10.0
100
AcDbArc
 50
0.0
 51
90.0
  0
LINE
  5
2AC
330
1F
100
AcDbEntity
  8
0
  6
Continuous
 62
     7
370
    15
100
AcDbLine
 10
283.1462813749
 20
494.3968548873
 30
0.0
 11
283.1462813749
 21
446.823521554
 31
0.0
  0
LINE
  5
2AD
330
1F
100
AcDbEntity
  8
0
  6
Continuous
 62
     7
370
    15
100
AcDbLine
 10
283.1462813749
 20
446.823521554
 30
0.0
 11
277.2962813749
 21
446.823521554
 31
0.0
  0
LINE
  5
2AE
330
1F
100
AcDbEntity
  8
0
  6
Continuous
 62
     7
370
    15
100
AcDbLine
 10
277.2962813749
 20
446.823521554
 30
0.0
 11
277.2962813749
 21
389.2501882206
 31
0.0
  0
LINE
  5
2AF
330
1F
100
AcDbEntity
  8
0
  6
Continuous
 62
     7
370
    15
100
AcDbLine
 10
277.2962813749
 20
389.2501882206
 30
0.0
 11
283.1462813749
 21
389.2501882206
 31
0.0
  0
LINE
  5
2B0
330
1F
100
AcDbEntity
  8
0
  6
Continuous
 62
     7
370
    15
100
AcDbLine
 10
249.2796147083
 20
331.6768548873
 30
0.0
 11
249.2796147083
 21
337.5268548873
 31
0.0
  0
LINE
  5
2B1
330
1F
100
AcDbEntity
  8
0
  6
Continuous
 62
     7
370
    15
100
AcDbLine
 10
249.2796147083
 20
337.5268548873
 30
0.0
 11
215.4129480416
 21
337.5268548873
 31
0.0
  0
LINE
  5
2B2
330
1F
100
AcDbEntity
  8
0
  6
Continuous
 62
     7
370
    15
100
AcDbLine
 10
215.4129480416
 20
337.5268548873
 30
0.0
 11
215.4129480416
 21
331.6768548873
 31
0.0
  0
LINE
  5
2B3
330
1F
100
AcDbEntity
  8
0
  6
Continuous
 62
     7
370
    15
100
AcDbLine
 10
215.4129480416
 20
331.6768548873
 30
0.0
 11
181.5462813749
 21
331.6768548873
 31
0.0
  0
LINE
  5
2B4
330
1F
100
AcDbEntity
  8
0
  6
Continuous
 62
     7
370
    15
100
AcDbLine
 10
181.5462813749
 20
389.2501882206
 30
0.0
 11
187.3962813749
 21
389.2501882206
 31
0.0
  0
LINE
  5
2B5
330
1F
100
AcDbEntity
  8
0
  6
Continuous
 62
     7
370
    15
100
AcDbLine
 10
187.3962813749
 20
389.2501882206
 30
0.0
 11
187.3962813749
 21
446.823521554
 31
0.0
  0
LINE
  5
2B6
330
1F
100
AcDbEntity
  8
0
  6
Continuous
 62
     7
370
    15
100
AcDbLine
 10
181.5462813749
 20
446.823521554
 30
0.0
 11
181.5462813749
 21
494.3968548873
 31
0.0
  0
ARC
  5
2B7
330
1F
100
AcDbEntity
  8
0
  6
Continuous
 62
     7
370
    15
100
AcDbCircle
 10
191.5462813749
 20
494.3968548873
 30
0.0
 40
10.0
100
AcDbArc
 50
90.0
 51
180.0
  0
LINE
  5
2B8
330
1F
100
AcDbEntity
  8
0
  6
Continuous
 62
     7
370
    15
100
AcDbLine
 10
191.5462813749
 20
504.3968548873
 30
0.0
 11
273.1462813749
 21
504.3968548873
 31
0.0
  0
LINE
  5
2B9
330
1F
100
AcDbEntity
  8
0
  6
Continuous
 62
     7
370
    15
100
AcDbLine
 10
200.5962813749
 20
478.8968548873
 30
0.0
 11
200.5962813749
 21
484.3968548873
 31
0.0
  0
LINE
  5
2BA
330
1F
100
AcDbEntity
  8
0
  6
Continuous
 62
     7
370
    15
100
AcDbLine
 10
200.5962813749
 20
484.3968548873
 30
0.0
 11
187.0962813749
 21
484.3968548873
 31
0.0
  0
LINE
  5
2BB
330
1F
100
AcDbEntity
  8
0
  6
Continuous
 62
     7
370
    15
100
AcDbLine
 10
187.0962813749
 20
484.3968548873
 30
0.0
 11
187.0962813749
 21
478.8968548873
 31
0.0
  0
LINE
  5
2BC
330
1F
100
AcDbEntity
  8
0
  6
Continuous
 62
     7
370
    15
100
AcDbLine
 10
187.0962813749
 20
478.8968548873
 30
0.0
 11
200.5962813749
 21
478.8968548873
 31
0.0
  0
LINE
  5
2BD
330
1F
100
AcDbEntity
  8
0
  6
Continuous
 62
     7
370
    15
100
AcDbLine
 10
277.5962813749
 20
478.8968548873
 30
0.0
 11
277.5962813749
 21
484.3968548873
 31
0.0
  0
LINE
  5
2BE
330
1F
100
AcDbEntity
  8
0
  6
Continuous
 62
     7
370
    15
100
AcDbLine
 10
277.5962813749
 20
484.3968548873
 30
0.0
 11
264.0962813749
 21
484.3968548873
 31
0.0
  0
LINE
  5
2BF
330
1F
100
AcDbEntity
  8
0
  6
Continuous
 62
     7
370
    15
100
AcDbLine
 10
264.0962813749
 20
484.3968548873
 30
0.0
 11
264.0962813749
 21
478.8968548873
 31
0.0
  0
LINE
  5
2C0
330
1F
100
AcDbEntity
  8
0
  6
Continuous
 62
     7
370
    15
100
AcDbLine
 10
264.0962813749
 20
478.8968548873
 30
0.0
 11
277.5962813749
 21
478.8968548873
 31
0.0
  0
CIRCLE
  5
2C1
330
1F
100
AcDbEntity
  8
0
  6
Continuous
 62
     7
370
    15
100
AcDbCircle
 10
197.3962813749
 20
436.823521554
 30
0.0
 40
2.850000000000023
  0
CIRCLE
  5
2C2
330
1F
100
AcDbEntity
  8
0
  6
Continuous
 62
     7
370
    15
100
AcDbCircle
 10
267.2962813749
 20
436.823521554
 30
0.0
 40
2.850000000000023
  0
LINE
  5
2C3
330
1F
100
AcDbEntity
  8
0
  6
Continuous
 62
     7
370
    15
100
AcDbLine
 10
187.3962813749
 20
446.823521554
 30
0.0
 11
181.5462813749
 21
446.823521554
 31
0.0
  0
LINE
  5
2C4
330
1F
100
AcDbEntity
  8
0
  6
Continuous
 62
     7
370
    15
100
AcDbLine
 10
283.1462813749
 20
331.6768548873
 30
0.0
 11
249.2796147083
 21
331.6768548873
 31
0.0
  0
LINE
  5
2C5
330
1F
100
AcDbEntity
  8
0
  6
Continuous
 62
     7
370
    15
100
AcDbLine
 10
181.5462813749
 20
331.6768548873
 30
0.0
 11
181.5462813749
 21
389.2501882206
 31
0.0
  0
LINE
  5
2C6
330
1F
100
AcDbEntity
  8
0
  6
Continuous
 62
     7
370
    15
100
AcDbLine
 10
283.1462813749
 20
389.2501882206
 30
0.0
 11
283.1462813749
 21
331.6768548873
 31
0.0
  0
CIRCLE
  5
2C7
330
1F
100
AcDbEntity
  8
0
  6
Continuous
 62
     7
370
    15
100
AcDbCircle
 10
229.2420622527
 20
292.6356394253
 30
0.0
 40
9.000000000000028
  0
CIRCLE
  5
2C8
330
1F
100
AcDbEntity
  8
0
  6
Continuous
 62
     7
370
    15
100
AcDbCircle
 10
205.6688899349
 20
180.4447977075
 30
0.0
 40
2.539999999999992
  0
CIRCLE
  5
2C9
330
1F
100
AcDbEntity
  8
0
  6
Continuous
 62
     7
370
    15
100
AcDbCircle
 10
252.8152345705
 20
180.4447977075
 30
0.0
 40
2.539999999999992
  0
CIRCLE
  5
2CA
330
1F
100
AcDbEntity
  8
0
  6
Continuous
 62
     7
370
    15
100
AcDbCircle
 10
229.2420622527
 20
237.2496694253
 30
0.0
 40
9.000000000000028
  0
LINE
  5
2CB
330
1F
100
AcDbEntity
  8
0
  6
Continuous
 62
     7
370
    15
100
AcDbLine
 10
265.6815025784
 20
304.9817200253
 30
0.0
 11
265.6815025784
 21
310.4817200253
 31
0.0
  0
LINE
  5
2CC
330
1F
100
AcDbEntity
  8
0
  6
Continuous
 62
     7
370
    15
100
AcDbLine
 10
265.6815025784
 20
310.4817200253
 30
0.0
 11
261.1815025784
 21
310.4817200253
 31
0.0
  0
LINE
  5
2CD
330
1F
100
AcDbEntity
  8
0
  6
Continuous
 62
     7
370
    15
100
AcDbLine
 10
261.1815025784
 20
310.4817200253
 30
0.0
 11
261.1815025784
 21
304.9817200253
 31
0.0
  0
LINE
  5
2CE
330
1F
100
AcDbEntity
  8
0
  6
Continuous
 62
     7
370
    15
100
AcDbLine
 10
261.1815025784
 20
304.9817200253
 30
0.0
 11
265.6815025784
 21
304.9817200253
 31
0.0
  0
LINE
  5
2CF
330
1F
100
AcDbEntity
  8
0
  6
Continuous
 62
     7
370
    15
100
AcDbLine
 10
188.6815025784
 20
304.9817200253
 30
0.0
 11
188.6815025784
 21
310.4817200253
 31
0.0
  0
LINE
  5
2D0
330
1F
100
AcDbEntity
  8
0
  6
Continuous
 62
     7
370
    15
100
AcDbLine
 10
188.6815025784
 20
310.4817200253
 30
0.0
 11
184.1815025784
 21
310.4817200253
 31
0.0
  0
LINE
  5
2D1
330
1F
100
AcDbEntity
  8
0
  6
Continuous
 62
     7
370
    15
100
AcDbLine
 10
184.1815025784
 20
310.4817200253
 30
0.0
 11
184.1815025784
 21
304.9817200253
 31
0.0
  0
LINE
  5
2D2
330
1F
100
AcDbEntity
  8
0
  6
Continuous
 62
     7
370
    15
100
AcDbLine
 10
184.1815025784
 20
304.9817200253
 30
0.0
 11
188.6815025784
 21
304.9817200253
 31
0.0
  0
LINE
  5
2D3
330
1F
100
AcDbEntity
  8
0
  6
Continuous
 62
     7
370
    15
100
AcDbLine
 10
197.6815025784
 20
304.9817200253
 30
0.0
 11
197.6815025784
 21
310.4817200253
 31
0.0
  0
LINE
  5
2D4
330
1F
100
AcDbEntity
  8
0
  6
Continuous
 62
     7
370
    15
100
AcDbLine
 10
197.6815025784
 20
310.4817200253
 30
0.0
 11
193.1815025784
 21
310.4817200253
 31
0.0
  0
LINE
  5
2D5
330
1F
100
AcDbEntity
  8
0
  6
Continuous
 62
     7
370
    15
100
AcDbLine
 10
193.1815025784
 20
310.4817200253
 30
0.0
 11
193.1815025784
 21
304.9817200253
 31
0.0
  0
LINE
  5
2D6
330
1F
100
AcDbEntity
  8
0
  6
Continuous
 62
     7
370
    15
100
AcDbLine
 10
274.6815025784
 20
304.9817200253
 30
0.0
 11
274.6815025784
 21
310.4817200253
 31
0.0
  0
LINE
  5
2D7
330
1F
100
AcDbEntity
  8
0
  6
Continuous
 62
     7
370
    15
100
AcDbLine
 10
274.6815025784
 20
310.4817200253
 30
0.0
 11
270.1815025784
 21
310.4817200253
 31
0.0
  0
LINE
  5
2D8
330
1F
100
AcDbEntity
  8
0
  6
Continuous
 62
     7
370
    15
100
AcDbLine
 10
270.1815025784
 20
310.4817200253
 30
0.0
 11
270.1815025784
 21
304.9817200253
 31
0.0
  0
LINE
  5
2D9
330
1F
100
AcDbEntity
  8
0
  6
Continuous
 62
     7
370
    15
100
AcDbLine
 10
270.1815025784
 20
304.9817200253
 30
0.0
 11
274.6815025784
 21
304.9817200253
 31
0.0
  0
LINE
  5
2DA
330
1F
100
AcDbEntity
  8
0
  6
Continuous
 62
     7
370
    15
100
AcDbLine
 10
280.2315025784
 20
272.908386692
 30
0.0
 11
274.3815025784
 21
272.908386692
 31
0.0
  0
LINE
  5
2DB
330
1F
100
AcDbEntity
  8
0
  6
Continuous
 62
     7
370
    15
100
AcDbLine
 10
274.3815025784
 20
272.908386692
 30
0.0
 11
274.3815025784
 21
215.3350533586
 31
0.0
  0
LINE
  5
2DC
330
1F
100
AcDbEntity
  8
0
  6
Continuous
 62
     7
370
    15
100
AcDbLine
 10
274.3815025784
 20
215.3350533586
 30
0.0
 11
280.2315025784
 21
215.3350533586
 31
0.0
  0
LINE
  5
2DD
330
1F
100
AcDbEntity
  8
0
  6
Continuous
 62
     7
370
    15
100
AcDbLine
 10
280.2315025784
 20
215.3350533586
 30
0.0
 11
280.2315025784
 21
157.7617200253
 31
0.0
  0
LINE
  5
2DE
330
1F
100
AcDbEntity
  8
0
  6
Continuous
 62
     7
370
    15
100
AcDbLine
 10
280.2315025784
 20
157.7617200253
 30
0.0
 11
246.3648359117
 21
157.7617200253
 31
0.0
  0
LINE
  5
2DF
330
1F
100
AcDbEntity
  8
0
  6
Continuous
 62
     7
370
    15
100
AcDbLine
 10
246.3648359117
 20
157.7617200253
 30
0.0
 11
246.3648359117
 21
163.6117200253
 31
0.0
  0
LINE
  5
2E0
330
1F
100
AcDbEntity
  8
0
  6
Continuous
 62
     7
370
    15
100
AcDbLine
 10
246.3648359117
 20
163.6117200253
 30
0.0
 11
212.498169245
 21
163.6117200253
 31
0.0
  0
LINE
  5
2E1
330
1F
100
AcDbEntity
  8
0
  6
Continuous
 62
     7
370
    15
100
AcDbLine
 10
212.498169245
 20
163.6117200253
 30
0.0
 11
212.498169245
 21
157.7617200253
 31
0.0
  0
LINE
  5
2E2
330
1F
100
AcDbEntity
  8
0
  6
Continuous
 62
     7
370
    15
100
AcDbLine
 10
212.498169245
 20
157.7617200253
 30
0.0
 11
178.6315025784
 21
157.7617200253
 31
0.0
  0
LINE
  5
2E3
330
1F
100
AcDbEntity
  8
0
  6
Continuous
 62
     7
370
    15
100
AcDbLine
 10
178.6315025784
 20
157.7617200253
 30
0.0
 11
178.6315025784
 21
215.3350533586
 31
0.0
  0
LINE
  5
2E4
330
1F
100
AcDbEntity
  8
0
  6
Continuous
 62
     7
370
    15
100
AcDbLine
 10
178.6315025784
 20
215.3350533586
 30
0.0
 11
184.4815025784
 21
215.3350533586
 31
0.0
  0
LINE
  5
2E5
330
1F
100
AcDbEntity
  8
0
  6
Continuous
 62
     7
370
    15
100
AcDbLine
 10
184.4815025784
 20
215.3350533586
 30
0.0
 11
184.4815025784
 21
272.908386692
 31
0.0
  0
LINE
  5
2E6
330
1F
100
AcDbEntity
  8
0
  6
Continuous
 62
     7
370
    15
100
AcDbLine
 10
184.4815025784
 20
272.908386692
 30
0.0
 11
178.6315025784
 21
272.908386692
 31
0.0
  0
LINE
  5
2E7
330
1F
100
AcDbEntity
  8
0
  6
Continuous
 62
     7
370
    15
100
AcDbLine
 10
178.6315025784
 20
272.908386692
 30
0.0
 11
178.6315025784
 21
320.4817200253
 31
0.0
  0
ARC
  5
2E8
330
1F
100
AcDbEntity
  8
0
  6
Continuous
 62
     7
370
    15
100
AcDbCircle
 10
188.6315025784
 20
320.4817200253
 30
0.0
 40
10.0
100
AcDbArc
 50
90.0
 51
180.0
  0
LINE
  5
2E9
330
1F
100
AcDbEntity
  8
0
  6
Continuous
 62
     7
370
    15
100
AcDbLine
 10
188.6315025784
 20
330.4817200253
 30
0.0
 11
270.2315025784
 21
330.4817200253
 31
0.0
  0
ARC
  5
2EA
330
1F
100
AcDbEntity
  8
0
  6
Continuous
 62
     7
370
    15
100
AcDbCircle
 10
270.2315025784
 20
320.4817200253
 30
0.0
 40
10.0
100
AcDbArc
 50
0.0
 51
90.0
  0
LINE
  5
2EB
330
1F
100
AcDbEntity
  8
0
  6
Continuous
 62
     7
370
    15
100
AcDbLine
 10
280.2315025784
 20
320.4817200253
 30
0.0
 11
280.2315025784
 21
272.908386692
 31
0.0
  0
CIRCLE
  5
2EC
330
1F
100
AcDbEntity
  8
0
  6
Continuous
 62
     7
370
    15
100
AcDbCircle
 10
229.2420622527
 20
204.0179700253
 30
0.0
 40
9.000000000000028
  0
CIRCLE
  5
2ED
330
1F
100
AcDbEntity
  8
0
  6
Continuous
 62
     7
370
    15
100
AcDbCircle
 10
252.8152345705
 20
227.5911423431
 30
0.0
 40
2.540000000000049
  0
CIRCLE
  5
2EE
330
1F
100
AcDbEntity
  8
0
  6
Continuous
 62
     7
370
    15
100
AcDbCircle
 10
205.6688899349
 20
227.5911423431
 30
0.0
 40
2.539999999999992
  0
CIRCLE
  5
2EF
330
1F
100
AcDbEntity
  8
0
  6
Continuous
 62
     7
370
    15
100
AcDbCircle
 10
194.4815025784
 20
262.908386692
 30
0.0
 40
2.850000000000023
  0
CIRCLE
  5
2F0
330
1F
100
AcDbEntity
  8
0
  6
Continuous
 62
     7
370
    15
100
AcDbCircle
 10
264.3815025784
 20
262.908386692
 30
0.0
 40
2.850000000000023
  0
LINE
  5
2F1
330
1F
100
AcDbEntity
  8
0
  6
Continuous
 62
     7
370
    15
100
AcDbLine
 10
193.1815025784
 20
304.9817200253
 30
0.0
 11
197.6815025784
 21
304.9817200253
 31
0.0
  0
ENDSEC
  0
SECTION
  2
OBJECTS
  0
DICTIONARY
  5
C
330
0
100
AcDbDictionary
281
     1
  3
ACAD_GROUP
350
D
  3
ACAD_LAYOUT
350
1A
  3
ACAD_MLEADERSTYLE
350
2F4
  3
ACAD_MLINESTYLE
350
17
  3
ACAD_PLOTSETTINGS
350
19
  3
ACAD_PLOTSTYLENAME
350
E
  3
ACAD_VISUALSTYLE
350
2A
  3
AcDbVariableDictionary
350
2F2
  0
DICTIONARY
  5
D
102
{ACAD_REACTORS
330
C
102
}
330
C
100
AcDbDictionary
281
     1
  0
DICTIONARY
  5
1A
102
{ACAD_REACTORS
330
C
102
}
330
C
100
AcDbDictionary
281
     1
  3
Layout1
350
1E
  3
Layout2
350
26
  3
Model
350
22
  0
DICTIONARY
  5
2F4
102
{ACAD_REACTORS
330
C
102
}
330
C
100
AcDbDictionary
281
     1
  0
DICTIONARY
  5
17
102
{ACAD_REACTORS
330
C
102
}
330
C
100
AcDbDictionary
281
     1
  3
Standard
350
18
  0
DICTIONARY
  5
19
102
{ACAD_REACTORS
330
C
102
}
330
C
100
AcDbDictionary
281
     1
  0
ACDBDICTIONARYWDFLT
  5
E
102
{ACAD_REACTORS
330
C
102
}
330
C
100
AcDbDictionary
281
     1
  3
Normal
350
F
100
AcDbDictionaryWithDefault
340
F
  0
DICTIONARY
  5
2A
102
{ACAD_REACTORS
330
C
102
}
330
C
100
AcDbDictionary
281
     1
  3
2dWireframe
350
2F
  3
3D Hidden
350
31
  3
3dWireframe
350
30
  3
Basic
350
32
  3
Brighten
350
36
  3
ColorChange
350
3A
  3
Conceptual
350
34
  3
Dim
350
35
  3
Facepattern
350
39
  3
Flat
350
2B
  3
FlatWithEdges
350
2C
  3
Gouraud
350
2D
  3
GouraudWithEdges
350
2E
  3
Linepattern
350
38
  3
Realistic
350
33
  3
Thicken
350
37
  0
DICTIONARY
  5
2F2
102
{ACAD_REACTORS
330
C
102
}
330
C
100
AcDbDictionary
281
     1
  3
DIMASSOC
350
2F7
  3
HIDETEXT
350
2F8
  3
PSOLHEIGHT
350
2F6
  3
PSOLWIDTH
350
2F5
  0
LAYOUT
  5
1E
102
{ACAD_REACTORS
330
1A
102
}
330
1A
100
AcDbPlotSettings
  1

  2
none_device
  4

  6

 40
0.0
 41
0.0
 42
0.0
 43
0.0
 44
0.0
 45
0.0
 46
0.0
 47
0.0
 48
0.0
 49
0.0
140
0.0
141
0.0
142
1.0
143
1.0
 70
   688
 72
     0
 73
     0
 74
     5
  7

 75
    16
147
1.0
148
0.0
149
0.0
100
AcDbLayout
  1
Layout1
 70
     1
 71
     1
 10
0.0
 20
0.0
 11
420.0
 21
297.0
 12
0.0
 22
0.0
 32
0.0
 14
1.0000000000E+20
 24
1.0000000000E+20
 34
1.0000000000E+20
 15
-1.0000000000E+20
 25
-1.0000000000E+20
 35
-1.0000000000E+20
146
0.0
 13
0.0
 23
0.0
 33
0.0
 16
1.0
 26
0.0
 36
0.0
 17
0.0
 27
1.0
 37
0.0
 76
     0
330
1B
  0
LAYOUT
  5
26
102
{ACAD_REACTORS
330
1A
102
}
330
1A
100
AcDbPlotSettings
  1

  2
none_device
  4

  6

 40
0.0
 41
0.0
 42
0.0
 43
0.0
 44
0.0
 45
0.0
 46
0.0
 47
0.0
 48
0.0
 49
0.0
140
0.0
141
0.0
142
1.0
143
1.0
 70
   688
 72
     0
 73
     0
 74
     5
  7

 75
    16
147
1.0
148
0.0
149
0.0
100
AcDbLayout
  1
Layout2
 70
     1
 71
     2
 10
0.0
 20
0.0
 11
0.0
 21
0.0
 12
0.0
 22
0.0
 32
0.0
 14
0.0
 24
0.0
 34
0.0
 15
0.0
 25
0.0
 35
0.0
146
0.0
 13
0.0
 23
0.0
 33
0.0
 16
1.0
 26
0.0
 36
0.0
 17
0.0
 27
1.0
 37
0.0
 76
     0
330
23
  0
LAYOUT
  5
22
102
{ACAD_REACTORS
330
1A
102
}
330
1A
100
AcDbPlotSettings
  1

  2
none_device
  4

  6

 40
0.0
 41
0.0
 42
0.0
 43
0.0
 44
0.0
 45
0.0
 46
0.0
 47
0.0
 48
0.0
 49
0.0
140
0.0
141
0.0
142
1.0
143
1.0
 70
  1712
 72
     0
 73
     0
 74
     0
  7

 75
     0
147
1.0
148
0.0
149
0.0
100
AcDbLayout
  1
Model
 70
     1
 71
     0
 10
0.0
 20
0.0
 11
762.0
 21
508.0
 12
0.0
 22
0.0
 32
0.0
 14
0.0
 24
0.0
 34
0.0
 15
762.0
 25
508.0
 35
0.0
146
0.0
 13
0.0
 23
0.0
 33
0.0
 16
1.0
 26
0.0
 36
0.0
 17
0.0
 27
1.0
 37
0.0
 76
     0
330
1F
331
29
  0
MLINESTYLE
  5
18
102
{ACAD_REACTORS
330
17
102
}
330
17
100
AcDbMlineStyle
  2
Standard
 70
     0
  3

 62
   256
 51
90.0
 52
90.0
 71
     2
 49
0.5
 62
   256
  6
BYLAYER
 49
-0.5
 62
   256
  6
BYLAYER
  0
ACDBPLACEHOLDER
  5
F
102
{ACAD_REACTORS
330
E
102
}
330
E
  0
VISUALSTYLE
  5
2F
102
{ACAD_REACTORS
330
2A
102
}
330
2A
100
AcDbVisualStyle
  2
2dWireframe
 70
     4
 71
     0
 72
     2
 73
     0
 90
        0
 40
-0.6
 41
-30.0
 62
     5
 63
     7
 74
     1
 91
        4
 64
     7
 65
   257
 75
     1
175
     1
 42
1.0
 92
        0
 66
   257
 43
1.0
 76
     1
 77
     6
 78
     2
 67
     7
 79
     5
170
     0
171
     0
290
     0
174
     0
 93
        1
 44
0.0
173
     0
291
     0
 45
0.0
1001
ACAD
1000
AcDbSavedByObjectVersion
1070
     0
  0
VISUALSTYLE
  5
31
102
{ACAD_REACTORS
330
2A
102
}
330
2A
100
AcDbVisualStyle
  2
3D Hidden
 70
     6
 71
     1
 72
     2
 73
     2
 90
        0
 40
-0.6
 41
-30.0
 62
     5
 63
     7
 74
     2
 91
        2
 64
     7
 65
   257
 75
     2
175
     1
 42
40.0
 92
        0
 66
   257
 43
1.0
 76
     1
 77
     6
 78
     2
 67
     7
 79
     3
170
     0
171
     0
290
     0
174
     0
 93
        1
 44
0.0
173
     0
291
     0
 45
0.0
1001
ACAD
1000
AcDbSavedByObjectVersion
1070
     0
  0
VISUALSTYLE
  5
30
102
{ACAD_REACTORS
330
2A
102
}
330
2A
100
AcDbVisualStyle
  2
3dWireframe
 70
     5
 71
     0
 72
     2
 73
     0
 90
        0
 40
-0.6
 41
-30.0
 62
     5
 63
     7
 74
     1
 91
        4
 64
     7
 65
   257
 75
     1
175
     1
 42
1.0
 92
        0
 66
   257
 43
1.0
 76
     1
 77
     6
 78
     2
 67
     7
 79
     5
170
     0
171
     0
290
     0
174
     0
 93
        1
 44
0.0
173
     0
291
     0
 45
0.0
1001
ACAD
1000
AcDbSavedByObjectVersion
1070
     0
  0
VISUALSTYLE
  5
32
102
{ACAD_REACTORS
330
2A
102
}
330
2A
100
AcDbVisualStyle
  2
Basic
 70
     7
 71
     1
 72
     0
 73
     1
 90
        0
 40
-0.6
 41
-30.0
 62
     5
 63
     7
 74
     0
 91
        4
 64
     7
 65
   257
 75
     1
175
     1
 42
1.0
 92
        8
 66
     7
 43
1.0
 76
     1
 77
     6
 78
     2
 67
     7
 79
     5
170
     0
171
     0
290
     0
174
     0
 93
        1
 44
0.0
173
     0
291
     1
 45
0.0
1001
ACAD
1000
AcDbSavedByObjectVersion
1070
     0
  0
VISUALSTYLE
  5
36
102
{ACAD_REACTORS
330
2A
102
}
330
2A
100
AcDbVisualStyle
  2
Brighten
 70
    12
 71
     2
 72
     2
 73
     0
 90
        0
 40
-0.6
 41
-30.0
 62
     5
 63
     7
 74
     1
 91
        4
 64
     7
 65
   257
 75
     1
175
     1
 42
1.0
 92
        8
 66
     7
 43
1.0
 76
     1
 77
     6
 78
     2
 67
     7
 79
     5
170
     0
171
     0
290
     0
174
     0
 93
        1
 44
50.0
173
     0
291
     1
 45
0.0
1001
ACAD
1000
AcDbSavedByObjectVersion
1070
     0
  0
VISUALSTYLE
  5
3A
102
{ACAD_REACTORS
330
2A
102
}
330
2A
100
AcDbVisualStyle
  2
ColorChange
 70
    16
 71
     2
 72
     2
 73
     3
 90
        0
 40
-0.6
 41
-30.0
 62
     5
 63
     8
 74
     1
 91
        4
 64
     7
 65
   257
 75
     1
175
     1
 42
1.0
 92
        8
 66
     8
 43
1.0
 76
     1
 77
     6
 78
     2
 67
     7
 79
     5
170
     0
171
     0
290
     0
174
     0
 93
        1
 44
0.0
173
     0
291
     1
 45
0.0
1001
ACAD
1000
AcDbSavedByObjectVersion
1070
     0
  0
VISUALSTYLE
  5
34
102
{ACAD_REACTORS
330
2A
102
}
330
2A
100
AcDbVisualStyle
  2
Conceptual
 70
     9
 71
     3
 72
     2
 73
     0
 90
        0
 40
-0.6
 41
-30.0
 62
     5
 63
     7
 74
     2
 91
        2
 64
     7
 65
   257
 75
     1
175
     1
 42
40.0
 92
        8
 66
     7
 43
1.0
 76
     1
 77
     6
 78
     2
 67
     7
 79
     3
170
     0
171
     0
290
     0
174
     0
 93
        1
 44
0.0
173
     0
291
     0
 45
0.0
1001
ACAD
1000
AcDbSavedByObjectVersion
1070
     0
  0
VISUALSTYLE
  5
35
102
{ACAD_REACTORS
330
2A
102
}
330
2A
100
AcDbVisualStyle
  2
Dim
 70
    11
 71
     2
 72
     2
 73
     0
 90
        0
 40
-0.6
 41
-30.0
 62
     5
 63
     7
 74
     1
 91
        4
 64
     7
 65
   257
 75
     1
175
     1
 42
1.0
 92
        8
 66
     7
 43
1.0
 76
     1
 77
     6
 78
     2
 67
     7
 79
     5
170
     0
171
     0
290
     0
174
     0
 93
        1
 44
-50.0
173
     0
291
     1
 45
0.0
1001
ACAD
1000
AcDbSavedByObjectVersion
1070
     0
  0
VISUALSTYLE
  5
39
102
{ACAD_REACTORS
330
2A
102
}
330
2A
100
AcDbVisualStyle
  2
Facepattern
 70
    15
 71
     2
 72
     2
 73
     0
 90
        0
 40
-0.6
 41
-30.0
 62
     5
 63
     7
 74
     1
 91
        4
 64
     7
 65
   257
 75
     1
175
     1
 42
1.0
 92
        8
 66
     7
 43
1.0
 76
     1
 77
     6
 78
     2
 67
     7
 79
     5
170
     0
171
     0
290
     0
174
     0
 93
        1
 44
0.0
173
     0
291
     1
 45
0.0
1001
ACAD
1000
AcDbSavedByObjectVersion
1070
     0
  0
VISUALSTYLE
  5
2B
102
{ACAD_REACTORS
330
2A
102
}
330
2A
100
AcDbVisualStyle
  2
Flat
 70
     0
 71
     2
 72
     1
 73
     1
 90
        2
 40
-0.6
 41
30.0
 62
     5
 63
     7
 74
     0
 91
        4
 64
     7
 65
   257
 75
     1
175
     1
 42
1.0
 92
        8
 66
     7
 43
1.0
 76
     1
 77
     6
 78
     2
 67
     7
 79
     5
170
     0
171
     0
290
     0
174
     0
 93
       13
 44
0.0
173
     0
291
     1
 45
0.0
1001
ACAD
1000
AcDbSavedByObjectVersion
1070
     0
  0
VISUALSTYLE
  5
2C
102
{ACAD_REACTORS
330
2A
102
}
330
2A
100
AcDbVisualStyle
  2
FlatWithEdges
 70
     1
 71
     2
 72
     1
 73
     1
 90
        2
 40
-0.6
 41
30.0
 62
     5
 63
     7
 74
     1
 91
        4
 64
     7
 65
   257
 75
     1
175
     1
 42
1.0
 92
        0
 66
   257
 43
1.0
 76
     1
 77
     6
 78
     2
 67
     7
 79
     5
170
     0
171
     0
290
     0
174
     0
 93
       13
 44
0.0
173
     0
291
     1
 45
0.0
1001
ACAD
1000
AcDbSavedByObjectVersion
1070
     0
  0
VISUALSTYLE
  5
2D
102
{ACAD_REACTORS
330
2A
102
}
330
2A
100
AcDbVisualStyle
  2
Gouraud
 70
     2
 71
     2
 72
     2
 73
     1
 90
        2
 40
-0.6
 41
30.0
 62
     5
 63
     7
 74
     0
 91
        4
 64
     7
 65
   257
 75
     1
175
     1
 42
1.0
 92
        0
 66
     7
 43
1.0
 76
     1
 77
     6
 78
     2
 67
     7
 79
     5
170
     0
171
     0
290
     0
174
     0
 93
       13
 44
0.0
173
     0
291
     1
 45
0.0
1001
ACAD
1000
AcDbSavedByObjectVersion
1070
     0
  0
VISUALSTYLE
  5
2E
102
{ACAD_REACTORS
330
2A
102
}
330
2A
100
AcDbVisualStyle
  2
GouraudWithEdges
 70
     3
 71
     2
 72
     2
 73
     1
 90
        2
 40
-0.6
 41
30.0
 62
     5
 63
     7
 74
     1
 91
        4
 64
     7
 65
   257
 75
     1
175
     1
 42
1.0
 92
        0
 66
   257
 43
1.0
 76
     1
 77
     6
 78
     2
 67
     7
 79
     5
170
     0
171
     0
290
     0
174
     0
 93
       13
 44
0.0
173
     0
291
     1
 45
0.0
1001
ACAD
1000
AcDbSavedByObjectVersion
1070
     0
  0
VISUALSTYLE
  5
38
102
{ACAD_REACTORS
330
2A
102
}
330
2A
100
AcDbVisualStyle
  2
Linepattern
 70
    14
 71
     2
 72
     2
 73
     0
 90
        0
 40
-0.6
 41
-30.0
 62
     5
 63
     7
 74
     1
 91
        4
 64
     7
 65
   257
 75
     7
175
     7
 42
1.0
 92
        8
 66
     7
 43
1.0
 76
     1
 77
     6
 78
     2
 67
     7
 79
     5
170
     0
171
     0
290
     0
174
     0
 93
        1
 44
0.0
173
     0
291
     1
 45
0.0
1001
ACAD
1000
AcDbSavedByObjectVersion
1070
     0
  0
VISUALSTYLE
  5
33
102
{ACAD_REACTORS
330
2A
102
}
330
2A
100
AcDbVisualStyle
  2
Realistic
 70
     8
 71
     2
 72
     2
 73
     0
 90
        0
 40
-0.6
 41
-30.0
 62
     5
 63
     7
 74
     1
 91
        0
 64
     7
 65
   257
 75
     1
175
     1
 42
1.0
 92
        8
 66
     8
 43
1.0
 76
     1
 77
     6
 78
     2
 67
     7
 79
     5
170
     0
171
     0
290
     0
174
     0
 93
       13
 44
0.0
173
     0
291
     0
 45
0.0
1001
ACAD
1000
AcDbSavedByObjectVersion
1070
     0
  0
VISUALSTYLE
  5
37
102
{ACAD_REACTORS
330
2A
102
}
330
2A
100
AcDbVisualStyle
  2
Thicken
 70
    13
 71
     2
 72
     2
 73
     0
 90
        0
 40
-0.6
 41
-30.0
 62
     5
 63
     7
 74
     1
 91
        4
 64
     7
 65
   257
 75
     1
175
     1
 42
1.0
 92
       12
 66
     7
 43
1.0
 76
     1
 77
     6
 78
     2
 67
     7
 79
     5
170
     0
171
     0
290
     0
174
     0
 93
        1
 44
0.0
173
     0
291
     1
 45
0.0
1001
ACAD
1000
AcDbSavedByObjectVersion
1070
     0
  0
DICTIONARYVAR
  5
2F7
102
{ACAD_REACTORS
330
2F2
102
}
330
2F2
100
DictionaryVariables
280
     0
  1
2
  0
DICTIONARYVAR
  5
2F8
102
{ACAD_REACTORS
330
2F2
102
}
330
2F2
100
DictionaryVariables
280
     0
  1
1
  0
DICTIONARYVAR
  5
2F6
102
{ACAD_REACTORS
330
2F2
102
}
330
2F2
100
DictionaryVariables
280
     0
  1
80.000000
  0
DICTIONARYVAR
  5
2F5
102
{ACAD_REACTORS
330
2F2
102
}
330
2F2
100
DictionaryVariables
280
     0
  1
5.000000
  0
ENDSEC
  0
EOF
